<svg xmlns="http://www.w3.org/2000/svg" viewBox="0 0 599.78 607.81"><defs><style>.cls-1{fill:#fff;}.cls-2,.cls-3,.cls-4{fill:none;stroke:#fff;}.cls-2,.cls-4{stroke-linecap:round;stroke-linejoin:round;}.cls-2{stroke-width:6px;}.cls-3{stroke-miterlimit:10;}.cls-3,.cls-4{stroke-width:3px;}</style></defs><g id="圖層_2" data-name="圖層 2"><g id="圖層_1-2" data-name="圖層 1"><path class="cls-1" d="M42,112a1,1,0,0,0,.51.11,11.08,11.08,0,0,1,6,2.08,8,8,0,0,1,2,2.13,6.21,6.21,0,0,1,1,2.79c0,.28.06.56.06.84v20.52a12.75,12.75,0,0,1-.53,3.68,12,12,0,0,1-2,3.79,18.64,18.64,0,0,1-3,3.05c-.89.74-1.81,1.46-2.72,2.18-.75.59-1.51,1.19-2.21,1.84a11.77,11.77,0,0,0-1.49,1.66,7.21,7.21,0,0,0-1.42,3.69c0,.45-.06.89-.06,1.34q0,12.62,0,25.22a11.33,11.33,0,0,1,0,1.17,6.55,6.55,0,0,1-1.61,3.48,9.46,9.46,0,0,1-3.54,2.52,11.11,11.11,0,0,1-3,.81l-1.41.14a4,4,0,0,1-.77,0c-.46,0-.91-.08-1.37-.14a10.94,10.94,0,0,1-4.05-1.34,8.94,8.94,0,0,1-2.34-1.85,6.61,6.61,0,0,1-1.65-3.2,10.56,10.56,0,0,1-.13-1.13,5.42,5.42,0,0,1,0-.57q0-12.63,0-25.26a10.59,10.59,0,0,0-.13-1.78,7.73,7.73,0,0,0-1.54-3.35,13.33,13.33,0,0,0-2.09-2.09c-1-.84-2.07-1.65-3.11-2.48a26.54,26.54,0,0,1-3-2.66A13.78,13.78,0,0,1,6.21,146,11.8,11.8,0,0,1,5,141.65a.94.94,0,0,0-.18-.65V119.59a.6.6,0,0,0,.18-.47,6.78,6.78,0,0,1,.53-1.87,7.66,7.66,0,0,1,2.49-3,10.92,10.92,0,0,1,6-2.12.93.93,0,0,0,.51-.11h.73a.93.93,0,0,0,.47.11l.88.07a10.58,10.58,0,0,1,2.55.63,9.81,9.81,0,0,1,2.17,1.09.36.36,0,0,0,.48,0l.07,0a11.32,11.32,0,0,1,5.53-1.76.6.6,0,0,0,.43-.1h.81a.71.71,0,0,0,.47.1,8.86,8.86,0,0,1,1.36.16,11.18,11.18,0,0,1,4.14,1.59l.29.17c.06,0,.09,0,.11,0l.31-.18a11.1,11.1,0,0,1,5.39-1.69.89.89,0,0,0,.51-.11ZM24.89,173.7v13.06c0,.18,0,.35,0,.53a2.45,2.45,0,0,0,.91,1.83,3.39,3.39,0,0,0,1,.57,4.07,4.07,0,0,0,1.79.26,3.66,3.66,0,0,0,2.14-.76,2.45,2.45,0,0,0,1-1.71,5.42,5.42,0,0,0,0-.57q0-12.51,0-25V161a9.55,9.55,0,0,1,.16-1.77,11.39,11.39,0,0,1,1.26-3.62,14.66,14.66,0,0,1,2.65-3.42,32.15,32.15,0,0,1,2.79-2.41c1-.77,2-1.54,2.91-2.33a11.77,11.77,0,0,0,2.17-2.29A7.5,7.5,0,0,0,45,141c0-.23,0-.46,0-.69v-20.4a2.2,2.2,0,0,0-.53-1.45,2.94,2.94,0,0,0-1-.77,4.11,4.11,0,0,0-3-.29,3.38,3.38,0,0,0-1.36.69,2.38,2.38,0,0,0-.91,1.95V135.4a2.16,2.16,0,0,1-.62,1.5,3,3,0,0,1-.8.61,4.23,4.23,0,0,1-1.35.41,3.89,3.89,0,0,1-2.28-.36,2.72,2.72,0,0,1-1.18-1,1.82,1.82,0,0,1-.32-1V120.34c0-.15,0-.3,0-.44a2.43,2.43,0,0,0-.72-1.67,3.34,3.34,0,0,0-1-.7,4.17,4.17,0,0,0-2.81-.17,3.28,3.28,0,0,0-1.53.88,2.22,2.22,0,0,0-.68,1.39q0,.34,0,.69,0,7.29,0,14.59v.61a1.92,1.92,0,0,1-.47,1.23,2.77,2.77,0,0,1-1,.82,4,4,0,0,1-2.29.35,3.94,3.94,0,0,1-1.69-.63,2.52,2.52,0,0,1-.86-1,2.67,2.67,0,0,1-.21-1.11V122.73c0-.93,0-1.86,0-2.8a2.31,2.31,0,0,0-.8-1.79,3.2,3.2,0,0,0-.91-.6,4.13,4.13,0,0,0-1.9-.33,3.72,3.72,0,0,0-2.15.74,2.39,2.39,0,0,0-1,1.48,3.49,3.49,0,0,0,0,.65v20.68a7.73,7.73,0,0,0,1.93,5.08,16.27,16.27,0,0,0,2.17,2.06L18.36,150a26.57,26.57,0,0,1,3.14,2.86,12.72,12.72,0,0,1,2.91,5,10.88,10.88,0,0,1,.45,2.34c0,.54,0,1.08,0,1.62C24.9,165.78,24.89,169.74,24.89,173.7Z"/><path class="cls-1" d="M111.74,167.94a.92.92,0,0,0-.11.46,20.66,20.66,0,0,1-.25,2.83c-.18,1.32-.41,2.64-.71,3.94a37.13,37.13,0,0,1-2.12,6.5,25.56,25.56,0,0,1-4.18,6.67A19.26,19.26,0,0,1,95,194.2a21.18,21.18,0,0,1-3,.63,17.49,17.49,0,0,1-2.17.19c-.27,0-.54,0-.81,0-.54,0-1.08,0-1.62,0l-.61,0a20.84,20.84,0,0,1-9.25-2.54,19.51,19.51,0,0,1-5.85-5,26.06,26.06,0,0,1-3.64-6.25,36,36,0,0,1-2-6.4c-.23-1-.4-2.07-.57-3.11-.09-.56-.12-1.13-.2-1.69-.14-.92-.15-1.85-.21-2.78a13.27,13.27,0,0,1,.27-3.38,12.1,12.1,0,0,1,2.44-5,20.4,20.4,0,0,1,3-3c.93-.77,1.89-1.5,2.83-2.25a26.22,26.22,0,0,0,2.32-2,10.1,10.1,0,0,0,1.28-1.57,7.18,7.18,0,0,0,1.09-2.86,11.53,11.53,0,0,0,.14-1.77V119.66a5.62,5.62,0,0,1,.64-2.57,7.54,7.54,0,0,1,2-2.51,10.51,10.51,0,0,1,4.21-2.1,9.74,9.74,0,0,1,2.28-.34A.66.66,0,0,0,88,112h.73a.77.77,0,0,0,.47.1,5.12,5.12,0,0,1,.56,0,13.32,13.32,0,0,1,2.26.46,10.53,10.53,0,0,1,3.75,2,7.82,7.82,0,0,1,1.46,1.63,6.5,6.5,0,0,1,1.12,3.7v25.29c0,.3,0,.6,0,.89a10.54,10.54,0,0,0,.1,1.13,7.54,7.54,0,0,0,1.25,3,11.8,11.8,0,0,0,1.91,2.08c.61.52,1.23,1,1.85,1.53.91.73,1.84,1.45,2.75,2.2a19.56,19.56,0,0,1,2.35,2.29,12.35,12.35,0,0,1,2.56,4.42,8.18,8.18,0,0,1,.46,2.29.41.41,0,0,0,.11.3ZM91.8,133h0v-7.47c0-1.89,0-3.78,0-5.67a2.33,2.33,0,0,0-.65-1.62,3.25,3.25,0,0,0-.87-.65,4.16,4.16,0,0,0-3-.28,3.26,3.26,0,0,0-1.57.89,2.29,2.29,0,0,0-.7,1.67v25.76a13.92,13.92,0,0,1-.16,2.14,11.35,11.35,0,0,1-1.27,3.74,15.19,15.19,0,0,1-2.91,3.67c-.76.73-1.57,1.4-2.4,2.06s-1.83,1.43-2.73,2.17a14.08,14.08,0,0,0-2.31,2.32,7.63,7.63,0,0,0-1.58,4.92,33.76,33.76,0,0,0,.28,3.48c.13,1,.27,2,.48,3,.15.72.31,1.43.48,2.14a28.21,28.21,0,0,0,2.24,6.07,17.78,17.78,0,0,0,3.62,4.95,13.36,13.36,0,0,0,9,3.67h1a13.34,13.34,0,0,0,2.74-.28,13.15,13.15,0,0,0,6.69-3.5,18,18,0,0,0,3.66-5.12A28.89,28.89,0,0,0,104,175.2c.26-1.06.5-2.12.66-3.21.1-.72.23-1.44.31-2.16s.13-1.53.19-2.3a9.28,9.28,0,0,0,0-1.9,7.58,7.58,0,0,0-1.05-3.17,10.55,10.55,0,0,0-1.91-2.25c-.7-.65-1.46-1.25-2.21-1.84-.92-.74-1.85-1.46-2.75-2.21a17.88,17.88,0,0,1-2.93-3,12.09,12.09,0,0,1-1.75-3.19,11.85,11.85,0,0,1-.71-4.09Q91.79,139.45,91.8,133Z"/><line class="cls-2" x1="296.99" y1="222.59" x2="297.12" y2="342.09"/><line class="cls-2" x1="141.9" y1="257.68" x2="226.49" y2="342.09"/><line class="cls-2" x1="452.49" y1="257.68" x2="367.9" y2="342.09"/><path class="cls-2" d="M154.25,548.57l-51-125a26,26,0,0,0-33.8-14.22L19.13,429.89a26,26,0,0,0-14.22,33.8l51,125a26,26,0,0,0,33.8,14.22L140,582.37A26,26,0,0,0,154.25,548.57Zm-52.12,33a13.51,13.51,0,1,1,13-13.5A13.25,13.25,0,0,1,102.13,581.59Z"/><path class="cls-2" d="M452.16,466.9c12.44-8.5,22.76-19.48,33.3-30.14,9.9-10,20.76-20.83,33.11-27.82,6.73-3.8,14.45-5.23,21.13-.49"/><path class="cls-2" d="M482.29,435.18c-12.64-1.44-23.29,8.43-33,15-11.66,7.93-23.65,15.51-37.05,20.12l1.51-.53c-.52.15-1,.34-1.51.53"/><path class="cls-2" d="M587.56,419.74c5.29-7.59,8.2-17.61-.93-23.6-6.11-4-14.33-3.78-21-1.51-8.58,2.91-16.66,9.2-23.59,14.87-7.38,6-13.12,13.92-20.72,19.67-7.16,5.42-29.16,23.42-29.16,23.42"/><path class="cls-2" d="M356.13,458.59c-28.12,3-48,8-49,11-1.92,5.77,13,10,31,11,27.05,1.51,54,2,81,1,25-1,51,1,73-15,24-18,45-36,74-43,10-2,22.08-2.06,29,7,3,4,1.38,9.21-1,13-8.71,13.9-20.77,23.27-32,33-28.29,24.53-61,42-95,58-2,1-3,0-5,1-4,2-9,4-13,6-2,1-3,0-5,1-28,12-58,18-89,22-11,1-23,2-34,1-24-3-46-10-68-18-28-9-58-9-87-3l-46.5-122.07,4.46-3.66c24.59-15.09,59.79-26.33,88.92-26,19.41.2,36,7.92,54.77,12.3,18,4.2,36.8,3.13,55.41,3.13,35.93,0,64.94-6.66,100.94-11.66,16.95-2.35,37.56-12.61,47,5,9.12,17-9.31,24.84-24,31C416.13,445.59,384.13,455.59,356.13,458.59Z"/><path class="cls-3" d="M243.57,28.49S241.91-14.78,254.63,17"/><path class="cls-4" d="M353.55,68.17c6,3.23,14.9,7.5,13.93,12.2a6.51,6.51,0,0,1-7.75,4.91c-2.66-.61-1.82-3.84-.62-6,1.91-3.43,11.58-4,18.54,1.85"/><path class="cls-3" d="M257.16,113.58c-9.27-2.78-3.87-17.81-11-24.16-6.48-5.77-17.28-.9-24.06-6.5-3.14-2.59-4.66-6.63-5.2-10.55-.22-1.59-.81-4.82-.08-6.3s4.06-2.91,5.54-3.85c4.35-2.78,8.23-4,11.17-8.42,3.51-5.23,1.59-8.13,5.56-17.61,4.36-10.43,9.73-10.65,13.44-13.43,4-3,2-17.38,5.56-20.39C264.57-3.2,272,20,274.77,17.19c10.19-3.7,38-3.7,46.34,0,13.22,5.88,24.34,11.28,29.2,24.57,4.6,12.6,4.61,31.62-1.1,43.56-3,6.3-8.72,17.56-13.27,23.63-2.19,2.92-5.61,8.27-9.27,8.34-8.91.18-6.49-14.83-12.51-14.36-9.73,2.31-34.76,3.24-43.1-1.4C266.93,99.24,262.72,113.58,257.16,113.58Z"/><ellipse class="cls-1" cx="257.17" cy="53.99" rx="4.89" ry="5.23"/><rect class="cls-1" x="529.11" y="135.69" width="19.04" height="7.89" rx="3.95"/><polygon class="cls-1" points="538.63 104.89 487.34 139.63 491.3 147.21 499.63 142.12 499.63 200.71 534.29 200.71 534.29 193.07 508.5 193.07 508.5 138.33 539.07 117.18 567.8 138.33 567.8 148.16 578.25 148.16 578.25 143.58 583.98 148.16 591.76 140.98 538.63 104.89"/><path class="cls-1" d="M541.61,198.47c-2.06-8.88-1.34-19.09,3.13-27.16a22.31,22.31,0,0,1,10-9.56c5-2.33,10.6-2.73,16-3.16,6.22-.5,12.5-1.05,18.17-3.86l-2.21-.9a40.12,40.12,0,0,1-3.44,31.5c-2.56,4.58-6,9-10.56,11.72-4.39,2.54-9.52,3.38-14.52,3.61-5.8.27-11.59-.21-17.38-.22a1.5,1.5,0,0,0,0,3c10.67,0,22.25,1.82,32.18-3.14,5-2.52,8.85-6.92,11.79-11.64a44.3,44.3,0,0,0,6.16-16.41A41.7,41.7,0,0,0,589.58,153a1.53,1.53,0,0,0-2.21-.89c-10.53,5.22-23.1,2-33.8,6.86-9.39,4.25-14.24,14-15.57,23.83a45.46,45.46,0,0,0,.72,16.44c.43,1.88,3.33,1.08,2.89-.8Z"/><path class="cls-1" d="M578.32,175.76a11.37,11.37,0,0,1-1.54.32h0l-.18,0-.57.06c-.4,0-.81.06-1.22.08a23.62,23.62,0,0,1-2.38,0l-.62-.05-.24,0h0a8,8,0,0,1-1-.21c2.93-2.83,5.83-5.7,8.65-8.64,1.33-1.39-.78-3.52-2.12-2.12-2.68,2.79-5.43,5.51-8.21,8.21h0c0-.09,0-.18,0-.27V173c-.05-.44-.08-.88-.1-1.32,0-.86,0-1.72,0-2.58a40.85,40.85,0,0,0,0-5.19,1.54,1.54,0,0,0-1.5-1.5,1.51,1.51,0,0,0-1.5,1.5,36.87,36.87,0,0,1,0,4.93,25.43,25.43,0,0,0,.36,5.78,9.6,9.6,0,0,0,.34,1.16c-2.27,2.19-4.54,4.37-6.81,6.57-1-2-1-4.83-1.05-6.9,0-2.3.08-4.6.08-6.9a1.5,1.5,0,0,0-3,0c0,4.47-.53,9.16.69,13.52a9.16,9.16,0,0,0,1.06,2.44c-2,1.93-3.88,3.91-5.85,5.84-.07-.17-.14-.34-.19-.5a19.07,19.07,0,0,1-.76-5c-.09-1.9,0-3.8,0-5.69a1.5,1.5,0,0,0-3,0c0,3.78-.31,7.82.88,11.46a10,10,0,0,0,.81,1.87l-.47.45c-2.86,2.6-5.76,5.12-7.92,8.37-1.08,1.61,1.52,3.11,2.59,1.51,2.12-3.18,5.1-5.59,7.88-8.15l.23.14c2.06,1,4.77,1.16,7,1.24a29.91,29.91,0,0,0,8.43-.84,1.5,1.5,0,0,0-.8-2.89,25.2,25.2,0,0,1-12.5.07c1.93-1.89,3.82-3.85,5.74-5.75l.46.28a12.81,12.81,0,0,0,6,1.24c2.16,0,4.28-.32,6.42-.53a1.54,1.54,0,0,0,1.5-1.5,1.51,1.51,0,0,0-1.5-1.5c-3.34.32-7.08,1.16-10.33,0a3.49,3.49,0,0,1-.34-.15l6.52-6.29a3.72,3.72,0,0,0,.48.27,12.46,12.46,0,0,0,5.28.81,18.81,18.81,0,0,0,5.12-.63C581,178.09,580.18,175.19,578.32,175.76Z"/></g></g></svg>