<svg xmlns="http://www.w3.org/2000/svg" viewBox="0 0 500 500"><g id="freepik--Floor--inject-207"><path id="freepik--floor--inject-207" d="M84.3,435.87C-7.21,383-7.21,297.38,84.3,244.54s239.89-52.83,331.4,0,91.51,138.5,0,191.33S175.82,488.71,84.3,435.87Z" style="fill:#f5f5f5"></path></g><g id="freepik--Shadows--inject-207"><polygon points="138.66 449.5 58.76 403.38 110.7 373.39 190.59 419.52 138.66 449.5" style="fill:#e6e6e6"></polygon><path id="freepik--Shadow--inject-207" d="M379.68,385.87,336.32,411a.59.59,0,0,0,0,1.11l45.41,26.15a2.16,2.16,0,0,0,1.92,0L427,413.13a.59.59,0,0,0,0-1.11l-45.41-26.15A2.18,2.18,0,0,0,379.68,385.87Z" style="fill:#e6e6e6"></path><path id="freepik--shadow--inject-207" d="M279.1,399.86c4.84-1.48,8.5-4.79,11.35-9.43,1.07-1.76,2.74-4.21,4.89-4.76s4.07.47,6.06.6c1.81.12,3.61.55,5.45.66a126.27,126.27,0,0,1,14,2c4.66.8,9.77,1.86,12.62,5.63.88,1.16,1.48,2.52,2.35,3.68a4.94,4.94,0,0,0,3.58,2.24c1.51.05,2.83-.94,4-1.88a21.89,21.89,0,0,0,4.8-4.71,7.42,7.42,0,0,0,1.16-6.4c-.92-2.62-3.62-4.11-6.11-5.34-5.85-2.86-11.8-5.52-17.76-8.13-4.62-2-7.81-5.36-12.4-7.54a71.66,71.66,0,0,0-16.18-5.1c-11.95-2.51-24.31-3.57-36.06-6.59-12.49-3.21-24.71-6.66-37.42-8.77-13.1-2.18-25.81-6.28-38.13-11.17l-1.47-.59c-18.94-7.65-37.16-19.92-57.24-24.17A85.1,85.1,0,0,0,91.78,310c-2.55.53-5.43,1.47-6.38,3.9-1.31,3.31,1.81,6.51,4.12,9.23,3,3.53,6.73,9.13,7.09,13.81.42,5.6-2,11.06,2.2,15.85,8.51,9.81,22.31,16.79,34.07,21.8,15.84,6.75,27.17,10.63,43.44,16.24,8.17,2.82,19.73,5,27.29,9.21,5.71,3.16,11.43,7.67,17.69,9.47a54.5,54.5,0,0,0,19.88,2,30.29,30.29,0,0,0,10.91-3.31c3-1.48,5-3.42,7.46-5.56,3.62-3.09,10-1.69,14.46-1.88A20.36,20.36,0,0,0,279.1,399.86Z" style="fill:#e6e6e6"></path></g><g id="freepik--Icons--inject-207"><g id="freepik--Gear--inject-207"><path d="M176.68,249.51a14.45,14.45,0,0,1-2.39-.2.88.88,0,0,1-.74-.87v-1.9a12,12,0,0,1-2.84-1.17l-1.34,1.33a.88.88,0,0,1-1.14.1,14.65,14.65,0,0,1-3.38-3.38.88.88,0,0,1,.1-1.14l1.34-1.34a11.6,11.6,0,0,1-1.18-2.84h-1.89a.88.88,0,0,1-.88-.73,14.44,14.44,0,0,1,0-4.79.89.89,0,0,1,.88-.73h1.89a11.83,11.83,0,0,1,1.18-2.85L165,227.67a.88.88,0,0,1-.1-1.14,14.65,14.65,0,0,1,3.38-3.38.88.88,0,0,1,1.14.1l1.34,1.33a11.9,11.9,0,0,1,2.84-1.17v-1.9a.88.88,0,0,1,.74-.87,14.74,14.74,0,0,1,4.78,0,.88.88,0,0,1,.73.87v1.9a11.8,11.8,0,0,1,2.85,1.17l1.33-1.33a.88.88,0,0,1,1.14-.1,14.27,14.27,0,0,1,3.38,3.38.89.89,0,0,1-.09,1.14L187.07,229a12.25,12.25,0,0,1,1.18,2.85h1.89a.88.88,0,0,1,.87.73,14.54,14.54,0,0,1,.2,2.39,14.82,14.82,0,0,1-.2,2.39.88.88,0,0,1-.87.74h-1.89a12,12,0,0,1-1.18,2.84l1.33,1.34a.88.88,0,0,1,.1,1.14,14.46,14.46,0,0,1-3.38,3.38.88.88,0,0,1-1.14-.1l-1.33-1.33a11.87,11.87,0,0,1-2.85,1.17v1.9a.88.88,0,0,1-.73.87A14.54,14.54,0,0,1,176.68,249.51Zm-2.16-1.14a14.16,14.16,0,0,0,4.31,0v-2.59l.38-.09a11.1,11.1,0,0,0,3.26-1.34l.32-.21,1.83,1.83a13.42,13.42,0,0,0,3-3.06l-1.83-1.82.21-.33a11,11,0,0,0,1.35-3.25l.09-.38h2.58a14.39,14.39,0,0,0,.17-2.16,13.86,13.86,0,0,0-.17-2.15h-2.58l-.09-.38a11.08,11.08,0,0,0-1.35-3.26l-.21-.33,1.83-1.82a13.58,13.58,0,0,0-3-3.05l-1.83,1.83-.32-.21a10.55,10.55,0,0,0-3.26-1.34l-.38-.09v-2.59a14.16,14.16,0,0,0-4.31,0v2.59l-.37.09a10.55,10.55,0,0,0-3.26,1.34l-.33.21L168.74,224a13.42,13.42,0,0,0-3.06,3.05l1.83,1.82-.2.33a11.08,11.08,0,0,0-1.35,3.26l-.09.38h-2.58a13,13,0,0,0,0,4.31h2.58l.09.38a11,11,0,0,0,1.35,3.25l.2.33-1.83,1.83a13.42,13.42,0,0,0,3.06,3.05l1.82-1.83.33.21a11,11,0,0,0,3.26,1.34l.37.09Zm4.39-26.78Zm-4.46,0ZM176.69,242a7,7,0,0,1-5-2.06,7.19,7.19,0,0,1-1.59-7.64,6.75,6.75,0,0,1,3.94-3.94,7.12,7.12,0,0,1,9.23,9.23,6.68,6.68,0,0,1-3.94,3.93A7.63,7.63,0,0,1,176.69,242Zm0-13.15a6.62,6.62,0,0,0-2.3.42,5.73,5.73,0,0,0-3.37,3.36,6.16,6.16,0,0,0,8,8h0a5.73,5.73,0,0,0,3.36-3.37,6.22,6.22,0,0,0-1.36-6.62A6.1,6.1,0,0,0,176.67,228.88Z" style="fill:#e0e0e0"></path></g><g id="freepik--gear--inject-207"><path d="M267.94,61.42a14.58,14.58,0,0,1-2.4-.19.88.88,0,0,1-.73-.88V58.46A11.83,11.83,0,0,1,262,57.28l-1.34,1.34a.88.88,0,0,1-1.14.1,14.46,14.46,0,0,1-3.38-3.38.89.89,0,0,1,.09-1.14l1.35-1.34A11.93,11.93,0,0,1,256.37,50h-1.9a.88.88,0,0,1-.87-.74,14.38,14.38,0,0,1,0-4.78.88.88,0,0,1,.87-.74h1.9a11.93,11.93,0,0,1,1.18-2.84l-1.34-1.34a.88.88,0,0,1-.1-1.14,14.65,14.65,0,0,1,3.38-3.38.9.9,0,0,1,1.14.1L262,36.5a11.76,11.76,0,0,1,2.84-1.18V33.43a.88.88,0,0,1,.74-.88,15.33,15.33,0,0,1,4.78,0,.88.88,0,0,1,.73.88v1.89a11.76,11.76,0,0,1,2.84,1.18l1.34-1.34a.9.9,0,0,1,1.14-.1,14.65,14.65,0,0,1,3.38,3.38.88.88,0,0,1-.1,1.14l-1.34,1.34a11.93,11.93,0,0,1,1.18,2.84h1.9a.88.88,0,0,1,.87.74,14.46,14.46,0,0,1,.19,2.39,14.9,14.9,0,0,1-.19,2.39.88.88,0,0,1-.88.74H279.5a11.93,11.93,0,0,1-1.18,2.84l1.34,1.33a.88.88,0,0,1,.1,1.14,14.5,14.5,0,0,1-3.38,3.39.88.88,0,0,1-1.14-.1l-1.34-1.34a11.83,11.83,0,0,1-2.84,1.18v1.89a.88.88,0,0,1-.73.88A14.54,14.54,0,0,1,267.94,61.42Zm-2.16-1.14a13.55,13.55,0,0,0,4.31,0V57.7l.37-.09a11.07,11.07,0,0,0,3.27-1.35l.32-.2,1.83,1.83a13.62,13.62,0,0,0,3.05-3.06L277.1,53l.2-.32a11,11,0,0,0,1.36-3.26l.08-.37h2.58a13.19,13.19,0,0,0,.17-2.16,13.9,13.9,0,0,0-.16-2.16h-2.59l-.08-.37a11.1,11.1,0,0,0-1.36-3.26l-.2-.33L278.93,39a13.38,13.38,0,0,0-3.05-3.05l-1.83,1.82-.32-.2a11,11,0,0,0-3.26-1.35l-.38-.08V33.5a13.55,13.55,0,0,0-4.31,0v2.59l-.38.08a11,11,0,0,0-3.26,1.35l-.32.2L260,35.9A13.38,13.38,0,0,0,256.94,39l1.83,1.82-.2.33a11.1,11.1,0,0,0-1.36,3.26l-.08.37h-2.59a13.81,13.81,0,0,0,0,4.32h2.59l.08.37a11,11,0,0,0,1.36,3.26l.2.32-1.83,1.83A13.62,13.62,0,0,0,260,57.89l1.83-1.83.32.2a11.07,11.07,0,0,0,3.27,1.35l.37.09Zm4.39-26.77Zm-4.47,0ZM267.94,54a7,7,0,0,1-5-2.07,7.19,7.19,0,0,1-1.59-7.64,6.78,6.78,0,0,1,3.94-3.94,7.12,7.12,0,0,1,9.23,9.23,6.75,6.75,0,0,1-3.94,3.94h0A7.64,7.64,0,0,1,267.94,54Zm0-13.15a6.55,6.55,0,0,0-2.29.41,5.75,5.75,0,0,0-3.37,3.37,6.14,6.14,0,0,0,8,8,5.73,5.73,0,0,0,3.37-3.36,6.22,6.22,0,0,0-1.36-6.62A6.06,6.06,0,0,0,267.92,40.8Z" style="fill:#e0e0e0"></path></g><g id="freepik--gear--inject-207"><path d="M326.32,158.08a.4.4,0,0,0,.39-.33,13.71,13.71,0,0,0,.19-2.32,14.69,14.69,0,0,0-.18-2.31.42.42,0,0,0-.4-.33h-2.27a11.7,11.7,0,0,0-1.41-3.4l1.61-1.6a.4.4,0,0,0,0-.52A13.86,13.86,0,0,0,321,144a.38.38,0,0,0-.51,0l-1.6,1.6a11.36,11.36,0,0,0-3.41-1.4V142a.4.4,0,0,0-.33-.39,14.14,14.14,0,0,0-4.62,0,.4.4,0,0,0-.33.39v2.28a11.36,11.36,0,0,0-3.41,1.4l-1.6-1.6a.38.38,0,0,0-.51,0,13.86,13.86,0,0,0-3.27,3.26.4.4,0,0,0,0,.52l1.61,1.6a11.7,11.7,0,0,0-1.41,3.4H299.4a.42.42,0,0,0-.4.33,14.2,14.2,0,0,0,0,4.63.42.42,0,0,0,.4.33h2.27a11.59,11.59,0,0,0,1.41,3.4l-1.61,1.61a.38.38,0,0,0,0,.51,14.1,14.1,0,0,0,3.27,3.27.4.4,0,0,0,.51-.05l1.6-1.6a11.64,11.64,0,0,0,3.41,1.41v2.27a.42.42,0,0,0,.33.4,14.91,14.91,0,0,0,4.62,0,.42.42,0,0,0,.33-.4v-2.27a11.64,11.64,0,0,0,3.41-1.41l1.6,1.6a.4.4,0,0,0,.51.05,14.1,14.1,0,0,0,3.27-3.27.41.41,0,0,0-.05-.52l-1.6-1.6a11.59,11.59,0,0,0,1.41-3.4Zm-11,3.48a6.63,6.63,0,0,1-8.61-8.6,6.18,6.18,0,0,1,3.65-3.65,6.63,6.63,0,0,1,8.61,8.6A6.21,6.21,0,0,1,315.34,161.56Z" style="fill:#e0e0e0"></path><path d="M345.85,161.65a.24.24,0,0,0,.12-.28,10.36,10.36,0,0,0-1.55-3.15.23.23,0,0,0-.29-.07l-1.55.76a8.67,8.67,0,0,0-2-1.79l.56-1.63a.26.26,0,0,0-.11-.29,10.35,10.35,0,0,0-3.32-1.12.24.24,0,0,0-.26.16l-.56,1.62a8.51,8.51,0,0,0-2.7.18l-.77-1.55a.23.23,0,0,0-.27-.12,10,10,0,0,0-1.64.64,11.41,11.41,0,0,0-1.51.91.23.23,0,0,0-.07.29l.76,1.55a8.45,8.45,0,0,0-1.79,2l-1.63-.55a.22.22,0,0,0-.28.1,10.38,10.38,0,0,0-1.14,3.32.24.24,0,0,0,.16.26l1.63.56a8.57,8.57,0,0,0,.18,2.71l-1.55.76a.23.23,0,0,0-.12.27,10.36,10.36,0,0,0,1.55,3.15.24.24,0,0,0,.3.07l1.54-.76a8.45,8.45,0,0,0,2,1.79l-.56,1.64a.24.24,0,0,0,.11.28,10.61,10.61,0,0,0,3.32,1.13.24.24,0,0,0,.26-.16l.56-1.63a8.31,8.31,0,0,0,2.71-.18l.76,1.55a.23.23,0,0,0,.28.12,10.2,10.2,0,0,0,1.63-.64,10.75,10.75,0,0,0,1.51-.9.25.25,0,0,0,.07-.3l-.76-1.55a8.45,8.45,0,0,0,1.79-2l1.63.56a.24.24,0,0,0,.29-.11,10.26,10.26,0,0,0,1.12-3.32.24.24,0,0,0-.16-.26l-1.63-.55a8.26,8.26,0,0,0-.17-2.71Zm-6.44,6.16a4.88,4.88,0,0,1-8.21-3,4.67,4.67,0,0,1,1.47-4,4.88,4.88,0,0,1,8.21,3A4.7,4.7,0,0,1,339.41,167.81Z" style="fill:#e0e0e0"></path></g><path id="freepik--Pin--inject-207" d="M174.19,149.13a9.57,9.57,0,0,0-9.57,9.58c0,8.7,9.57,17.41,9.57,17.41s9.58-8.71,9.58-17.41A9.57,9.57,0,0,0,174.19,149.13Zm0,14.34a4.77,4.77,0,1,1,4.77-4.76A4.76,4.76,0,0,1,174.19,163.47Z" style="fill:#e0e0e0"></path><g id="freepik--Stars--inject-207"><path d="M142.65,57,146,63.9l7.59,1.1a1.06,1.06,0,0,1,.59,1.81l-5.49,5.36,1.3,7.56a1.07,1.07,0,0,1-1.55,1.12l-6.79-3.57-6.79,3.57a1.06,1.06,0,0,1-1.54-1.12l1.3-7.56-5.49-5.36a1.06,1.06,0,0,1,.58-1.81l7.6-1.1L140.74,57A1.07,1.07,0,0,1,142.65,57Z" style="fill:#e0e0e0"></path><path d="M128.62,80.42l2,4,4.45.65a.62.62,0,0,1,.35,1.06l-3.22,3.14.76,4.43a.63.63,0,0,1-.91.66l-4-2.1-4,2.1a.62.62,0,0,1-.9-.66l.76-4.43-3.22-3.14a.62.62,0,0,1,.34-1.06l4.45-.65,2-4A.63.63,0,0,1,128.62,80.42Z" style="fill:#e0e0e0"></path></g><g id="freepik--Chart--inject-207"><path d="M376.35,88.54a.48.48,0,0,1-.48-.48V48.7a.49.49,0,0,1,1,0V88.06A.48.48,0,0,1,376.35,88.54Z" style="fill:#e0e0e0"></path><path d="M439.51,88.54H370.56a.47.47,0,0,1-.48-.48.48.48,0,0,1,.48-.49h68.95a.48.48,0,0,1,.48.49A.47.47,0,0,1,439.51,88.54Z" style="fill:#e0e0e0"></path><rect x="379.79" y="56.23" width="8.46" height="27.63" style="fill:#f5f5f5"></rect><rect x="391.81" y="75.4" width="8.46" height="8.46" style="fill:#ebebeb"></rect><rect x="403.84" y="49.66" width="8.46" height="34.2" style="fill:#f5f5f5"></rect><rect x="415.86" y="63.33" width="8.46" height="20.54" style="fill:#e0e0e0"></rect><rect x="427.89" y="71.29" width="8.46" height="12.58" style="fill:#f5f5f5"></rect></g><g id="freepik--Pencil--inject-207"><rect x="431.92" y="119.58" width="6.96" height="26.13" style="fill:#e0e0e0"></rect><rect x="431.92" y="117.06" width="6.96" height="2.52" style="fill:#f0f0f0"></rect><path d="M433.74,110.1h3.33a1.82,1.82,0,0,1,1.82,1.82v5.15a0,0,0,0,1,0,0h-7a0,0,0,0,1,0,0v-5.15A1.82,1.82,0,0,1,433.74,110.1Z" style="fill:#e0e0e0"></path><path d="M438.89,145.71h-7l3,7.64a.55.55,0,0,0,1,0Z" style="fill:#f5f5f5"></path><path d="M434.2,151.58l.69,1.77a.55.55,0,0,0,1,0l.69-1.77Z" style="fill:#e0e0e0"></path></g><g id="freepik--paper-plane--inject-207"><polygon points="78.08 169.48 46.11 149.01 32.03 153.53 78.08 169.48" style="fill:#f0f0f0"></polygon><polygon points="78.08 169.48 50.45 146.44 56.59 139.35 78.08 169.48" style="fill:#f0f0f0"></polygon><polygon points="50.45 146.44 50.45 151.79 78.08 169.48 50.45 146.44" style="fill:#e0e0e0"></polygon></g><path id="freepik--World--inject-207" d="M84.24,57.42l-.3-.3,0,0a23,23,0,0,0-32-.48l-.36.35-.18.18a23,23,0,1,0,32.88.3Zm-9.29,1a24.38,24.38,0,0,1,1.36,3.33,21,21,0,0,1-4.62,1.37l-.44.07a20.36,20.36,0,0,1-2.82.22V52.85h.19c.51,0,1,.07,1.53.14A11.76,11.76,0,0,1,75,58.42Zm-1.66-4.79a20.44,20.44,0,0,1,8.43,4.79,21.57,21.57,0,0,1-3.25,2.28l-.4.22-.59.29A26.93,26.93,0,0,0,76,57.6,17,17,0,0,0,73.29,53.63Zm-6.45,19H57.25a38,38,0,0,1,1.41-9.82,22.42,22.42,0,0,0,4.72,1.59l.47.09a21.21,21.21,0,0,0,3,.34Zm0,1.59V82a24.64,24.64,0,0,0-3,.34l-.47.1A21.83,21.83,0,0,0,58.66,84a37.76,37.76,0,0,1-1.41-9.74Zm1.59,0h9.62a38.48,38.48,0,0,1-1.3,9.38,22.47,22.47,0,0,0-4.83-1.4l-.48-.08a24.93,24.93,0,0,0-3-.23Zm0-1.59V64.9a23.05,23.05,0,0,0,3-.23l.47-.08a22.39,22.39,0,0,0,4.84-1.4,38.18,38.18,0,0,1,1.3,9.46Zm-1.75-19.8h.16V63.36A20.85,20.85,0,0,1,64.09,63L63.64,63a20.93,20.93,0,0,1-4.53-1.56,26,26,0,0,1,1.24-3A11.76,11.76,0,0,1,65.15,53C65.66,52.92,66.17,52.87,66.68,52.85ZM59.3,57.6A26.32,26.32,0,0,0,58,60.79c-.18-.09-.36-.18-.54-.29L57,60.27A21.23,21.23,0,0,1,54,58a20.45,20.45,0,0,1,8-4.38A17,17,0,0,0,59.3,57.6Zm-3,4,.41.25.78.42A40.08,40.08,0,0,0,56,72.65H47.1A20.46,20.46,0,0,1,53,59,22.29,22.29,0,0,0,56.31,61.58ZM56,74.24a39,39,0,0,0,1.5,10.32c-.26.14-.52.27-.78.42l-.41.25a22.58,22.58,0,0,0-3.38,2.56,20.48,20.48,0,0,1-5.82-13.55Zm1,12.31.39-.24c.18-.11.36-.19.54-.29a25.66,25.66,0,0,0,1.34,3.19,16.62,16.62,0,0,0,2.71,4,20.29,20.29,0,0,1-8-4.36A20.82,20.82,0,0,1,57,86.55Zm3.32,1.84a26,26,0,0,1-1.24-3,20.9,20.9,0,0,1,4.53-1.55l.45-.1a22.69,22.69,0,0,1,2.75-.32V94h-.16c-.51,0-1-.07-1.53-.13A11.74,11.74,0,0,1,60.35,88.39ZM68.62,94h-.19V83.4a21.89,21.89,0,0,1,2.82.22l.45.07a21.09,21.09,0,0,1,4.61,1.37A23.38,23.38,0,0,1,75,88.39a11.74,11.74,0,0,1-4.8,5.44C69.64,93.89,69.13,93.94,68.62,94ZM76,89.21a27.34,27.34,0,0,0,1.48-3.6c.2.1.4.18.59.29l.4.22a21.1,21.1,0,0,1,3.27,2.29,20.46,20.46,0,0,1-8.45,4.77A16.62,16.62,0,0,0,76,89.21Zm3.15-4.43-.42-.23c-.27-.15-.54-.26-.81-.4a39.32,39.32,0,0,0,1.38-9.91h8.89a20.49,20.49,0,0,1-5.4,13.1A22.32,22.32,0,0,0,79.15,84.78Zm.16-12.13a40,40,0,0,0-1.39-10c.27-.13.55-.25.81-.39l.42-.23a23.38,23.38,0,0,0,3.62-2.55A20.45,20.45,0,0,1,88.2,72.65Z" style="fill:#e0e0e0"></path><g id="freepik----inject-207"><path d="M406.58,311.52a18.87,18.87,0,0,1,0,3.19,7.84,7.84,0,0,1-.48,2.33,5.25,5.25,0,0,1-1.22,1.9,5.86,5.86,0,0,1-2,1.28,9.09,9.09,0,0,1-5.71,0,5.38,5.38,0,0,1-3.24-3.18,7.85,7.85,0,0,1-.51-2.33c-.05-.56-.08-1.08-.08-1.57s0-1,.08-1.62a8,8,0,0,1,.51-2.34,5.58,5.58,0,0,1,1.22-1.89,5.51,5.51,0,0,1,2-1.28,9.09,9.09,0,0,1,5.71,0,5.6,5.6,0,0,1,2,1.28,5.74,5.74,0,0,1,1.22,1.89A7.68,7.68,0,0,1,406.58,311.52Zm10.51-5a2.58,2.58,0,0,1,.61-.59,1.63,1.63,0,0,1,.91-.21h3.44a1.15,1.15,0,0,1,.74.23.76.76,0,0,1,.27.61.68.68,0,0,1,0,.21,1,1,0,0,1-.13.25l-20.76,27.32a2.58,2.58,0,0,1-.61.59,1.63,1.63,0,0,1-.91.21h-3.44a1.08,1.08,0,0,1-.74-.23.76.76,0,0,1-.27-.61.63.63,0,0,1,0-.21,1,1,0,0,1,.13-.25Zm-18.83,7.94a3.55,3.55,0,0,0,.44,1.64,1.41,1.41,0,0,0,1.28.55,1.39,1.39,0,0,0,1.28-.55,3.54,3.54,0,0,0,.45-1.64,16,16,0,0,0,0-2.77,3.54,3.54,0,0,0-.45-1.64,1.39,1.39,0,0,0-1.28-.55,1.41,1.41,0,0,0-1.28.55,3.55,3.55,0,0,0-.44,1.64A16,16,0,0,0,398.26,314.5Zm27.83,11.73a21.22,21.22,0,0,1,0,3.19,8.32,8.32,0,0,1-.49,2.34,5.27,5.27,0,0,1-1.21,1.89,5.86,5.86,0,0,1-2,1.28,9.12,9.12,0,0,1-5.72,0,5.6,5.6,0,0,1-2-1.28,5.74,5.74,0,0,1-1.22-1.89,7.68,7.68,0,0,1-.5-2.34,14.74,14.74,0,0,1-.09-1.57,16.12,16.12,0,0,1,.09-1.62,7.55,7.55,0,0,1,.5-2.33,5.68,5.68,0,0,1,1.22-1.9,5.6,5.6,0,0,1,2-1.28,9.12,9.12,0,0,1,5.72,0,5.55,5.55,0,0,1,2,1.28,5.68,5.68,0,0,1,1.22,1.9A7.85,7.85,0,0,1,426.09,326.23Zm-8.33,3a3.54,3.54,0,0,0,.45,1.64,1.39,1.39,0,0,0,1.28.55,1.41,1.41,0,0,0,1.28-.55,3.55,3.55,0,0,0,.44-1.64,14.24,14.24,0,0,0,0-2.77,3.55,3.55,0,0,0-.44-1.64,1.43,1.43,0,0,0-1.28-.55,1.41,1.41,0,0,0-1.28.55,3.54,3.54,0,0,0-.45,1.64A16,16,0,0,0,417.76,329.21Z" style="fill:#e0e0e0"></path></g><g id="freepik----inject-207"><path d="M78.59,270.71a10.16,10.16,0,0,1,2.48,1,8.83,8.83,0,0,1,1.9,1.4,6.64,6.64,0,0,1,1.25,1.63,3.8,3.8,0,0,1,.49,1.64.65.65,0,0,1-.2.47.62.62,0,0,1-.44.2h-4a1.63,1.63,0,0,1-.68-.12,2.33,2.33,0,0,1-.53-.37l-.29-.3a2.8,2.8,0,0,0-.56-.44,3.58,3.58,0,0,0-.92-.4,4.63,4.63,0,0,0-1.33-.17,7.83,7.83,0,0,0-1.11.08,4.12,4.12,0,0,0-1,.24A1.8,1.8,0,0,0,73,276a1.16,1.16,0,0,0-.25.76,1.06,1.06,0,0,0,.29.77,2.57,2.57,0,0,0,1,.56,13,13,0,0,0,1.81.5l2.8.58a15.06,15.06,0,0,1,2.91.85,6.74,6.74,0,0,1,2.09,1.29,5,5,0,0,1,1.24,1.83,6.62,6.62,0,0,1,.41,2.47,5.68,5.68,0,0,1-.48,2.35,6,6,0,0,1-1.37,1.88,7.65,7.65,0,0,1-2.13,1.37,11.36,11.36,0,0,1-2.74.79v2.16a.82.82,0,0,1-.24.58.78.78,0,0,1-.58.24h-4a.8.8,0,0,1-.58-.24.82.82,0,0,1-.24-.58v-2.25a10.36,10.36,0,0,1-2.63-1,9.31,9.31,0,0,1-2-1.41A5.93,5.93,0,0,1,67,287.82a4.45,4.45,0,0,1-.49-1.87.65.65,0,0,1,.2-.47.62.62,0,0,1,.44-.2h4a1.69,1.69,0,0,1,.67.11,1.75,1.75,0,0,1,.49.31l.37.4a3.87,3.87,0,0,0,1.68,1.06,4.6,4.6,0,0,0,1.54.22,9,9,0,0,0,2.69-.35q1.08-.36,1.08-1.26a.9.9,0,0,0-.4-.76,4,4,0,0,0-1.18-.57,18,18,0,0,0-2-.5c-.83-.16-1.79-.36-2.91-.61a8.5,8.5,0,0,1-4.58-2.23,6,6,0,0,1-1.44-4.18,5.4,5.4,0,0,1,.4-2.06,6,6,0,0,1,1.14-1.81,7.09,7.09,0,0,1,1.82-1.42,9.77,9.77,0,0,1,2.45-.95v-2.25a.82.82,0,0,1,.24-.58.8.8,0,0,1,.58-.24h4a.78.78,0,0,1,.58.24.82.82,0,0,1,.24.58Z" style="fill:#e0e0e0"></path><path d="M57.22,282a9.91,9.91,0,0,1,2.48.95,9.45,9.45,0,0,1,1.9,1.4,7.17,7.17,0,0,1,1.25,1.63,3.82,3.82,0,0,1,.48,1.64.65.65,0,0,1-.2.47.58.58,0,0,1-.44.2h-4a1.63,1.63,0,0,1-.68-.12,2.09,2.09,0,0,1-.54-.37l-.29-.3a2.54,2.54,0,0,0-.56-.44,4.34,4.34,0,0,0-.91-.4,4.73,4.73,0,0,0-1.34-.16,8.07,8.07,0,0,0-1.11.07,3.58,3.58,0,0,0-.94.25,1.66,1.66,0,0,0-.67.47,1.13,1.13,0,0,0-.26.76,1.07,1.07,0,0,0,.29.76,2.66,2.66,0,0,0,1,.56,13.38,13.38,0,0,0,1.81.5c.75.16,1.68.36,2.8.58a15.92,15.92,0,0,1,2.92.85,7.21,7.21,0,0,1,2.08,1.29,4.86,4.86,0,0,1,1.25,1.83,6.85,6.85,0,0,1,.41,2.48,5.48,5.48,0,0,1-.49,2.34,5.73,5.73,0,0,1-1.37,1.88A7.24,7.24,0,0,1,60,302.44a11.18,11.18,0,0,1-2.74.79v2.16A.8.8,0,0,1,57,306a.82.82,0,0,1-.58.24h-4a.84.84,0,0,1-.82-.82v-2.25a10.36,10.36,0,0,1-2.63-1,8.69,8.69,0,0,1-2-1.41,6.15,6.15,0,0,1-1.3-1.72,4.59,4.59,0,0,1-.48-1.87.67.67,0,0,1,.64-.67h4a1.73,1.73,0,0,1,.67.11,2.15,2.15,0,0,1,.49.32l.36.39a3.82,3.82,0,0,0,.65.57,4.2,4.2,0,0,0,1,.5,4.79,4.79,0,0,0,1.53.21,8.91,8.91,0,0,0,2.69-.35A1.3,1.3,0,0,0,58.31,297a.92.92,0,0,0-.39-.76,4.14,4.14,0,0,0-1.19-.56,17.23,17.23,0,0,0-2-.51c-.82-.16-1.79-.36-2.9-.6a8.46,8.46,0,0,1-4.58-2.24,5.93,5.93,0,0,1-1.44-4.18,5.53,5.53,0,0,1,.39-2,5.76,5.76,0,0,1,1.14-1.81,7.13,7.13,0,0,1,1.83-1.43,9.18,9.18,0,0,1,2.44-.94v-2.25a.76.76,0,0,1,.25-.58.79.79,0,0,1,.57-.25h4a.83.83,0,0,1,.58.25.78.78,0,0,1,.24.58Z" style="fill:#e0e0e0"></path></g><path id="freepik--Cloud--inject-207" d="M356.27,51.65h-.81V49a4.81,4.81,0,0,0-9.41-1.43,4.27,4.27,0,0,0-2.37-.71h0a4.29,4.29,0,0,0-4.29,4.3v.47h-.8a2.64,2.64,0,1,0,0,5.28h17.68a2.64,2.64,0,1,0,0-5.28Z" style="fill:#e0e0e0"></path></g><g id="freepik--Book--inject-207"><g id="freepik--book--inject-207"><polygon points="138.72 445.8 63.47 402.36 111.55 374.6 186.8 418.05 138.72 445.8" style="fill:#DDC18D"></polygon><polygon points="138.72 445.8 63.47 402.36 111.55 374.6 186.8 418.05 138.72 445.8" style="opacity:0.15"></polygon><path d="M102.1,423.5v-1.34c0-1.66-3-6.39-6.65-8.52L65.57,396.38v6Z" style="fill:#f5f5f5"></path><path d="M65.57,396.38l29.89,17.26c3.7,2.13,6.66,6.86,6.65,8.52v1.34l46-26.55h0l0-1.34c0-1.66-3-6.39-6.65-8.52l-29.88-17.25h0Z" style="fill:#fafafa"></path><path d="M65.57,396.38l29.89,17.26c3.7,2.13,6.66,6.86,6.65,8.52v1.34l46-26.55h0l0-1.34c0-1.66-3-6.39-6.65-8.52l-29.89-17.26Z" style="fill:#fafafa"></path><path d="M102.11,422.25,105,420.6l3.77-2.19a7.53,7.53,0,0,0-4.64.67A3.89,3.89,0,0,0,102.11,422.25Z" style="fill:#f0f0f0"></path><path d="M102.11,422.25,105,420.6l3.77-2.19a7.53,7.53,0,0,0-4.64.67A3.89,3.89,0,0,0,102.11,422.25Z" style="fill:#e0e0e0"></path><polygon points="138.71 447.06 138.72 445.8 186.8 418.05 186.8 419.29 138.71 447.06" style="fill:#DDC18D"></polygon><polygon points="138.71 447.06 138.72 445.8 186.8 418.05 186.8 419.29 138.71 447.06" style="opacity:0.30000000000000004"></polygon><polygon points="138.71 447.06 63.46 403.61 63.47 402.36 138.72 445.8 138.71 447.06" style="fill:#DDC18D"></polygon><path d="M102.11,422.25c0-1.65,3-3,6.74-.91l29.88,17.12v6.19L102.1,423.5S102.09,423.91,102.11,422.25Z" style="fill:#f5f5f5"></path><polygon points="138.73 444.65 138.73 438.46 184.72 411.91 184.72 418.1 138.73 444.65" style="fill:#ebebeb"></polygon><path d="M108.84,421.34l1.34.76,28.55,16.36L179.35,415l5.37-3.09-29.89-17.12c-2.71-1.56-4.23-1.43-5.29-.83h0l-46.62,26.91C104.6,419.92,106.57,420.12,108.84,421.34Z" style="fill:#fafafa"></path><polygon points="140.82 433.79 115.37 419.11 114.03 418.34 113.05 418.91 114.39 419.67 139.84 434.36 140.82 433.79" style="fill:#e0e0e0"></polygon><polygon points="143.17 432.43 117.72 417.75 116.38 416.99 115.4 417.55 116.74 418.32 142.19 433 143.17 432.43" style="fill:#e0e0e0"></polygon><polygon points="145.52 431.08 120.07 416.39 118.73 415.63 117.75 416.19 119.09 416.96 144.54 431.64 145.52 431.08" style="fill:#e0e0e0"></polygon><polygon points="147.87 429.72 122.42 415.04 121.08 414.27 120.1 414.84 121.44 415.6 146.89 430.29 147.87 429.72" style="fill:#e0e0e0"></polygon><polygon points="150.22 428.36 124.77 413.68 123.43 412.91 122.45 413.48 123.79 414.25 149.24 428.93 150.22 428.36" style="fill:#e0e0e0"></polygon><polygon points="152.57 427.01 127.12 412.32 125.78 411.56 124.8 412.12 126.14 412.89 151.59 427.57 152.57 427.01" style="fill:#e0e0e0"></polygon><polygon points="154.92 425.65 129.47 410.97 128.13 410.2 127.15 410.77 128.49 411.53 153.94 426.22 154.92 425.65" style="fill:#e0e0e0"></polygon><polygon points="157.27 424.29 131.82 409.61 130.48 408.84 129.5 409.41 130.84 410.18 156.29 424.86 157.27 424.29" style="fill:#e0e0e0"></polygon><polygon points="159.62 422.94 134.17 408.25 132.83 407.49 131.85 408.05 133.19 408.82 158.64 423.5 159.62 422.94" style="fill:#e0e0e0"></polygon><polygon points="161.97 421.58 136.52 406.9 135.18 406.13 134.2 406.69 135.54 407.46 160.99 422.14 161.97 421.58" style="fill:#e0e0e0"></polygon><polygon points="164.32 420.22 138.87 405.54 137.53 404.77 136.55 405.34 137.89 406.1 163.34 420.79 164.32 420.22" style="fill:#e0e0e0"></polygon><polygon points="166.67 418.87 141.22 404.18 139.88 403.42 138.9 403.98 140.24 404.75 165.69 419.43 166.67 418.87" style="fill:#e0e0e0"></polygon><polygon points="169.02 417.51 143.57 402.82 142.23 402.06 141.25 402.63 142.59 403.39 168.04 418.07 169.02 417.51" style="fill:#e0e0e0"></polygon><polygon points="171.37 416.15 145.92 401.47 144.58 400.7 143.6 401.27 144.94 402.03 170.39 416.72 171.37 416.15" style="fill:#e0e0e0"></polygon><polygon points="173.72 414.8 148.27 400.11 146.93 399.35 145.95 399.91 147.29 400.68 172.74 415.36 173.72 414.8" style="fill:#e0e0e0"></polygon><polygon points="176.07 413.44 150.62 398.75 149.28 397.99 148.3 398.55 149.64 399.32 175.09 414 176.07 413.44" style="fill:#e0e0e0"></polygon><polygon points="178.42 412.08 152.97 397.4 151.63 396.63 150.65 397.2 151.99 397.96 177.44 412.65 178.42 412.08" style="fill:#e0e0e0"></polygon><path d="M108.56,419.73c.55.06,1.72.43,2.37.58,2.71.61,7.51,2.8,12.1,5.1,6.13,3.07,11.91,6.35,11.91,6.35L177,407.49l-22.18-12.7a9.59,9.59,0,0,0-2.74-1.14,6.06,6.06,0,0,0-1.92.66l-.29-.52a3.59,3.59,0,0,0-.34.17l-46.62,26.91A7.56,7.56,0,0,1,108.56,419.73Z" style="opacity:0.1"></path><polygon points="138.76 439.81 134.2 437.49 138.73 440.26 143.28 437.63 138.76 439.81" style="fill:#e6e6e6"></polygon><polygon points="138.72 442.91 130.36 438.08 138.72 442.58 148.13 437.48 138.72 442.91" style="fill:#e6e6e6"></polygon><polygon points="184.72 413.27 177.68 417.52 184.72 413.93 184.72 413.27" style="fill:#e6e6e6"></polygon><polygon points="184.71 415.69 174.26 422.08 184.72 416.27 184.71 415.69" style="fill:#e6e6e6"></polygon><path d="M108.74,418.41a15.48,15.48,0,0,1,1.8.31c2.71.61,7.51,2.8,12.1,5.1,6.13,3.07,11.91,6.35,11.91,6.35l46-26.54s-17.5-10.08-24.37-11.4c-3.23-.63-5.2-.19-6.41.49h0L104.1,419.08A7.53,7.53,0,0,1,108.74,418.41Z" style="fill:#f5f5f5"></path><path d="M109.32,416.07a7.4,7.4,0,0,1,4.65-.67,17.13,17.13,0,0,1,1.79.3,44.32,44.32,0,0,1,7.51,2.89c1.5.69,3,1.44,4.59,2.21,3.69,1.85,7.25,3.77,9.51,5l-1.05.61c-2.25-1.24-5.81-3.16-9.5-5-1.54-.77-3.1-1.53-4.59-2.22a43.65,43.65,0,0,0-7.52-2.88,15,15,0,0,0-1.79-.31,7.53,7.53,0,0,0-4.64.67Z" style="fill:#e0e0e0"></path><path d="M111.68,414.71a7.38,7.38,0,0,1,4.64-.67,17.13,17.13,0,0,1,1.79.3,44.32,44.32,0,0,1,7.51,2.89c1.5.69,3.06,1.44,4.59,2.21,3.7,1.85,7.26,3.77,9.51,5l-1.05.61c-2.25-1.24-5.81-3.16-9.5-5-1.54-.77-3.09-1.53-4.59-2.22a43.29,43.29,0,0,0-7.51-2.88,14.8,14.8,0,0,0-1.8-.31,7.53,7.53,0,0,0-4.64.67Z" style="fill:#e0e0e0"></path><path d="M114,413.35a7.45,7.45,0,0,1,4.64-.67,15.13,15.13,0,0,1,1.8.31,43.6,43.6,0,0,1,7.51,2.88c1.5.69,3,1.45,4.59,2.21,3.69,1.85,7.25,3.78,9.5,5l-1,.61c-2.25-1.24-5.81-3.16-9.51-5-1.53-.77-3.09-1.53-4.59-2.22a44.13,44.13,0,0,0-7.51-2.88,15,15,0,0,0-1.79-.31A7.57,7.57,0,0,0,113,414Z" style="fill:#e0e0e0"></path><path d="M116.38,412a7.5,7.5,0,0,1,4.65-.67,15,15,0,0,1,1.79.31,43.29,43.29,0,0,1,7.51,2.88c1.5.69,3.06,1.45,4.59,2.22,3.69,1.84,7.26,3.77,9.51,5l-1.05.61c-2.25-1.24-5.81-3.16-9.5-5-1.54-.77-3.1-1.53-4.59-2.22a44.78,44.78,0,0,0-7.51-2.88,15.13,15.13,0,0,0-1.8-.31,7.53,7.53,0,0,0-4.64.67Z" style="fill:#e0e0e0"></path><path d="M118.74,410.63a7.53,7.53,0,0,1,4.64-.67,15.48,15.48,0,0,1,1.8.31,43.91,43.91,0,0,1,7.51,2.88c1.49.69,3.05,1.45,4.59,2.22,3.69,1.85,7.25,3.77,9.5,5l-1,.6c-2.25-1.24-5.82-3.16-9.51-5-1.53-.77-3.09-1.53-4.59-2.22a44.13,44.13,0,0,0-7.51-2.88,15,15,0,0,0-1.79-.31,7.48,7.48,0,0,0-4.65.68Z" style="fill:#e0e0e0"></path><path d="M121.09,409.27a7.56,7.56,0,0,1,4.65-.67,15,15,0,0,1,1.79.31,43.29,43.29,0,0,1,7.51,2.88c1.5.69,3.05,1.45,4.59,2.22,3.69,1.85,7.25,3.77,9.51,5l-1,.6c-2.25-1.24-5.81-3.16-9.5-5-1.54-.77-3.1-1.52-4.59-2.21a43.83,43.83,0,0,0-7.52-2.89,17.31,17.31,0,0,0-1.79-.31,7.45,7.45,0,0,0-4.64.68Z" style="fill:#e0e0e0"></path><path d="M123.45,407.91a7.53,7.53,0,0,1,4.64-.67,15,15,0,0,1,1.79.31,44.5,44.5,0,0,1,7.52,2.88c1.49.69,3,1.45,4.58,2.22,3.7,1.85,7.26,3.77,9.51,5l-1,.6c-2.26-1.24-5.82-3.16-9.51-5-1.54-.77-3.09-1.52-4.59-2.21a44.32,44.32,0,0,0-7.51-2.89c-.64-.14-1.24-.24-1.79-.31a7.46,7.46,0,0,0-4.65.68Z" style="fill:#e0e0e0"></path><path d="M125.8,406.55a7.53,7.53,0,0,1,4.64-.67,14.8,14.8,0,0,1,1.8.31,44.13,44.13,0,0,1,7.51,2.88c1.5.69,3.05,1.45,4.59,2.22,3.69,1.85,7.25,3.77,9.5,5l-1,.6c-2.25-1.24-5.81-3.16-9.51-5-1.53-.77-3.09-1.52-4.58-2.21a44.69,44.69,0,0,0-7.52-2.89,17.13,17.13,0,0,0-1.79-.3,7.38,7.38,0,0,0-4.64.67Z" style="fill:#e0e0e0"></path><path d="M131.75,405.13a17.29,17.29,0,0,1,1.8.3c2.72.61,7.51,2.8,12.1,5.1,3.69,1.85,7.25,3.77,9.5,5l1-.6c-2.25-1.24-5.81-3.16-9.51-5-4.59-2.3-9.38-4.49-12.1-5.1a15,15,0,0,0-1.79-.31,7.49,7.49,0,0,0-4.65.68l-1,.6A7.38,7.38,0,0,1,131.75,405.13Z" style="fill:#e0e0e0"></path><path d="M134.11,403.77a17.13,17.13,0,0,1,1.79.3c2.72.62,7.51,2.8,12.1,5.1,3.69,1.85,7.26,3.77,9.51,5l1-.6c-2.25-1.24-5.81-3.16-9.5-5-4.59-2.3-9.39-4.49-12.1-5.1a17.48,17.48,0,0,0-1.8-.31,7.45,7.45,0,0,0-4.64.68l-1,.6A7.43,7.43,0,0,1,134.11,403.77Z" style="fill:#e0e0e0"></path><path d="M136.46,402.41a15.48,15.48,0,0,1,1.8.31c2.71.61,7.51,2.79,12.1,5.09,3.69,1.85,7.25,3.78,9.5,5l1-.6c-2.25-1.24-5.82-3.16-9.51-5-4.59-2.3-9.38-4.49-12.1-5.1-.64-.14-1.24-.24-1.79-.31a7.48,7.48,0,0,0-4.65.68l-1,.6A7.45,7.45,0,0,1,136.46,402.41Z" style="fill:#e0e0e0"></path><path d="M138.82,401.05a15,15,0,0,1,1.79.31c2.72.61,7.51,2.8,12.1,5.1,3.69,1.84,7.25,3.77,9.51,5l1-.6c-2.25-1.24-5.81-3.16-9.5-5-4.59-2.3-9.39-4.49-12.11-5.1a17.13,17.13,0,0,0-1.79-.3,7.38,7.38,0,0,0-4.64.67l-1.05.6A7.49,7.49,0,0,1,138.82,401.05Z" style="fill:#e0e0e0"></path><path d="M141.17,399.69A15,15,0,0,1,143,400c2.72.61,7.52,2.8,12.11,5.1,3.69,1.84,7.25,3.77,9.5,5l1.05-.61c-2.26-1.24-5.82-3.16-9.51-5-4.59-2.3-9.38-4.49-12.1-5.1a17.13,17.13,0,0,0-1.79-.3,7.42,7.42,0,0,0-4.65.67l-1,.6A7.53,7.53,0,0,1,141.17,399.69Z" style="fill:#e0e0e0"></path><path d="M143.52,398.33a14.8,14.8,0,0,1,1.8.31c2.72.61,7.51,2.8,12.1,5.1,3.69,1.85,7.25,3.77,9.5,5l1.05-.61c-2.25-1.24-5.81-3.16-9.51-5-4.59-2.3-9.38-4.48-12.1-5.1a17.13,17.13,0,0,0-1.79-.3,7.38,7.38,0,0,0-4.64.67l-1.05.6A7.53,7.53,0,0,1,143.52,398.33Z" style="fill:#e0e0e0"></path><path d="M145.88,397a15,15,0,0,1,1.79.31c2.72.61,7.51,2.8,12.1,5.1,3.7,1.85,7.26,3.77,9.51,5l1-.61c-2.25-1.23-5.81-3.16-9.5-5-4.59-2.3-9.38-4.48-12.1-5.1a17.29,17.29,0,0,0-1.8-.3,7.45,7.45,0,0,0-4.64.67l-1.05.6A7.57,7.57,0,0,1,145.88,397Z" style="fill:#e0e0e0"></path><path d="M148.23,395.61a15.13,15.13,0,0,1,1.8.31c2.71.61,7.51,2.8,12.1,5.1,3.69,1.85,7.25,3.77,9.5,5l1.05-.61c-2.25-1.23-5.81-3.16-9.51-5-4.59-2.3-9.38-4.49-12.1-5.1a15,15,0,0,0-1.79-.31,7.5,7.5,0,0,0-4.65.67l-1,.6A7.53,7.53,0,0,1,148.23,395.61Z" style="fill:#e0e0e0"></path><path d="M150.59,394.25a15,15,0,0,1,1.79.31c2.72.61,7.51,2.8,12.1,5.1,3.69,1.85,7.26,3.77,9.51,5l1-.6c-2.25-1.24-5.81-3.17-9.5-5-4.59-2.3-9.39-4.49-12.1-5.1a15.48,15.48,0,0,0-1.8-.31,7.53,7.53,0,0,0-4.64.67l-1.05.61A7.48,7.48,0,0,1,150.59,394.25Z" style="fill:#e0e0e0"></path><path d="M99.77,411.16a14.82,14.82,0,0,1,3.72,3.18l1-.55a14.82,14.82,0,0,0-3.72-3.18L73.93,395.17l-1,.55Z" style="fill:#e0e0e0"></path><path d="M99.77,411.16a14.82,14.82,0,0,1,3.72,3.18l1-.55a14.82,14.82,0,0,0-3.72-3.18L73.93,395.17l-1,.55Z" style="fill:#e0e0e0"></path><path d="M105.19,413.92l-.38-.44a15.36,15.36,0,0,0-3.85-3.29l-27-15.58L72,395.72l27.51,15.86a14.19,14.19,0,0,1,3.6,3.08l.26.3Z" style="fill:#DDC18D;opacity:0.30000000000000004"></path><path d="M102.12,409.8a15.07,15.07,0,0,1,3.72,3.19l1-.56a15.07,15.07,0,0,0-3.73-3.18L76.28,393.81l-1,.56Z" style="fill:#e0e0e0"></path><path d="M104.47,408.44a15.07,15.07,0,0,1,3.72,3.19l1-.55a14.94,14.94,0,0,0-3.73-3.19L78.63,392.46l-.95.55Z" style="fill:#e0e0e0"></path><path d="M106.82,407.09a14.82,14.82,0,0,1,3.72,3.18l1-.55a15.07,15.07,0,0,0-3.72-3.19L81,391.1l-1,.55Z" style="fill:#e0e0e0"></path><path d="M109.17,405.73a14.82,14.82,0,0,1,3.72,3.18l1-.55a14.82,14.82,0,0,0-3.72-3.18l-26.8-15.44-1,.55Z" style="fill:#e0e0e0"></path><path d="M111.52,404.37a15.24,15.24,0,0,1,3.72,3.18l1-.55a14.82,14.82,0,0,0-3.72-3.18L85.69,388.38l-1,.56Z" style="fill:#e0e0e0"></path><path d="M113.87,403a14.94,14.94,0,0,1,3.73,3.19l1-.56a15.24,15.24,0,0,0-3.72-3.18L88,387l-1,.55Z" style="fill:#e0e0e0"></path><path d="M116.23,401.65a15.07,15.07,0,0,1,3.72,3.19l1-.55a15.07,15.07,0,0,0-3.72-3.19L90.39,385.67l-1,.55Z" style="fill:#e0e0e0"></path><path d="M118.58,400.3a14.82,14.82,0,0,1,3.72,3.18l1-.55a14.94,14.94,0,0,0-3.73-3.19L92.74,384.31l-1,.55Z" style="fill:#e0e0e0"></path><path d="M120.93,398.94a15.24,15.24,0,0,1,3.72,3.18l1-.55a14.69,14.69,0,0,0-3.73-3.18L95.09,383l-1,.56Z" style="fill:#e0e0e0"></path><path d="M123.28,397.58a15.07,15.07,0,0,1,3.72,3.19l1-.56a15.24,15.24,0,0,0-3.72-3.18L97.44,381.6l-1,.55Z" style="fill:#e0e0e0"></path><path d="M125.63,396.22a15.07,15.07,0,0,1,3.72,3.19l1-.55a15.07,15.07,0,0,0-3.72-3.19l-26.8-15.43-1,.55Z" style="fill:#e0e0e0"></path><path d="M128,394.87a14.82,14.82,0,0,1,3.72,3.18l1-.55a15.07,15.07,0,0,0-3.72-3.19l-26.79-15.43-1,.55Z" style="fill:#e0e0e0"></path><path d="M130.33,393.51a14.9,14.9,0,0,1,3.73,3.18l.95-.55a14.82,14.82,0,0,0-3.72-3.18L104.5,377.52l-1,.55Z" style="fill:#e0e0e0"></path><path d="M132.69,392.15a15.07,15.07,0,0,1,3.72,3.19l1-.56a15,15,0,0,0-3.72-3.18l-26.79-15.43-1,.55Z" style="fill:#e0e0e0"></path><path d="M135,390.79a15.07,15.07,0,0,1,3.72,3.19l1-.55a14.94,14.94,0,0,0-3.73-3.19L109.2,374.81l-1,.55Z" style="fill:#e0e0e0"></path><path d="M137.39,389.44a14.82,14.82,0,0,1,3.72,3.18l1-.55a14.94,14.94,0,0,0-3.73-3.19l-26.79-15.43-1,.55Z" style="fill:#e0e0e0"></path><path d="M107.52,412.53l-.38-.44a15.36,15.36,0,0,0-3.85-3.29l-27-15.57-1.93,1.11,27.52,15.85a14.39,14.39,0,0,1,3.6,3.08l.26.3Z" style="fill:#DDC18D;opacity:0.30000000000000004"></path><path d="M109.85,411.14l-.38-.44a15.57,15.57,0,0,0-3.85-3.29l-27-15.57L76.66,393l27.52,15.85a14.57,14.57,0,0,1,3.6,3.08l.26.31Z" style="fill:#DDC18D;opacity:0.30000000000000004"></path><path d="M112.18,409.75l-.39-.44A15.56,15.56,0,0,0,108,406l-27-15.57L79,391.56l27.52,15.85a14.41,14.41,0,0,1,3.6,3.09l.26.3Z" style="fill:#DDC18D;opacity:0.30000000000000004"></path><path d="M126.26,401.57l-.38-.44a15.36,15.36,0,0,0-3.85-3.29L95,382.26l-1.92,1.11,27.51,15.86a14.19,14.19,0,0,1,3.6,3.08l.26.3Z" style="fill:#DDC18D;opacity:0.30000000000000004"></path><path d="M128.59,400.18l-.38-.44a15.36,15.36,0,0,0-3.85-3.29l-27-15.57L95.41,382l27.51,15.85a14.39,14.39,0,0,1,3.6,3.08l.26.3Z" style="fill:#DDC18D;opacity:0.30000000000000004"></path><path d="M130.92,398.79l-.38-.44a15.57,15.57,0,0,0-3.85-3.29l-27-15.57-1.93,1.11,27.52,15.85a14.57,14.57,0,0,1,3.6,3.08l.26.31Z" style="fill:#DDC18D;opacity:0.30000000000000004"></path><polygon points="71.84 401.65 65.57 398.35 65.57 397.83 71.84 401.65" style="fill:#e6e6e6"></polygon><polygon points="65.57 400.19 76.02 406.03 65.57 399.81 65.57 400.19" style="fill:#e6e6e6"></polygon><path d="M173.39,399.7c-5.65-3-13.21-6.7-17.2-7.47-3.23-.63-5.2-.19-6.41.49h0L104.1,419.08a7.53,7.53,0,0,1,4.64-.67s22.61-13.79,37.21-18.5A47,47,0,0,1,173.39,399.7Z" style="opacity:0.02"></path></g></g><g id="freepik--Notebook--inject-207"><g id="freepik--notebook--inject-207"><g id="freepik--notebook--inject-207"><path d="M378.05,387.78,340,408.22l-.66,1v.84a1.2,1.2,0,0,0,.66,1l42.13,24.32a2.28,2.28,0,0,0,2.19,0l37.39-21.65V413Z" style="fill:#263238"></path><path d="M383.18,434.88a2.16,2.16,0,0,1-1.1-.27L340,410.29a1.14,1.14,0,0,1,0-2.07L376.65,387l45,26-37.39,21.65A2.15,2.15,0,0,1,383.18,434.88Z" style="fill:#DDC18D"></path><path d="M376.65,384.52,340.3,405.58,340,406v3.24h0a.54.54,0,0,0,.32.44L382.43,434a1.65,1.65,0,0,0,1.5,0L420.28,413v-3.25Z" style="fill:#ebebeb"></path><path d="M420.28,409.71l-.38.22L415,412.77l-.91.53-30.14,17.47a1.65,1.65,0,0,1-1.5,0l-42.14-24.33a.45.45,0,0,1,0-.86l.41-.23,35.95-20.83,43.25,25,.09.05Z" style="fill:#f0f0f0"></path><path d="M383.17,431v3.24a1.47,1.47,0,0,1-.74-.18l-42.14-24.32a.53.53,0,0,1-.3-.44V406a.52.52,0,0,0,.3.43l42.14,24.33A1.47,1.47,0,0,0,383.17,431Z" style="fill:#e0e0e0"></path><path d="M420.28,409.28l-5.44,3.14-.85.49-30.06,17.43a1.65,1.65,0,0,1-1.5,0L344.7,408.55c-.34-.18-.66-.37-.95-.54a9.24,9.24,0,0,1-3.05-2.66l-.08-.12a.47.47,0,0,1-.09-.22.67.67,0,0,1,.53-.76,14,14,0,0,0,2.84-1.19l0,0,32.71-19Z" style="fill:#fff"></path><path d="M414.65,408.9c-.39.23-.39.59,0,.81a1.51,1.51,0,0,0,1.4,0c.39-.22.39-.58,0-.81A1.57,1.57,0,0,0,414.65,408.9Z" style="opacity:0.1"></path><path d="M419.15,406.27a1.86,1.86,0,0,0-1.89.14,5.88,5.88,0,0,0-2.37,3.41,1.49,1.49,0,0,0,.52.06,5.27,5.27,0,0,1,2.11-3,1.75,1.75,0,0,1,.86-.27,1.07,1.07,0,0,1,.51.13,1.94,1.94,0,0,1,.71,1.74,3,3,0,0,1,0,.42l.5.28a5.49,5.49,0,0,0,.05-.7A2.41,2.41,0,0,0,419.15,406.27Z" style="fill:#263238"></path><path d="M420,409.43a.53.53,0,0,1,0,.12l-.09-.05Z" style="fill:#263238"></path><path d="M410.43,406.46a.43.43,0,0,0,0,.82,1.57,1.57,0,0,0,1.4,0,.44.44,0,0,0,0-.82A1.57,1.57,0,0,0,410.43,406.46Z" style="opacity:0.1"></path><path d="M414.93,403.84A1.86,1.86,0,0,0,413,404a5.91,5.91,0,0,0-2.37,3.41,1.49,1.49,0,0,0,.52.06,5.27,5.27,0,0,1,2.11-3,1.75,1.75,0,0,1,.86-.27,1,1,0,0,1,.51.14,1.92,1.92,0,0,1,.71,1.73,3,3,0,0,1,0,.42l.5.28a5.49,5.49,0,0,0,0-.7A2.41,2.41,0,0,0,414.93,403.84Z" style="fill:#263238"></path><path d="M406.2,404a.43.43,0,0,0,0,.81,1.57,1.57,0,0,0,1.4,0,.43.43,0,0,0,0-.82A1.54,1.54,0,0,0,406.2,404Z" style="opacity:0.1"></path><path d="M410.7,401.4a1.84,1.84,0,0,0-1.88.13,5.87,5.87,0,0,0-2.37,3.41,1.49,1.49,0,0,0,.52.06,5.22,5.22,0,0,1,2.11-3,1.8,1.8,0,0,1,.86-.26,1,1,0,0,1,.5.13,1.92,1.92,0,0,1,.71,1.73,3,3,0,0,1,0,.42l.49.28a4.12,4.12,0,0,0,.05-.7A2.38,2.38,0,0,0,410.7,401.4Z" style="fill:#263238"></path><path d="M402,401.59a.43.43,0,0,0,0,.81,1.57,1.57,0,0,0,1.4,0,.43.43,0,0,0,0-.81A1.51,1.51,0,0,0,402,401.59Z" style="opacity:0.1"></path><path d="M406.48,399a1.84,1.84,0,0,0-1.88.13,5.9,5.9,0,0,0-2.37,3.41,1.46,1.46,0,0,0,.51.06,5.31,5.31,0,0,1,2.12-3,1.77,1.77,0,0,1,.86-.26,1,1,0,0,1,.5.13,1.94,1.94,0,0,1,.71,1.74,2.82,2.82,0,0,1,0,.41l.49.29a5.62,5.62,0,0,0,.05-.7A2.4,2.4,0,0,0,406.48,399Z" style="fill:#263238"></path><path d="M397.76,399.15a.43.43,0,0,0,0,.81,1.51,1.51,0,0,0,1.4,0,.43.43,0,0,0,0-.81A1.57,1.57,0,0,0,397.76,399.15Z" style="opacity:0.1"></path><path d="M402.26,396.52a1.84,1.84,0,0,0-1.88.13,5.85,5.85,0,0,0-2.37,3.41,1.22,1.22,0,0,0,.51.07,5.27,5.27,0,0,1,2.11-3,1.75,1.75,0,0,1,.86-.27,1.07,1.07,0,0,1,.51.13,1.94,1.94,0,0,1,.71,1.74c0,.14,0,.28,0,.42l.49.28a5.62,5.62,0,0,0,.05-.7A2.41,2.41,0,0,0,402.26,396.52Z" style="fill:#263238"></path><path d="M393.53,396.71a.43.43,0,0,0,0,.81,1.53,1.53,0,0,0,1.41,0,.43.43,0,0,0,0-.81A1.59,1.59,0,0,0,393.53,396.71Z" style="opacity:0.1"></path><path d="M398,394.08a1.88,1.88,0,0,0-1.89.14,5.83,5.83,0,0,0-2.37,3.41,1.49,1.49,0,0,0,.52.06,5.27,5.27,0,0,1,2.11-3,1.75,1.75,0,0,1,.86-.27,1,1,0,0,1,.51.14,1.92,1.92,0,0,1,.71,1.73,3,3,0,0,1,0,.42l.49.28a4.14,4.14,0,0,0,.06-.7A2.44,2.44,0,0,0,398,394.08Z" style="fill:#263238"></path><path d="M389.31,394.27a.44.44,0,0,0,0,.82,1.57,1.57,0,0,0,1.4,0,.43.43,0,0,0,0-.82A1.57,1.57,0,0,0,389.31,394.27Z" style="opacity:0.1"></path><path d="M393.81,391.65a1.84,1.84,0,0,0-1.88.13,5.87,5.87,0,0,0-2.37,3.41,1.49,1.49,0,0,0,.52.06,5.22,5.22,0,0,1,2.11-3,1.8,1.8,0,0,1,.86-.26,1,1,0,0,1,.5.13,1.9,1.9,0,0,1,.72,1.73,3,3,0,0,1,0,.42l.49.28a4.14,4.14,0,0,0,.06-.7A2.39,2.39,0,0,0,393.81,391.65Z" style="fill:#263238"></path><path d="M385.09,391.84c-.39.22-.39.58,0,.81a1.57,1.57,0,0,0,1.4,0c.39-.23.39-.59,0-.81A1.51,1.51,0,0,0,385.09,391.84Z" style="opacity:0.1"></path><path d="M389.59,389.21a1.84,1.84,0,0,0-1.88.13,5.87,5.87,0,0,0-2.37,3.41,1.46,1.46,0,0,0,.51.06,5.31,5.31,0,0,1,2.12-3,1.77,1.77,0,0,1,.86-.26,1,1,0,0,1,.5.13,1.92,1.92,0,0,1,.71,1.74,2.88,2.88,0,0,1,0,.41l.49.29a5.76,5.76,0,0,0,.05-.7A2.4,2.4,0,0,0,389.59,389.21Z" style="fill:#263238"></path><path d="M380.87,389.4a.43.43,0,0,0,0,.81,1.51,1.51,0,0,0,1.4,0,.43.43,0,0,0,0-.81A1.51,1.51,0,0,0,380.87,389.4Z" style="opacity:0.1"></path><path d="M385.37,386.77a1.84,1.84,0,0,0-1.88.13,5.85,5.85,0,0,0-2.37,3.41,1.22,1.22,0,0,0,.51.06,5.34,5.34,0,0,1,2.11-3,1.83,1.83,0,0,1,.86-.26,1,1,0,0,1,.51.13,1.94,1.94,0,0,1,.71,1.74c0,.14,0,.27,0,.41l.49.29a5.62,5.62,0,0,0,0-.7A2.4,2.4,0,0,0,385.37,386.77Z" style="fill:#263238"></path><path d="M376.65,387c-.39.23-.39.59,0,.81a1.51,1.51,0,0,0,1.4,0,.43.43,0,0,0,0-.81A1.57,1.57,0,0,0,376.65,387Z" style="opacity:0.1"></path><path d="M381.15,384.33a1.86,1.86,0,0,0-1.89.14,5.89,5.89,0,0,0-2.37,3.4,1.29,1.29,0,0,0,.52.07,5.27,5.27,0,0,1,2.11-3,1.75,1.75,0,0,1,.86-.27,1.14,1.14,0,0,1,.51.13,1.94,1.94,0,0,1,.71,1.74,3,3,0,0,1,0,.42l.5.28a5.62,5.62,0,0,0,.05-.7A2.44,2.44,0,0,0,381.15,384.33Z" style="fill:#263238"></path><path d="M379,426a.49.49,0,0,1-.41-.24.48.48,0,0,1,.17-.65l29.39-17a.48.48,0,0,1,.65.17.48.48,0,0,1-.18.65l-29.38,17A.5.5,0,0,1,379,426Z" style="fill:#ebebeb"></path><path d="M376.14,424.37a.46.46,0,0,1-.41-.24.47.47,0,0,1,.17-.65l29.38-17a.48.48,0,0,1,.48.82l-29.38,17A.55.55,0,0,1,376.14,424.37Z" style="fill:#ebebeb"></path><path d="M373.32,422.74a.49.49,0,0,1-.41-.24.48.48,0,0,1,.17-.65l29.39-17a.49.49,0,0,1,.65.17.48.48,0,0,1-.18.65l-29.38,17A.5.5,0,0,1,373.32,422.74Z" style="fill:#ebebeb"></path><path d="M370.51,421.12a.48.48,0,0,1-.24-.89l29.38-17a.48.48,0,0,1,.48.83l-29.38,17A.55.55,0,0,1,370.51,421.12Z" style="fill:#ebebeb"></path><path d="M367.69,419.49a.49.49,0,0,1-.41-.24.48.48,0,0,1,.17-.65l29.39-17a.48.48,0,0,1,.65.17.48.48,0,0,1-.18.65l-29.38,17A.42.42,0,0,1,367.69,419.49Z" style="fill:#ebebeb"></path><path d="M364.88,417.86a.45.45,0,0,1-.41-.23.47.47,0,0,1,.17-.65l29.38-17a.48.48,0,0,1,.65.18.48.48,0,0,1-.17.65l-29.38,17A.53.53,0,0,1,364.88,417.86Z" style="fill:#ebebeb"></path><path d="M362.06,416.24a.49.49,0,0,1-.41-.24.48.48,0,0,1,.17-.65l29.39-17a.47.47,0,1,1,.47.82l-29.38,17A.42.42,0,0,1,362.06,416.24Z" style="fill:#ebebeb"></path><path d="M359.25,414.61a.48.48,0,0,1-.42-.23.48.48,0,0,1,.18-.65l29.38-17a.48.48,0,0,1,.65.18.48.48,0,0,1-.17.65l-29.39,17A.46.46,0,0,1,359.25,414.61Z" style="fill:#ebebeb"></path><path d="M356.43,413a.49.49,0,0,1-.41-.24.48.48,0,0,1,.17-.65l29.39-17a.47.47,0,1,1,.47.82l-29.38,17A.42.42,0,0,1,356.43,413Z" style="fill:#ebebeb"></path><path d="M353.62,411.36a.47.47,0,0,1-.42-.24.48.48,0,0,1,.18-.65l29.38-17a.48.48,0,0,1,.65.18.48.48,0,0,1-.17.65l-29.39,17A.46.46,0,0,1,353.62,411.36Z" style="fill:#ebebeb"></path><path d="M350.8,409.74a.49.49,0,0,1-.41-.24.48.48,0,0,1,.17-.65l29.39-17a.47.47,0,1,1,.47.82l-29.38,17A.44.44,0,0,1,350.8,409.74Z" style="fill:#ebebeb"></path><path d="M348,408.11a.47.47,0,0,1-.42-.24.48.48,0,0,1,.18-.65l29.38-17a.48.48,0,0,1,.65.17.5.5,0,0,1-.17.66l-29.39,17A.46.46,0,0,1,348,408.11Z" style="fill:#ebebeb"></path><path d="M345.17,406.49a.49.49,0,0,1-.41-.24.48.48,0,0,1,.17-.65l29.38-17a.47.47,0,0,1,.65.17.46.46,0,0,1-.17.65l-29.38,17A.44.44,0,0,1,345.17,406.49Z" style="fill:#ebebeb"></path><path d="M381.81,427.62a.49.49,0,0,1-.41-.24.48.48,0,0,1,.17-.65L412.3,408.9a.47.47,0,0,1,.65.17.48.48,0,0,1-.18.65l-30.72,17.83A.42.42,0,0,1,381.81,427.62Z" style="fill:#DDC18D"></path></g></g></g><g id="freepik--Character--inject-207"><g id="freepik--character--inject-207"><path d="M153.74,238.72a57.57,57.57,0,0,1-3.62,10.08c-.9,2-2.17,5.14-4.45,5,.15-.55.28-1.08.41-1.59,0,0-.15-2.14-7.14-3.88s-9.43-.06-9.43-.06a9.56,9.56,0,0,1-.06,1.27,28,28,0,0,1-3.25-1.38c-1.63-.72-4.24-1.93-5.12-3.57a6.44,6.44,0,0,1-.57-2c-.24-1.33-.47-2.65-.71-4a18.17,18.17,0,0,1-.42-5.59,4.22,4.22,0,0,1,1.91-3.32,4.87,4.87,0,0,1,2.14-.42c2.54-.13,5.76-1.21,8.29-1.45,2.35-.24,4.64-.79,7-1a20.7,20.7,0,0,1,7.11,1C150.77,229.34,155.06,233.86,153.74,238.72Z" style="fill:#455a64"></path><path d="M119.73,218.23c2.42,1.17,4.56,2.11,6.21,4.35s1.63,6.18,1.25,9.13a52.22,52.22,0,0,0-.48,6.94c0,2.6,1.21,6.53,2.14,9.71,3.5,11.94,8.38,23.08,13.59,34.34,4.65,10.07,10.17,20.54,12.33,31.52,12.34,2.22,25,5.45,30.6,6.69a43.75,43.75,0,0,1,13.25,1.86c19.07,7,24.66,34.21,30.11,43.73L211,368.88c-19.31-10.9-60.68-30.18-70.89-35s-13.77-5.68-16.36-10.06c-2.37-4-3.61-8.92-4.66-13.37-2.94-12.47-3.91-26.29-6.26-38.87-1.26-6.74-2.51-13.48-3.81-20.21a66.54,66.54,0,0,0-2-8.1,32.65,32.65,0,0,0-4.45-8.57,19.31,19.31,0,0,0-2.19-3,24.33,24.33,0,0,0-2.85-2c-3.44-2.45-7.38-3.94-10.9-6.25-4.72-3.1-11.86-7.44-10.75-14.18a12.51,12.51,0,0,1,3-5.73c1.62-1.52,5.44-.75,7.37-.51,5.87.74,10.76,4,15.72,7a49.33,49.33,0,0,0,9,4.4c1.62.56,3.19,1.24,4.81,1.78A32.91,32.91,0,0,1,119.73,218.23Z" style="fill:#ffa8a7"></path><path d="M124.05,287.08l7.06-31.67c-.8-2.33-1.57-4.67-2.26-7-.19-.64-.39-1.3-.58-2l-11.41,35.83Z" style="fill:#f28f8f"></path><path d="M154.27,357.88l32.46,9.94,24.71-40.06c-4.41-4.85-10.15-6.55-16.69-7.29-5.18-.59-6.82.1-10.66-.7s-10-2.16-10-2.16c-9.49-2.26-14.23-3-18.87-4-2-11.24-7.35-20.67-15.76-37.46a45.54,45.54,0,0,1-25,5.4s1.34,12.85,2.59,24.48,1.74,31.26,7,37.2S144.91,355,154.27,357.88Z" style="fill:#37474f"></path><path d="M194.59,331.9c-8.38-6.82-22.08-2.64-22.08-2.64s-6.45-1.44-11-2.32l0-.11c-.08,0-1-.1-2.38-.31l-.84-.14h0c-5.55-.86-16.3-2.7-16.3-2.7s2.77-4.91,3.15-13.73c.21-5.05.39-14.87.29-21.9-1.77-3.56-3.76-7.45-6-11.86A45.09,45.09,0,0,1,117,281.68l-2,5.86,1.26,11.83s1.88,7.32,2.77,11.1c1,4.45,2.29,9.37,4.66,13.37,2.59,4.38,6.16,5.25,16.36,10.06l.56.26.67.32,1.11.51.85.4.92.44.94.44,4,1.9.54.25,1.9.9.5.23,2.36,1.12.17.08,2.72,1.29.09,0,1.28-4.83.28.46,15.18,3S203,338.71,194.59,331.9Z" style="fill:#263238"></path><path d="M171.05,332.74a233.94,233.94,0,0,0-33.74-6.51c3.89-7.69,4.94-25.12,5.81-42.05.54-10.31,1-20.44,2-28.06a20.18,20.18,0,0,1,.53-2.33l.41-1.59s.71-2.3-7-4-9.6.11-9.6.11l-.06,1.27c0,.1-.07.22-.12.33v0c-1.38,4-7.36,21.51-13,40.47-6.93,23.5-13.3,49.19-9.62,54.1,7.06,9.43,43.82,28.44,75.66,39.34l10.49-24.46,10-23.27S188.19,327.26,171.05,332.74Z" style="fill:#ffa8a7"></path><path d="M139.94,367.82c16.12,7.53,33.42,15.12,47.3,17.84,11.78,2.3,16.59-50.29,16.59-50.29-7.59-3.4-13.58-5-20-5.2s-10.35,1.56-12.87,1.73-5.89-1.93-14.48-3.38A115.43,115.43,0,0,0,138.28,326s3.55-8.8,3.86-25.67c0,0-17.7,4.85-27.23-5a152.1,152.1,0,0,0-6.82,22.28,126.83,126.83,0,0,0-3,21,12.22,12.22,0,0,0,3.59,9.71C114.83,354.69,128.54,362.49,139.94,367.82Z" style="fill:#455a64"></path><path d="M127.17,232.54a43.77,43.77,0,0,0-.47,6.14c0,2.59,1.22,6.53,2.15,9.7a1.8,1.8,0,0,1,.6,1.15c.21-1.57-.15-4.19-.6-7.72s1.85-9.55,1.49-13.78c-.67.11-2.21.45-2.94.62C127.43,229.3,127.26,231.9,127.17,232.54Z" style="fill:#37474f"></path><path d="M122.1,328.38c9.82.81,16.18-2.37,16.18-2.37h0a50.87,50.87,0,0,0,2.25-8.7C136.21,324.74,122.1,328.38,122.1,328.38Z" style="fill:#37474f"></path><path d="M72.59,207.78a14.26,14.26,0,0,0,4.67,12.66c4.65,4.37,15.73,10,20.23,12.64,5.83,3.37,9.73,10.56,9.73,10.56s2.8,3.29,10.72,2.09c5.57-.84,8.18-3.33,9-4.87,0,0,.11-2.33.28-3.8a66.33,66.33,0,0,0,.07-13Z" style="fill:#455a64"></path><path d="M127.41,224.17c0-5.19-10.51-10-15.53-12-6.41-2.44-13.47-12.06-26.36-12.79-9.16-.52-12.54,2-12.75,5.27,0,.57-.14,2.75-.17,3.27-.17,2.89,2.15,6.31,5.12,8.59,4.69,3.6,16.76,9,25.75,14.3s16.77,4.43,21.38,1c2-1.46,2.74-2.94,2.71-4.39C127.55,226.84,127.42,224.66,127.41,224.17Z" style="fill:#263238"></path><path d="M124.73,228.49c-4.59,3.42-12.32,4.24-21.26-1s-21-10.64-25.61-14.22c-6.3-4.84-9.67-14.85,7.66-13.87,12.89.73,20,10.35,26.36,12.79S133.61,221.88,124.73,228.49Z" style="fill:#37474f"></path><path d="M299,330.75c-6.63-14.86-11.6-18.71-23.72-15.11l7.4,35.79s9.77,18.11,12.16,22.83l17.72-11.4S306.49,347.49,299,330.75Z" style="fill:#ffa8a7"></path><path d="M256.89,314.64s-21,3.66-26.14,6.29c-5.72,2.93-5.62,5-9.49,10.63-4.61.68-7.15-2.31-10.92-4.93-3.73-.34-20.24,6.14-27.33,20-7.53,14.74-6,29.61-1.12,37.83,11.36,3.53,24.85,8.25,47.52,6.57a216.81,216.81,0,0,0,33.51-5.51,26.05,26.05,0,0,0,11.42-5.7c18.58-3.22,19.45-17.28,16-29-4.36-14.79-8.65-26.62-11.8-32.51C276.3,314.14,267.89,313.24,256.89,314.64Z" style="fill:#DDC18D"></path><path d="M289.67,316.59c-3.68-2.67-8.05-2.82-14.37-.95v.06c-2.46-1.14-6-1.67-10.21-1.65.93,3.36,3,6.63,7.68,7.13C281.08,322.08,286.12,320.36,289.67,316.59Z" style="opacity:0.1"></path><path d="M269.4,378.85C267,381.49,258.74,383,252.11,380c-5.84-2.65-9.31-9.65-9.11-15.06,0,0-2.79,12,8.09,16.88C261.11,386.24,269.15,380.34,269.4,378.85Z" style="opacity:0.1"></path><path d="M222.47,260.31a4.87,4.87,0,0,0,.33,2.58c.88,1.93,3.28,3.07,2.65,5.66-.43,1.77-2.94,2.05-4.53,1.4-.3,3.35,4.38,3.35,6.44,2.78.14,2.31.45,3.28,2.85,4.17,3.63,1.34,5.7.23,8.32-2.1,2.37-2.11,5.48-.41,8.39-.53,3.31-.14,5.52-2.45,6.26-5.68.44-1.85-1.21-4.27-.47-5.84,1.56-3.29,7,0,9.5-1.57,3.39-2.2,2.59-8.19-.76-10.08-1.05-.58-2.45-.4-3.44-1s-1.24-1.71-1.62-2.77a10.14,10.14,0,0,0-7.78-7,8.63,8.63,0,0,0-4.4.16c-1.63.57-2.63,2-4.18,2.68-2.95,1.26-6.45-.31-9.13,2.16a5.67,5.67,0,0,0-1.82,4.05c0,1.1.71,2.21.34,3.23-.67,1.9-3.67,2.36-5,3.63A7,7,0,0,0,222.47,260.31Z" style="fill:#37474f"></path><path d="M248.64,317.75c-.1-.24,2.85-2.78,3.06-3l17.62-17.29,9.73-9.54c1.78-1.74,3.41-4.07,6.06-4.34a8.74,8.74,0,0,1,5.09,1.3c2.12,1.06,4.45,1.51,6.71.22a3.57,3.57,0,0,0,1.9-3,12.7,12.7,0,0,0-.07-1.47,2.33,2.33,0,0,1-3.43,1.43c-1.21-.65-1.32-1.78-1.5-3.08s0-3.06-.79-4.26a2.92,2.92,0,0,0-3.1-1.26c.67-1.4,1.74-2.57,2.23-4a9,9,0,0,0,.33-4.41c-.44-2.57-2.46-4.14-4.58-5.39-2.54-1.48-5-1.4-7.89-1.37-2,0-4,.37-6,.19-1.7-.16-3.42-.62-5.11-.91a36.42,36.42,0,0,0-13.2.52c-22.35,4.57-26.63,25.49-23.26,36.18C237.09,309.05,244.63,308.22,248.64,317.75Z" style="fill:#37474f"></path><path d="M291.32,293.29c1.27,17.4-4,21.44-6.71,22.95s-6.22,1.85-11.59,1.48l-1.55,6.41c-.24,7.51-17.58,7.23-23.35-.77l1.55-18.79s-1.91,3.07-6.68.79c-4.58-2.19-5.76-9.32-3.72-12.58,1.87-3,6.65-3,8.45-.18a7.29,7.29,0,0,1,1.09,3.15c.14.71.13,1.65.7,1.9,2.59,1.12,4.48-2.61,4.41-5.42,2.47-2.05,3.77-4.51,3.22-9.23,2.51,1.23,6.75-.42,8.9-2.18,3.69-3,3.75-5.89,4.87-9.29s4.65-4,7.79-3.27a14,14,0,0,1,7.79,6,24.16,24.16,0,0,1,2.28,5.87A56.57,56.57,0,0,1,291.32,293.29Z" style="fill:#ffa8a7"></path><path d="M257.1,300.2l-5.7,15.86h0c-5.26,1.2-5.2,8.34-3.05,13.29,3.25,7.49,7.71,12.71,12.3,15,4.06,2,12.26,3.59,13.53-2.24,1.79-8.24-2.49-19.09-2.49-19.09Z" style="fill:#ffa8a7"></path><path d="M247.82,302.35c1.83-.8,3.8,1.43,3.8,1.43a3.49,3.49,0,0,1,3.35,0,4.51,4.51,0,0,1,1.59,2.09,2.34,2.34,0,0,1,2.69.51,7.28,7.28,0,0,1,1.93,2.82,3.13,3.13,0,0,1,3,1.51,12.91,12.91,0,0,0,5.31,4.12c2,.7,1.09,3.27-1.87,3.22-17.74-.29-21.7-13.71-21.7-13.71S246,303.16,247.82,302.35Z" style="fill:#f28f8f"></path><path d="M273,317.72c-4.64-.65-9.72-1.78-13.36-4a15.92,15.92,0,0,1-5.73-6.31s1.18,6.63,4.89,9.24,13.37,4.51,13.37,4.51Z" style="fill:#f28f8f"></path><path d="M270.52,291.4a2.26,2.26,0,1,1-2.66-1.89A2.3,2.3,0,0,1,270.52,291.4Z" style="fill:#263238"></path><path d="M286.29,287.07a2.22,2.22,0,0,1-1.73,2.64,2.11,2.11,0,0,1-2.58-1.84,2.19,2.19,0,1,1,4.31-.8Z" style="fill:#263238"></path><polygon points="275.5 287.49 279.51 302.27 286.43 298.34 275.5 287.49" style="fill:#f28f8f"></polygon><path d="M266.55,284.65l-4.05,4.41a3.14,3.14,0,0,1-.18-4.34A2.92,2.92,0,0,1,266.55,284.65Z" style="fill:#263238"></path><path d="M286.31,283.52,281,280.7a2.91,2.91,0,0,1,4-1.33A3.18,3.18,0,0,1,286.31,283.52Z" style="fill:#263238"></path><path d="M275.91,307a1.73,1.73,0,1,1-1.79-1.66A1.72,1.72,0,0,1,275.91,307Z" style="fill:#b16668"></path><path d="M230.75,320.93c-10.31,2.66-15,10.79-14.95,17.23s7.12,28.85,16.33,46.71c7.59,14.71,13.76,12.79,13.76,12.79l7.93-17.41-14.11-46.18S236.68,321.26,230.75,320.93Z" style="fill:#ffa8a7"></path><path d="M244.71,350.43c-3.16,4.94-10,18.59-8.72,28l9.69-24.78Z" style="fill:#f28f8f"></path><path d="M268.84,334.5c1.11-4.19,2-9.75,1.31-11.89-.92-2.92-2.4-3.31-2.4-3.31a4.89,4.89,0,0,0,1.53-.72,1.86,1.86,0,0,0,.73-1.5c0-.79-1.69-1.14-2.38-1.52a17.1,17.1,0,0,1-4.86-4.12,2.79,2.79,0,0,0-2-1.05c-.61-1.42-1.24-2.71-2.27-3.11a2.78,2.78,0,0,0-2.22.07,4.33,4.33,0,0,0-2-2.26,3.1,3.1,0,0,0-2.27.21,11.61,11.61,0,0,0-1.83-1.71,3.48,3.48,0,0,0-3.95.49c-1.43,1.19-1.84,2.86-2.42,4.52a28.87,28.87,0,0,0-1.13,4.6,37.43,37.43,0,0,0-.48,4.37,5.74,5.74,0,0,0,.31,2.5c.81,1.74,11.2,12.82,11.2,12.82-.32,5.91-14.55,32.27-16.93,40.27-2.48,8.35,1.7,21.76,5.8,23.6s9.25,1.79,14.88-8.28C263.7,377.28,266.09,344.85,268.84,334.5Z" style="fill:#ffa8a7"></path><path d="M267.92,319.07a7.21,7.21,0,0,1-2.76.19,4.49,4.49,0,0,1-3.33-1.58s-.46-3.79-.84-3.45,0,3.3,0,3.3a5.26,5.26,0,0,1-1.63-1.1c-.76.58.4,1.37,1.59,2a14.5,14.5,0,0,0,2.17,1.08,10.83,10.83,0,0,0,3.68.38,2.51,2.51,0,0,1,2.16.6C268.5,319.94,267.92,319.07,267.92,319.07Z" style="fill:#b16668"></path><path d="M261.48,310.44c-.14,0-.27.17-.4.16-1.26-.1-2.56.42-4.25,1.72a18.17,18.17,0,0,0-3.59,4.45s.14-1.82,2.34-4.14S260.09,309.71,261.48,310.44Z" style="fill:#b16668"></path><path d="M256.39,307.09l0,.44c-4.17,1.81-6.07,4.92-7.45,7.29,0,0,0-2,2.87-4.95A10.41,10.41,0,0,1,256.39,307.09Z" style="fill:#b16668"></path><path d="M251.37,304.57c-.75.27-1.74,1.33-2.9,2.88a16.51,16.51,0,0,0-2.72,5.35c.72-1.41,3.22-6,6.59-7.47A1.63,1.63,0,0,1,251.37,304.57Z" style="fill:#b16668"></path><path d="M249.77,328.65c3.31,2.57,7.35,4.17,9.45,4.17a12.6,12.6,0,0,1-5.53.07Z" style="fill:#b16668"></path><path d="M263.2,368.51c1.39-8.34,2.45-16.74,3.79-25.09.34-2.09.69-4.18,1.11-6.26s1-4.1,1.41-6.18a35.87,35.87,0,0,0,.73-6.27,10,10,0,0,0-.11-1.55,7.22,7.22,0,0,0-.48-1.47,4.19,4.19,0,0,0-1.94-2.24h0a.16.16,0,0,1-.09-.2.22.22,0,0,1,.1-.09,3.91,3.91,0,0,0,1.6-.81,1.87,1.87,0,0,0,.47-.72,1,1,0,0,0,0-.77,3.68,3.68,0,0,0-1.55-.85,8.54,8.54,0,0,1-1.69-.9,14.92,14.92,0,0,1-2.89-2.48c-.44-.44-.86-.93-1.3-1.35a2.24,2.24,0,0,0-1.54-.7.17.17,0,0,1-.18-.11,8,8,0,0,0-1.54-2.6,2.21,2.21,0,0,0-1.29-.57,2.94,2.94,0,0,0-1.42.24.19.19,0,0,1-.25-.1h0a4.32,4.32,0,0,0-1.59-2,2.69,2.69,0,0,0-2.44,0,.21.21,0,0,1-.24,0,7.46,7.46,0,0,0-2.15-1.87,3.25,3.25,0,0,0-2.7.23,4.76,4.76,0,0,0-1.94,2,18.5,18.5,0,0,0-1.06,2.72,29.17,29.17,0,0,0-1.33,5.72c-.15,1-.25,1.94-.31,2.92a10.17,10.17,0,0,0,0,1.46,3.27,3.27,0,0,0,.27,1.36v0a28.94,28.94,0,0,0,2.6,3.32c.92,1.08,1.86,2.14,2.81,3.2q2.83,3.17,5.75,6.28a.13.13,0,0,1,0,.08,11.58,11.58,0,0,1-.72,2.88c-.33.94-.71,1.84-1.09,2.75-.78,1.8-1.62,3.58-2.46,5.35-1.69,3.55-3.39,7.09-5,10.68,1.56-3.61,3.22-7.17,4.86-10.73.82-1.79,1.64-3.57,2.4-5.38.38-.9.76-1.81,1.08-2.74a11.62,11.62,0,0,0,.69-2.82l0,.09c-1.94-2.08-3.87-4.16-5.77-6.27-1-1.06-1.9-2.12-2.83-3.19a28.33,28.33,0,0,1-2.64-3.38v0a3.29,3.29,0,0,1-.33-1.5,12.5,12.5,0,0,1,0-1.5c.06-1,.16-2,.3-2.95a30.27,30.27,0,0,1,1.33-5.78,20.12,20.12,0,0,1,1.07-2.78,5.14,5.14,0,0,1,2.08-2.18,3.62,3.62,0,0,1,3-.24,4.38,4.38,0,0,1,1.26.88c.36.34.71.7,1,1.07l-.23,0a3.37,3.37,0,0,1,1.39-.36,2.54,2.54,0,0,1,1.42.32,3.62,3.62,0,0,1,1.06,1,6,6,0,0,1,.71,1.23l-.26-.11a3.19,3.19,0,0,1,1.62-.26,2.58,2.58,0,0,1,1.5.67,8.3,8.3,0,0,1,1.62,2.73l-.18-.11a2.62,2.62,0,0,1,1.81.8c.47.46.87.92,1.31,1.38a13.89,13.89,0,0,0,2.82,2.43,8.79,8.79,0,0,0,1.62.88,3.73,3.73,0,0,1,1.7,1,1.7,1.7,0,0,1-.51,1.9,4.25,4.25,0,0,1-1.73.88v-.3a4.35,4.35,0,0,1,2.13,2.42,7.12,7.12,0,0,1,.5,1.54,9.57,9.57,0,0,1,.11,1.6,34.32,34.32,0,0,1-.76,6.32c-.39,2.09-1,4.12-1.43,6.18s-.78,4.16-1.13,6.24l-2,12.54C264.6,360.17,263.93,364.35,263.2,368.51Z" style="fill:#b16668"></path><g id="freepik--Arm--inject-207"><path d="M360.54,350a13.6,13.6,0,0,0-6-2.42,32.79,32.79,0,0,0-14.24,4.77c-2.88,1.78-4.07,2.07-8.84,2.72-4.1.56-21.67,2.46-21.92,2.16l-17.72,11.33c3,5.75,5.13,10.94,13.38,9.64,5.15-.81,24.37-6.65,30.64-8.41a25,25,0,0,1,12.73-.37c5.28,1,8.42.14,14.06-.62C372.13,367.47,365.79,354.15,360.54,350Z" style="fill:#ffa8a7"></path><path d="M354.93,356.85,361.12,369l-1.4.21-6.06-11.26s-2.78-2.1-4.84-1.5C350.42,352.76,354.93,356.85,354.93,356.85Z" style="fill:#f28f8f"></path><path d="M355,359.37a10.12,10.12,0,0,1-7.19,4.66s3.75,1.33,8.14-3.13Z" style="fill:#f28f8f"></path><g id="freepik--pencil--inject-207"><path d="M369.86,372.8l1.24,8.52a.26.26,0,0,1-.44.22l-6.2-6Z" style="fill:#ffa8a7"></path><path d="M370.66,381.54a.26.26,0,0,0,.44-.22l-.24-1.67h0a1.45,1.45,0,0,1-1.38.62l-.14,0Z" style="fill:#263238"></path><path d="M348,343.19l.36.7.44.86,15.71,30.76a3.9,3.9,0,0,0,2.81-.1,4,4,0,0,0,2.59-2.61l-15.71-30.73-.83-1.64C353.8,341.52,348.45,344.27,348,343.19Z" style="fill:#DDC18D"></path><path d="M348,343.19l.36.7.44.86,15.71,30.76a3.9,3.9,0,0,0,2.81-.1,4,4,0,0,0,2.59-2.61l-15.71-30.73-.83-1.64C353.8,341.52,348.45,344.27,348,343.19Z" style="opacity:0.15"></path><path d="M349.32,345.89l.81,1.58c.22.47,1.35.26,2.53-.21,1.57-.63,3.13-1.95,2.84-2.56l-.6-1.17-.22-.41c.29.61-1.26,1.93-2.83,2.56-1.14.45-2.23.66-2.5.26h0Z" style="fill:#ebebeb"></path><path d="M349.53,346.28c.51,1.09,5.86-1.69,5.36-2.77l-.81-1.59c.51,1.09-4.85,3.86-5.36,2.78Z" style="fill:#DDC18D"></path><path d="M348,343.19l.8,1.56c.49,1.07,5.68-1.56,5.4-2.68a.25.25,0,0,0,0-.07l-.81-1.57C353.8,341.52,348.45,344.27,348,343.19Z" style="fill:#ebebeb"></path><path d="M370.94,381.59l.16-.27L368.05,375l-16.62-32.52c.1-.05.11-.1,0-.14-1.44.83-3.24,1.42-3.52.82l.36.7.44.86,15.71,30.76h0l6.2,6A.25.25,0,0,0,370.94,381.59Z" style="opacity:0.15"></path><path d="M344.56,336.54l3.39,6.65c.21.46,1.33.26,2.51-.2,1.57-.63,3.13-1.93,2.86-2.56h0l-3.39-6.66c-.69-1.32-3.54-.27-4.86,1.1A1.55,1.55,0,0,0,344.56,336.54Z" style="fill:#f28f8f"></path><path d="M346.55,337a4.66,4.66,0,0,0,3.32-2.48,1.07,1.07,0,0,0-.08-1c-.86-1-3.48,0-4.73,1.29a1.57,1.57,0,0,0-.51,1.65C344.81,337,345.55,337.23,346.55,337Z" style="opacity:0.1"></path></g><path d="M357.33,348.25a15.82,15.82,0,0,1,3.05.1,10.59,10.59,0,0,1,4.32,1.32,3.52,3.52,0,0,1,1.28,1.14,5.2,5.2,0,0,1,.49,1.7c.57,3.05,3.1,4.74,3.68,7.72a61,61,0,0,1-.5,7.34,22.92,22.92,0,0,0-.12,2.37c-.42.78-1.12.46-1.59.15a3.51,3.51,0,0,1-1.29-2.48c-.1-.47-.28-1.63-.28-1.63-.26.61-.79.72-1.51.44s-1.23-1.79-1.4-2.69c-.41-2.2-.25-3.24-.68-4.78,0,0-1-2-1.17-2.28Z" style="fill:#ffa8a7"></path><path d="M368.48,370.36a3.43,3.43,0,0,1-1.26-2.55,18.41,18.41,0,0,1,.48-5.15,9.1,9.1,0,0,0,.07-4.28c-.39-1.19-1-3.8-1-3.8s.12.9.33,2.44a14.3,14.3,0,0,1,0,4.54c-.26,1.17-.51,2.91-.73,4.42,0,0,.18,1.16.28,1.63a3.51,3.51,0,0,0,1.29,2.48A2.1,2.1,0,0,0,368.48,370.36Z" style="fill:#f28f8f"></path><path d="M362.94,353.94s.76.7.12,2.18a2.41,2.41,0,0,1-1.05,1.32l-.4-.77Z" style="fill:#f28f8f"></path><path d="M340.33,352.3c4.11-2.16,6.31-5.08,10.4-4.27,2.66.53,4.58,2.11,8.68,4.32,1.46.8,3.48,1.4,3.53,1.59.69,2.51-2.5,3.94-6.74,3.23-2.16-.36-5.52-2.34-7.38-.75a8.71,8.71,0,0,1-4.23,4.75S340.19,358.86,340.33,352.3Z" style="fill:#ffa8a7"></path></g></g></g><g id="freepik--light-bulb--inject-207"><g id="freepik--Idea--inject-207"><g id="freepik--Light--inject-207"><path d="M267.93,236.28a3.51,3.51,0,1,1-3.47-3.54A3.51,3.51,0,0,1,267.93,236.28Z" style="fill:#37474f"></path><path d="M260.22,236.43c-2.31-1.36-2.29-3.54,0-4.85a9.27,9.27,0,0,1,8.41.09c2.31,1.36,2.28,3.54-.05,4.85A9.27,9.27,0,0,1,260.22,236.43Z" style="fill:#455a64"></path><path d="M260.1,235.16c-2.38-1.4-2.35-3.64.06-5a9.58,9.58,0,0,1,8.66.09c2.38,1.41,2.36,3.65-.05,5A9.6,9.6,0,0,1,260.1,235.16Z" style="fill:#37474f"></path><path d="M260,233.86c-2.45-1.45-2.42-3.76.06-5.16a9.86,9.86,0,0,1,8.93.1c2.45,1.45,2.43,3.76-.05,5.15A9.88,9.88,0,0,1,260,233.86Z" style="fill:#455a64"></path><path d="M259.86,232.51c-2.53-1.49-2.5-3.87.06-5.31a10.18,10.18,0,0,1,9.2.09c2.53,1.5,2.51,3.88-.05,5.32A10.17,10.17,0,0,1,259.86,232.51Z" style="fill:#37474f"></path><path d="M259.78,231.1c-2.58-1.53-2.55-3.95.06-5.42a10.39,10.39,0,0,1,9.39.09c2.58,1.53,2.56,4-.05,5.43A10.38,10.38,0,0,1,259.78,231.1Z" style="fill:#455a64"></path><path d="M264.91,190.31A16.71,16.71,0,0,0,248,206.84c-.14,13.26,10.78,15.57,10.72,20.92a2.87,2.87,0,0,0,1.66,2.37,9,9,0,0,0,8.15.09,2.87,2.87,0,0,0,1.72-2.34h0c.05-5.34,11-7.43,11.16-20.69A16.71,16.71,0,0,0,264.91,190.31Z" style="fill:#DDC18D"></path><g style="opacity:0.6000000000000001"><path d="M264.91,190.31A16.71,16.71,0,0,0,248,206.84c-.14,13.26,10.78,15.57,10.72,20.92a2.87,2.87,0,0,0,1.66,2.37,9,9,0,0,0,8.15.09,2.87,2.87,0,0,0,1.72-2.34h0c.05-5.34,11-7.43,11.16-20.69A16.71,16.71,0,0,0,264.91,190.31Z" style="fill:#fff"></path></g><path d="M261.43,229.42c-1.68-1-1.66-2.58,0-3.54a6.79,6.79,0,0,1,6.13.06c1.68,1,1.66,2.58,0,3.54A6.79,6.79,0,0,1,261.43,229.42Z" style="fill:#DDC18D"></path><path d="M266.75,227.29a.56.56,0,0,1-.56-.56,40.7,40.7,0,0,1,1.27-9.53,20.15,20.15,0,0,1,.86-2.65,7.74,7.74,0,0,1-1.44-.72,9.61,9.61,0,0,1-2.2-1.89,9.87,9.87,0,0,1-2.23,1.84,7.09,7.09,0,0,1-1.46.69,20.79,20.79,0,0,1,.8,2.67,39.88,39.88,0,0,1,1.07,9.55.57.57,0,1,1-1.13,0,40.11,40.11,0,0,0-1-9.26,18.19,18.19,0,0,0-.81-2.66,3.55,3.55,0,0,1-3.15-1,1.8,1.8,0,0,1-.22-2.34,1.51,1.51,0,0,1,1.55-.63c.89.19,1.75,1.11,2.48,2.62a6.47,6.47,0,0,0,1.32-.62A8.52,8.52,0,0,0,264,211a4.19,4.19,0,0,1-.8-3.19,1.6,1.6,0,0,1,3.05,0,4.24,4.24,0,0,1-.86,3.18,8.51,8.51,0,0,0,2.09,1.84,6.28,6.28,0,0,0,1.31.64c.77-1.48,1.65-2.39,2.54-2.56a1.51,1.51,0,0,1,1.54.66,1.82,1.82,0,0,1-.27,2.34,3.54,3.54,0,0,1-3.17.89,18.55,18.55,0,0,0-.87,2.64,39.92,39.92,0,0,0-1.24,9.24.57.57,0,0,1-.56.57Zm-9-15.38a.39.39,0,0,0-.32.21c-.28.37,0,.78.14.9a2.25,2.25,0,0,0,1.81.62c-.59-1.11-1.17-1.64-1.55-1.72ZM270,213.76a2.29,2.29,0,0,0,1.82-.59c.1-.12.44-.52.16-.9-.15-.22-.29-.23-.4-.2C271.16,212.14,270.57,212.65,270,213.76Zm-5.23-5.92c-.29,0-.39.12-.44.3a2.78,2.78,0,0,0,.41,1.86,2.73,2.73,0,0,0,.46-1.85A.39.39,0,0,0,264.73,207.84Z" style="fill:#fff"></path></g><path d="M265.08,184a1.35,1.35,0,0,1-.29,0,1.11,1.11,0,0,1-1.09-1.1l0-5.69a1.09,1.09,0,0,1,2.18,0l0,5.69A1.11,1.11,0,0,1,265.08,184Z" style="fill:#e0e0e0"></path><path d="M252.93,187.15a1.08,1.08,0,0,1-1.23-.51l-2.83-4.94a1.09,1.09,0,1,1,1.9-1.08l2.82,4.94a1.08,1.08,0,0,1-.4,1.48A1,1,0,0,1,252.93,187.15Z" style="fill:#e0e0e0"></path><path d="M244,196a1.14,1.14,0,0,1-.84-.11L238.26,193a1.09,1.09,0,0,1,1.1-1.88l4.91,2.86a1.09,1.09,0,0,1-.26,2Z" style="fill:#e0e0e0"></path><path d="M240.71,208.12a1,1,0,0,1-.29,0l-5.69,0a1.1,1.1,0,1,1,0-2.19l5.68,0a1.09,1.09,0,0,1,.29,2.14Z" style="fill:#e0e0e0"></path><path d="M290.86,223.31a1.06,1.06,0,0,1-.83-.11l-4.91-2.86a1.09,1.09,0,1,1,1.09-1.89l4.92,2.87a1.08,1.08,0,0,1,.39,1.49A1.06,1.06,0,0,1,290.86,223.31Z" style="fill:#e0e0e0"></path><path d="M238.72,223.31a1.06,1.06,0,0,0,.83-.11l4.92-2.86a1.09,1.09,0,0,0-1.1-1.89l-4.92,2.87a1.09,1.09,0,0,0-.39,1.49A1.06,1.06,0,0,0,238.72,223.31Z" style="fill:#e0e0e0"></path><path d="M294.94,208.35a1.35,1.35,0,0,1-.29,0l-5.69,0a1.09,1.09,0,0,1,0-2.18l5.69,0a1.09,1.09,0,0,1,.28,2.15Z" style="fill:#e0e0e0"></path><path d="M286.05,196.18a1.1,1.1,0,0,1-.83-2l4.94-2.82a1.09,1.09,0,0,1,1.09,1.89l-4.94,2.83A1.19,1.19,0,0,1,286.05,196.18Z" style="fill:#e0e0e0"></path><path d="M277.2,187.25a1.06,1.06,0,0,1-.83-.11,1.08,1.08,0,0,1-.39-1.49l2.86-4.91a1.08,1.08,0,0,1,1.49-.4,1.1,1.1,0,0,1,.4,1.49l-2.87,4.92A1.06,1.06,0,0,1,277.2,187.25Z" style="fill:#e0e0e0"></path></g></g><g id="freepik--mind-map--inject-207"><g id="freepik--Message--inject-207"><rect x="48.17" y="200.13" width="84.57" height="51.82" rx="6.6" style="fill:#fafafa"></rect><path d="M126.13,252.44H54.77a7.1,7.1,0,0,1-7.1-7.1V206.73a7.1,7.1,0,0,1,7.1-7.1h71.36a7.11,7.11,0,0,1,7.11,7.1v38.61A7.11,7.11,0,0,1,126.13,252.44ZM54.77,200.63a6.1,6.1,0,0,0-6.1,6.1v38.61a6.1,6.1,0,0,0,6.1,6.1h71.36a6.11,6.11,0,0,0,6.11-6.1V206.73a6.11,6.11,0,0,0-6.11-6.1Z" style="fill:#e0e0e0"></path><path d="M57.8,207.63h65.3a0,0,0,0,1,0,0V242.2a3.43,3.43,0,0,1-3.43,3.43H61.23a3.43,3.43,0,0,1-3.43-3.43V207.63A0,0,0,0,1,57.8,207.63Z" style="fill:#DDC18D"></path><path d="M57.8,207.63l30.51,23.16a3.54,3.54,0,0,0,4.28,0l30.51-23.16Z" style="opacity:0.30000000000000004"></path><path d="M123.1,207.63,92.59,184.46a3.54,3.54,0,0,0-4.28,0L57.8,207.63Z" style="fill:#DDC18D"></path><path d="M123.1,207.63l-7.9,6L92.59,230.79a3.53,3.53,0,0,1-4.27,0L65.7,213.63l-7.89-6Z" style="opacity:0.30000000000000004"></path><path d="M115.2,190.69v22.95L92.59,230.79a3.53,3.53,0,0,1-4.27,0L65.7,213.63V190.69Z" style="fill:#fff"></path><path d="M113.93,192v21L91.82,229.78a2.19,2.19,0,0,1-1.37.47,2.23,2.23,0,0,1-1.37-.47L67,213V192h47m1.27-1.27H65.7v22.94l22.62,17.16a3.53,3.53,0,0,0,4.27,0l22.61-17.15V190.69Z" style="fill:#e0e0e0"></path><rect x="70.86" y="196.18" width="39.18" height="2.48" style="fill:#DDC18D"></rect><rect x="70.86" y="202.84" width="39.18" height="1.24" style="fill:#e0e0e0"></rect><rect x="70.86" y="206.37" width="39.18" height="1.24" style="fill:#e0e0e0"></rect><rect x="70.86" y="209.89" width="39.18" height="1.24" style="fill:#e0e0e0"></rect><circle cx="212.75" cy="270.97" r="2.14" style="fill:#e0e0e0"></circle><path d="M212.75,271.46h-95.9a.51.51,0,0,1-.29-.1l-26.39-19a.49.49,0,0,1-.11-.68.48.48,0,0,1,.68-.11L117,270.49h95.75a.48.48,0,0,1,.49.48A.49.49,0,0,1,212.75,271.46Z" style="fill:#e0e0e0"></path></g><g id="freepik--Puzzle--inject-207"><path d="M90.35,106.83v47.3H101.7c3.83,0,5.66-.15,6.53-.81.68-.51.77-1.33.77-2.63a4.33,4.33,0,0,0-.7-2.82l-.06-.11a6.58,6.58,0,0,1-1.16-3.76,2.66,2.66,0,0,1,0-.3v0h0c0-.12,0-.24,0-.36a7,7,0,0,1,6.95-6.95h0a7,7,0,0,1,6.94,6.95,5.25,5.25,0,0,1,0,.56,1.09,1.09,0,0,1,0,.18c0,.26,0,.5-.06.73a6.2,6.2,0,0,1-1.09,3,4.39,4.39,0,0,0-.76,2.93c0,1.67.15,2.55,1.5,3a21.48,21.48,0,0,0,5.79.44h11.37V142.6c0-6.12.28-9.31,5.62-9.31a6.49,6.49,0,0,1,4.11,1.1,4.51,4.51,0,0,0,2.69.82l.58,0a4.76,4.76,0,1,0,0-9.52,7.34,7.34,0,0,0-3.27.85,6.49,6.49,0,0,1-4.11,1.1c-5.34,0-5.6-3.19-5.62-9.3V106.83H126.28a21.48,21.48,0,0,0-5.79.44c-1.35.45-1.5,1.33-1.5,3a4.39,4.39,0,0,0,.76,2.93,6.34,6.34,0,0,1,1,2.51c.06.37.11.78.14,1.25V117a5.72,5.72,0,0,1,0,.62,6.95,6.95,0,0,1-13.9,0,1.49,1.49,0,0,1,0-.21c0-.18,0-.35,0-.52a6.54,6.54,0,0,1,1.16-3.72c.08-.12.15-.24.22-.36a4.6,4.6,0,0,0,.54-2.57c0-1.3-.09-2.12-.77-2.63-.87-.66-2.7-.81-6.53-.81Z" style="fill:#455a64"></path><path d="M234.27,232.27a2.14,2.14,0,1,1-2.14-2.13A2.14,2.14,0,0,1,234.27,232.27Z" style="fill:#e0e0e0"></path><path d="M232.13,232.76H210.34a.51.51,0,0,1-.35-.15l-55.7-58.28H116.85a.48.48,0,0,1-.49-.48v-12a.49.49,0,1,1,1,0v11.52h37.16a.49.49,0,0,1,.35.15l55.71,58.28h21.58a.49.49,0,1,1,0,1Z" style="fill:#e0e0e0"></path></g><g id="freepik--Contacts--inject-207"><path d="M191.67,114.09a22.05,22.05,0,1,1,22.05-22A22.08,22.08,0,0,1,191.67,114.09Zm0-42.16A20.11,20.11,0,1,0,211.78,92,20.13,20.13,0,0,0,191.67,71.93Z" style="fill:#DDC18D"></path><circle cx="207.43" cy="46.89" r="6.86" style="fill:#DDC18D"></circle><path d="M246.42,103.55A11.51,11.51,0,1,1,257.93,92,11.52,11.52,0,0,1,246.42,103.55Zm0-21.08A9.57,9.57,0,1,0,256,92,9.58,9.58,0,0,0,246.42,82.47Z" style="fill:#DDC18D"></path><path d="M222.94,154a15.87,15.87,0,1,1,15.87-15.87A15.9,15.9,0,0,1,222.94,154Zm0-29.81a13.94,13.94,0,1,0,13.94,13.94A14,14,0,0,0,222.94,124.21Z" style="fill:#DDC18D"></path><rect x="191.94" y="61.78" width="19.89" height="1.94" transform="translate(81.66 236.65) rotate(-72.61)" style="fill:#DDC18D"></rect><rect x="212.75" y="91.07" width="23.12" height="1.94" style="fill:#DDC18D"></rect><rect x="208.47" y="107.51" width="1.94" height="19.76" transform="translate(-29.04 145.17) rotate(-35.92)" style="fill:#DDC18D"></rect><path d="M198.85,94.12H184.49a3.94,3.94,0,0,0-3.89,3.34l-1,6.21h24.08l-1-6.21A3.94,3.94,0,0,0,198.85,94.12Z" style="fill:#455a64"></path><path d="M198.5,84.79A6.83,6.83,0,1,1,191.67,78,6.82,6.82,0,0,1,198.5,84.79Z" style="fill:#455a64"></path><path d="M249.59,93.11h-6.45a1.77,1.77,0,0,0-1.75,1.5L241,97.4h10.82l-.43-2.79A1.78,1.78,0,0,0,249.59,93.11Z" style="fill:#DDC18D"></path><path d="M249.43,88.92a3.07,3.07,0,1,1-3.07-3.07A3.07,3.07,0,0,1,249.43,88.92Z" style="fill:#DDC18D"></path><path d="M228.06,139.71H217.82a2.81,2.81,0,0,0-2.78,2.38l-.69,4.43h17.18l-.69-4.43A2.82,2.82,0,0,0,228.06,139.71Z" style="fill:#DDC18D"></path><path d="M227.81,133.05a4.88,4.88,0,1,1-4.87-4.87A4.87,4.87,0,0,1,227.81,133.05Z" style="fill:#DDC18D"></path><g style="opacity:0.4"><path d="M228.06,139.71H217.82a2.81,2.81,0,0,0-2.78,2.38l-.69,4.43h17.18l-.69-4.43A2.82,2.82,0,0,0,228.06,139.71Z" style="fill:#fff"></path><path d="M227.81,133.05a4.88,4.88,0,1,1-4.87-4.87A4.87,4.87,0,0,1,227.81,133.05Z" style="fill:#fff"></path></g><path d="M238.81,179.53a2.14,2.14,0,1,1-2.13-2.14A2.13,2.13,0,0,1,238.81,179.53Z" style="fill:#e0e0e0"></path><path d="M236.68,180a.53.53,0,0,1-.27-.08l-45-29.82a.49.49,0,0,1-.21-.4V118.32a.47.47,0,0,1,.48-.48.48.48,0,0,1,.49.48v31.13L237,179.12a.49.49,0,0,1-.27.89Z" style="fill:#e0e0e0"></path></g><g id="freepik--pie-chart--inject-207"><rect x="282.51" y="71.16" width="54.59" height="51.82" rx="6.6" style="fill:#fafafa"></rect><path d="M330.5,123.47H289.12a7.11,7.11,0,0,1-7.11-7.1V77.76a7.11,7.11,0,0,1,7.11-7.1H330.5a7.1,7.1,0,0,1,7.1,7.1v38.61A7.1,7.1,0,0,1,330.5,123.47ZM289.12,71.66a6.11,6.11,0,0,0-6.11,6.1v38.61a6.11,6.11,0,0,0,6.11,6.1H330.5a6.1,6.1,0,0,0,6.1-6.1V77.76a6.1,6.1,0,0,0-6.1-6.1Z" style="fill:#e0e0e0"></path><path d="M322.54,109.92a18.36,18.36,0,1,1-8.39-30.1l-5.52,17.52s0,0,0,0a.06.06,0,0,0,0,0v0a.43.43,0,0,0,.15.34l0,0Z" style="fill:#DDC18D"></path><path d="M322.54,109.92a18.36,18.36,0,1,1-8.39-30.1l-5.52,17.52s0,0,0,0a.06.06,0,0,0,0,0v0a.43.43,0,0,0,.15.34l0,0Z" style="opacity:0.30000000000000004"></path><path d="M327.46,85.4l-16.26,10L317,77.19A20.29,20.29,0,0,1,327.46,85.4Z" style="fill:#DDC18D"></path><path d="M330.78,97.54A20.29,20.29,0,0,1,326,110.65l-14.81-13L328,87.27A20.3,20.3,0,0,1,330.78,97.54Z" style="fill:#DDC18D"></path><g style="opacity:0.30000000000000004"><path d="M330.78,97.54A20.29,20.29,0,0,1,326,110.65l-14.81-13L328,87.27A20.3,20.3,0,0,1,330.78,97.54Z" style="fill:#fff"></path></g><path d="M276.53,171.71a2.14,2.14,0,1,1-2.14-2.14A2.14,2.14,0,0,1,276.53,171.71Z" style="fill:#e0e0e0"></path><path d="M274.39,172.2a.58.58,0,0,1-.18,0,.49.49,0,0,1-.27-.63l16-38.66a.48.48,0,0,1,.45-.3h18.91V123a.49.49,0,0,1,.49-.48.48.48,0,0,1,.48.48v10.08a.48.48,0,0,1-.48.49H290.73L274.84,171.9A.5.5,0,0,1,274.39,172.2Z" style="fill:#e0e0e0"></path></g><g id="freepik--Video--inject-207"><rect x="359.54" y="106.83" width="49.9" height="38.88" rx="5.99" style="fill:#455a64"></rect><circle cx="384.49" cy="126.19" r="12.57" transform="translate(173.34 471.4) rotate(-76.72)" style="fill:#fafafa"></circle><path d="M391.33,125l-9.77-5.23a1.38,1.38,0,0,0-2,1.22v10.45a1.38,1.38,0,0,0,2,1.22l9.77-5.23A1.38,1.38,0,0,0,391.33,125Z" style="fill:#DDC18D"></path><circle cx="290.69" cy="242.53" r="2.14" style="fill:#e0e0e0"></circle><path d="M311.2,243H290.69a.48.48,0,1,1,0-1h20.24l47.27-75.26a.5.5,0,0,1,.41-.23H380V149.71a.48.48,0,0,1,.48-.49.49.49,0,0,1,.49.49v17.34a.49.49,0,0,1-.49.48H358.88l-47.27,75.26A.49.49,0,0,1,311.2,243Z" style="fill:#e0e0e0"></path></g><g id="freepik--Bubble--inject-207"><path d="M455.72,167.05H402.3a6,6,0,0,0-6,6v26.91a6,6,0,0,0,6,6h6.11v8.73a.94.94,0,0,0,1.6.66l9.4-9.39h36.31a6,6,0,0,0,6-6V173A6,6,0,0,0,455.72,167.05Z" style="fill:#DDC18D"></path><path d="M451.27,179.12H406.75A1.71,1.71,0,0,1,405,177.4h0a1.71,1.71,0,0,1,1.71-1.72h44.52A1.72,1.72,0,0,1,453,177.4h0A1.72,1.72,0,0,1,451.27,179.12Z" style="fill:#fafafa"></path><path d="M451.27,188.41H406.75A1.71,1.71,0,0,1,405,186.7h0a1.71,1.71,0,0,1,1.71-1.72h44.52A1.72,1.72,0,0,1,453,186.7h0A1.72,1.72,0,0,1,451.27,188.41Z" style="fill:#fafafa"></path><path d="M451.27,197.71H406.75A1.71,1.71,0,0,1,405,196h0a1.71,1.71,0,0,1,1.71-1.72h44.52A1.72,1.72,0,0,1,453,196h0A1.72,1.72,0,0,1,451.27,197.71Z" style="fill:#fafafa"></path><circle cx="304.72" cy="260.51" r="2.14" style="fill:#e0e0e0"></circle><path d="M327.57,261H304.72a.49.49,0,0,1,0-1H327.3l44.2-71.87a.5.5,0,0,1,.41-.23h20.82a.49.49,0,0,1,0,1H372.19L328,260.77A.49.49,0,0,1,327.57,261Z" style="fill:#e0e0e0"></path></g><g id="freepik--chart--inject-207"><rect x="355.71" y="234.6" width="84.57" height="51.82" rx="6.6" style="fill:#fafafa"></rect><path d="M433.67,286.92H362.31a7.1,7.1,0,0,1-7.1-7.1V241.21a7.11,7.11,0,0,1,7.1-7.11h71.36a7.12,7.12,0,0,1,7.11,7.11v38.61A7.11,7.11,0,0,1,433.67,286.92ZM362.31,235.1a6.11,6.11,0,0,0-6.1,6.11v38.61a6.11,6.11,0,0,0,6.1,6.1h71.36a6.11,6.11,0,0,0,6.11-6.1V241.21a6.12,6.12,0,0,0-6.11-6.11Z" style="fill:#e0e0e0"></path><polygon points="417.88 250.69 403.43 279.03 432.33 279.03 417.88 250.69" style="fill:#DDC18D"></polygon><polygon points="417.88 250.69 403.43 279.03 432.33 279.03 417.88 250.69" style="fill:#fff;opacity:0.30000000000000004"></polygon><polygon points="397.99 240.91 383.54 279.03 412.44 279.03 397.99 240.91" style="fill:#DDC18D"></polygon><polygon points="378.27 256.04 363.82 279.03 392.73 279.03 378.27 256.04" style="fill:#DDC18D"></polygon><polygon points="378.27 256.04 363.82 279.03 392.73 279.03 378.27 256.04" style="opacity:0.30000000000000004"></polygon><rect x="363.82" y="239.31" width="3.22" height="3.22" rx="0.45" style="fill:#DDC18D"></rect><rect x="363.82" y="239.31" width="3.22" height="3.22" rx="0.45" style="opacity:0.30000000000000004"></rect><rect x="363.82" y="243.95" width="3.22" height="3.22" rx="0.45" style="fill:#DDC18D"></rect><rect x="363.82" y="248.6" width="3.22" height="3.22" rx="0.45" style="fill:#DDC18D"></rect><rect x="363.82" y="248.6" width="3.22" height="3.22" rx="0.45" style="fill:#fff;opacity:0.30000000000000004"></rect><path d="M381.77,303.13h-77a.48.48,0,0,1-.48-.49.47.47,0,0,1,.48-.48h76.85l16.08-16.08a.48.48,0,1,1,.68.68L382.11,303A.45.45,0,0,1,381.77,303.13Z" style="fill:#e0e0e0"></path><path d="M306.86,302.64a2.14,2.14,0,1,1-2.14-2.14A2.14,2.14,0,0,1,306.86,302.64Z" style="fill:#e0e0e0"></path></g><g id="freepik--Glass--inject-207"><rect x="445.43" y="288.23" width="2.76" height="10.06" transform="translate(-76.5 401.83) rotate(-45)" style="fill:#e0e0e0"></rect><path d="M461.42,307.88h0a2.43,2.43,0,0,1-3.45,0L447.69,297.6l3.46-3.45,10.27,10.28A2.43,2.43,0,0,1,461.42,307.88Z" style="fill:#DDC18D"></path><circle cx="434.82" cy="281.27" r="14.25" style="fill:#fff;opacity:0.4"></circle><path d="M434.82,267a14.25,14.25,0,1,0,14.25,14.25A14.24,14.24,0,0,0,434.82,267Zm0,24.92a10.67,10.67,0,1,1,10.66-10.67A10.67,10.67,0,0,1,434.82,291.94Z" style="fill:#455a64"></path></g></g></svg>