<svg xmlns="http://www.w3.org/2000/svg" viewBox="0 0 925 582.96"><defs><style>.cls-1{fill:#fff7df;}.cls-2{fill:#fffbf0;}</style></defs><g id="圖層_2" data-name="圖層 2"><g id="圖層_1-2" data-name="圖層 1"><path class="cls-1" d="M66.69,227.67a143.64,143.64,0,0,0,45.21-51.75c50.63-98,92.42-114.24,124-114.37,35.43-.14,75.51,21.87,119.25,23.87C418.75,88.34,432.75,27,514.55,6.5,522,4.64,612.4-16.84,664.49,30.18,708.94,70.31,680.78,120,726.05,159.6c41.33,36.18,82.47,10.2,131,42.62,47.64,31.83,66.51,94.17,67.87,135.74,4,122.28-139.85,263.19-287.26,243.07C538,567.42,526.76,483.94,432.47,473.7c-88.33-9.59-108.07,46.56-224.13,53.66-73.59,4.51-180.79-31.09-202-115.22C-9.42,349.8,2,273,66.69,227.67Z"/><path class="cls-2" d="M205,224a120.65,120.65,0,0,0,37.93-43.42c42.47-82.18,77.53-95.83,104-95.94,29.72-.12,63.35,18.34,100.05,20,53.36,2.45,65.12-49,133.73-66.2,6.23-1.57,82.09-19.59,125.79,19.86,37.3,33.66,13.67,75.34,51.64,108.57,34.68,30.36,69.2,8.56,109.91,35.76,40,26.7,55.8,79,56.93,113.87,3.34,102.58-117.32,220.8-241,203.91-83.57-11.41-93-81.45-172.13-90-74.11-8-90.66,39.06-188,45C262,479.19,172.11,449.33,154.3,378.75,141.09,326.45,150.65,262,205,224Z"/></g></g></svg>