<svg id="圖層_1" data-name="圖層 1" xmlns="http://www.w3.org/2000/svg" xmlns:xlink="http://www.w3.org/1999/xlink" viewBox="0 0 490.44 498.03"><defs><style>.cls-1{fill:url(#未命名漸層_3);}.cls-14,.cls-15,.cls-2,.cls-8{fill:none;}.cls-3{clip-path:url(#clip-path);}.cls-4{clip-path:url(#clip-path-2);}.cls-5{clip-path:url(#clip-path-4);}.cls-6{fill:url(#未命名漸層_5);}.cls-7{fill:#fff;}.cls-8{stroke:#baddc5;stroke-width:4.31px;}.cls-15,.cls-8{stroke-linecap:round;stroke-linejoin:round;}.cls-9{fill:#baddc5;}.cls-10{clip-path:url(#clip-path-6);}.cls-11{mask:url(#mask);}.cls-12{fill:url(#未命名漸層_2);}.cls-13{fill:#fee4db;}.cls-14,.cls-15{stroke:#ffcbb9;stroke-width:2.15px;}.cls-14{stroke-miterlimit:10;}.cls-16{fill:#333;}.cls-17{clip-path:url(#clip-path-8);}.cls-18{fill:url(#未命名漸層_4);}.cls-19{fill:#9ac97e;}</style><linearGradient id="未命名漸層_3" x1="4.33" y1="-1.72" x2="5.05" y2="-1.72" gradientTransform="matrix(-248.69, 0, 0, 248.69, 1392.73, 505.77)" gradientUnits="userSpaceOnUse"><stop offset="0" stop-color="#b3b3b3"/><stop offset="1"/></linearGradient><clipPath id="clip-path" transform="translate(8.35 29.55)"><rect class="cls-2" width="500" height="500"/></clipPath><clipPath id="clip-path-2" transform="translate(8.35 29.55)"><rect class="cls-2" x="-417.11" y="-101" width="1378.44" height="775.38"/></clipPath><clipPath id="clip-path-4" transform="translate(8.35 29.55)"><path class="cls-2" d="M11.52,144.52A59.68,59.68,0,1,0,71.2,84.83a59.68,59.68,0,0,0-59.68,59.69"/></clipPath><linearGradient id="未命名漸層_5" x1="-3.54" y1="1.71" x2="-2.82" y2="1.71" gradientTransform="matrix(263.66, 0, 0, -263.66, 901.3, 595.71)" gradientUnits="userSpaceOnUse"><stop offset="0" stop-color="#eadcff"/><stop offset="1" stop-color="#aeb8cc"/></linearGradient><clipPath id="clip-path-6" transform="translate(8.35 29.55)"><path class="cls-2" d="M172.16,76.91A71.8,71.8,0,1,0,244,5.11a71.8,71.8,0,0,0-71.8,71.8"/></clipPath><mask id="mask" x="145.85" y="0" width="212.91" height="212.91" maskUnits="userSpaceOnUse"><g transform="translate(8.35 29.55)"><rect class="cls-1" x="156.53" y="-10.52" width="174.85" height="174.85" transform="translate(108.67 294) rotate(-75.57)"/></g></mask><linearGradient id="未命名漸層_2" x1="4.33" y1="-1.72" x2="5.05" y2="-1.72" gradientTransform="matrix(-248.69, 0, 0, 248.69, 1392.73, 505.77)" gradientUnits="userSpaceOnUse"><stop offset="0" stop-color="#f9eae8"/><stop offset="1" stop-color="#ffddd4"/></linearGradient><clipPath id="clip-path-8" transform="translate(8.35 29.55)"><path class="cls-2" d="M356.69,144.52a60,60,0,1,0,60-59.69,59.86,59.86,0,0,0-60,59.69"/></clipPath><linearGradient id="未命名漸層_4" x1="6.28" y1="-4.65" x2="7" y2="-4.65" gradientTransform="matrix(-151.52, 0, 0, 151.52, 1460.52, 848.91)" gradientUnits="userSpaceOnUse"><stop offset="0" stop-color="#80baaf"/><stop offset="1" stop-color="#c7e0b6"/></linearGradient></defs><g class="cls-3"><g class="cls-4"><g class="cls-4"><g class="cls-5"><rect class="cls-6" x="2.3" y="75.61" width="137.81" height="137.81" transform="translate(-74.92 219.84) rotate(-80.28)"/></g><g class="cls-4"><path class="cls-7" d="M59.52,114.71a.75.75,0,0,0,.36.07,8,8,0,0,1,4.31,1.5,5.71,5.71,0,0,1,1.46,1.52,4.37,4.37,0,0,1,.73,2c0,.21,0,.41,0,.61q0,7.36,0,14.73a9.06,9.06,0,0,1-.38,2.64,8.78,8.78,0,0,1-1.42,2.73,13.31,13.31,0,0,1-2.13,2.18c-.64.54-1.3,1.05-2,1.57s-1.08.85-1.59,1.32a9.28,9.28,0,0,0-1.07,1.19,5.21,5.21,0,0,0-1,2.65c0,.32,0,.64,0,1v18.11a5.83,5.83,0,0,1,0,.84,4.58,4.58,0,0,1-1.15,2.5,6.84,6.84,0,0,1-2.54,1.81,8,8,0,0,1-2.16.58l-1,.1a5,5,0,0,1-.55,0c-.33,0-.66-.06-1-.11a7.81,7.81,0,0,1-2.91-1,6.37,6.37,0,0,1-1.68-1.33,4.72,4.72,0,0,1-1.19-2.3,7.17,7.17,0,0,1-.09-.81c0-.13,0-.27,0-.4V150.27a6.9,6.9,0,0,0-.1-1.28,5.38,5.38,0,0,0-1.1-2.4,9.74,9.74,0,0,0-1.5-1.51c-.74-.6-1.49-1.18-2.23-1.77a20.31,20.31,0,0,1-2.12-1.91,9.9,9.9,0,0,1-1.66-2.35A8.28,8.28,0,0,1,33,136c0-.16,0-.33-.13-.46V120.12c.11-.08.11-.21.13-.34a4.41,4.41,0,0,1,.38-1.33,5.5,5.5,0,0,1,1.79-2.15,7.9,7.9,0,0,1,4.32-1.52.77.77,0,0,0,.37-.07h.52a.8.8,0,0,0,.34.07l.64,0a8.3,8.3,0,0,1,1.83.45,7.26,7.26,0,0,1,1.55.78.26.26,0,0,0,.35,0l0,0a8.05,8.05,0,0,1,4-1.26.55.55,0,0,0,.31-.07H50a.55.55,0,0,0,.33.07,5.35,5.35,0,0,1,1,.11,7.91,7.91,0,0,1,3,1.14l.21.12.08,0,.22-.14a8.19,8.19,0,0,1,3.88-1.21.75.75,0,0,0,.36-.07ZM47.23,159v9.76a1.76,1.76,0,0,0,.65,1.31,2.47,2.47,0,0,0,.7.41,3,3,0,0,0,1.29.19,2.58,2.58,0,0,0,1.53-.55,1.74,1.74,0,0,0,.71-1.23,2.67,2.67,0,0,0,0-.4v-18c0-.21,0-.42,0-.64a7.69,7.69,0,0,1,.12-1.27,8.28,8.28,0,0,1,.9-2.6,10.57,10.57,0,0,1,1.91-2.45,25.3,25.3,0,0,1,2-1.73c.7-.56,1.4-1.11,2.09-1.68a8.36,8.36,0,0,0,1.56-1.64,5.39,5.39,0,0,0,1-3c0-.17,0-.33,0-.5V120.61a2.8,2.8,0,0,1,0-.29,1.58,1.58,0,0,0-.39-1,2.12,2.12,0,0,0-.7-.56,3,3,0,0,0-2.15-.21,2.47,2.47,0,0,0-1,.5,1.69,1.69,0,0,0-.65,1.4v11.06a1.55,1.55,0,0,1-.44,1.08,2.28,2.28,0,0,1-.58.44,3.31,3.31,0,0,1-1,.3A2.89,2.89,0,0,1,53.2,133a1.94,1.94,0,0,1-.85-.73,1.4,1.4,0,0,1-.23-.74c0-.13,0-.27,0-.41V120.66c0-.1,0-.21,0-.32a1.72,1.72,0,0,0-.52-1.2,2.36,2.36,0,0,0-.74-.5,3.05,3.05,0,0,0-2-.12,2.48,2.48,0,0,0-1.1.63,1.67,1.67,0,0,0-.49,1c0,.16,0,.33,0,.49v10.48c0,.15,0,.3,0,.44a1.41,1.41,0,0,1-.33.88,2.14,2.14,0,0,1-.75.59,2.81,2.81,0,0,1-1.64.25,2.78,2.78,0,0,1-1.22-.45,1.88,1.88,0,0,1-.62-.72,1.94,1.94,0,0,1-.14-.79v-8.94c0-.67,0-1.34,0-2a1.7,1.7,0,0,0-.57-1.29,2.58,2.58,0,0,0-.66-.43,3,3,0,0,0-1.36-.24,2.72,2.72,0,0,0-1.54.53,1.71,1.71,0,0,0-.71,1.07,2.37,2.37,0,0,0,0,.46c0,3.43,0,6.85,0,10.28v4.57a6.32,6.32,0,0,0,.15,1.3A5.6,5.6,0,0,0,39,139a12.14,12.14,0,0,0,1.56,1.48c.64.52,1.29,1,1.94,1.53A19.18,19.18,0,0,1,44.79,144a9.17,9.17,0,0,1,2.09,3.56,7.44,7.44,0,0,1,.32,1.68c0,.39,0,.77,0,1.16V159" transform="translate(8.35 29.55)"/><path class="cls-7" d="M109.58,154.83a.68.68,0,0,0-.08.34,13.66,13.66,0,0,1-.18,2c-.13.95-.3,1.9-.52,2.84a24.88,24.88,0,0,1-1.52,4.66,18,18,0,0,1-3,4.79,13.71,13.71,0,0,1-6.71,4.21,15.51,15.51,0,0,1-2.13.45,13.3,13.3,0,0,1-1.56.14c-.19,0-.39,0-.58,0l-1.17,0-.43,0a15.1,15.1,0,0,1-6.64-1.82,14.08,14.08,0,0,1-4.2-3.59,19.05,19.05,0,0,1-2.62-4.49,26.12,26.12,0,0,1-1.44-4.6c-.16-.73-.28-1.48-.41-2.23-.06-.4-.08-.81-.14-1.21-.1-.66-.11-1.33-.15-2a8.72,8.72,0,0,1,0-1.25,9.31,9.31,0,0,1,.17-1.18,8.73,8.73,0,0,1,1.76-3.57,14.37,14.37,0,0,1,2.14-2.13l2-1.61a17.7,17.7,0,0,0,1.67-1.45,7.7,7.7,0,0,0,.92-1.13,5.23,5.23,0,0,0,.78-2,8.94,8.94,0,0,0,.1-1.27V120.17a4,4,0,0,1,.46-1.84,5.5,5.5,0,0,1,1.44-1.81,7.51,7.51,0,0,1,3-1.5,6.36,6.36,0,0,1,1.63-.24.55.55,0,0,0,.31-.07h.52a.8.8,0,0,0,.34.07,2.81,2.81,0,0,1,.41,0,10.15,10.15,0,0,1,1.62.34,7.48,7.48,0,0,1,2.69,1.45,6.15,6.15,0,0,1,1,1.17,4.75,4.75,0,0,1,.8,2.66v18.16c0,.21,0,.43,0,.64a7.38,7.38,0,0,0,.07.81,5.41,5.41,0,0,0,.9,2.16,8.09,8.09,0,0,0,1.37,1.49c.43.38.88.74,1.33,1.1.65.53,1.32,1,2,1.58a14.55,14.55,0,0,1,1.69,1.64,8.9,8.9,0,0,1,1.84,3.18,6,6,0,0,1,.33,1.64.27.27,0,0,0,.08.22ZM95.26,129.78h0v-9.44a1.58,1.58,0,0,0-.46-1.15,2.08,2.08,0,0,0-.63-.47,3,3,0,0,0-2.15-.21,2.42,2.42,0,0,0-1.12.64,1.66,1.66,0,0,0-.51,1.2v18.5a9.84,9.84,0,0,1-.11,1.53,8.56,8.56,0,0,1-.91,2.69,11.06,11.06,0,0,1-2.09,2.63,22.14,22.14,0,0,1-1.73,1.48c-.65.52-1.31,1-2,1.56a10.09,10.09,0,0,0-1.66,1.67,5.48,5.48,0,0,0-1.13,3.53c0,.84.1,1.67.2,2.49s.2,1.43.35,2.13c.1.51.22,1,.34,1.53a20,20,0,0,0,1.61,4.36A12.6,12.6,0,0,0,85.9,168a9.61,9.61,0,0,0,6.45,2.64c.24,0,.48,0,.73,0a9.94,9.94,0,0,0,2-.19,9.47,9.47,0,0,0,4.81-2.52,13.06,13.06,0,0,0,2.63-3.67,21.15,21.15,0,0,0,1.51-4.21,22.91,22.91,0,0,0,.48-2.3c.07-.52.16-1,.22-1.56s.1-1.1.14-1.65a7,7,0,0,0,0-1.37,5.26,5.26,0,0,0-.75-2.27,7.84,7.84,0,0,0-1.37-1.61c-.51-.47-1-.9-1.59-1.33s-1.33-1-2-1.58A14,14,0,0,1,97,144.2a9,9,0,0,1-1.25-2.28,8.42,8.42,0,0,1-.51-2.94q0-4.6,0-9.2" transform="translate(8.35 29.55)"/><line class="cls-8" x1="251.03" y1="223.62" x2="251.11" y2="309.42"/><line class="cls-8" x1="139.58" y1="248.81" x2="200.31" y2="309.42"/><line class="cls-8" x1="362.56" y1="248.81" x2="301.83" y2="309.42"/><path class="cls-9" d="M140.09,428.11,103.5,338.37a18.66,18.66,0,0,0-24.26-10.21L43.09,342.9a18.67,18.67,0,0,0-10.21,24.27L69.47,456.9a18.66,18.66,0,0,0,24.26,10.21l36.15-14.74a18.65,18.65,0,0,0,10.21-24.26m-37.41,23.7a9.7,9.7,0,1,1,9.33-9.69,9.52,9.52,0,0,1-9.33,9.69" transform="translate(8.35 29.55)"/><path class="cls-7" d="M350.39,370.91c8.93-6.11,16.34-14,23.91-21.65,7.1-7.19,14.9-14.95,23.77-20,4.83-2.73,10.37-3.76,15.17-.36" transform="translate(8.35 29.55)"/><path class="cls-8" d="M350.39,370.91c8.93-6.11,16.34-14,23.91-21.65,7.1-7.19,14.9-14.95,23.77-20,4.83-2.73,10.37-3.76,15.17-.36" transform="translate(8.35 29.55)"/><path class="cls-7" d="M372,348.14c-9.07-1-16.72,6.05-23.69,10.79-8.36,5.69-17,11.13-26.6,14.45l1.09-.38a10.82,10.82,0,0,0-1.09.38" transform="translate(8.35 29.55)"/><path class="cls-8" d="M372,348.14c-9.07-1-16.72,6.05-23.69,10.79-8.36,5.69-17,11.13-26.6,14.45l1.09-.38a10.82,10.82,0,0,0-1.09.38" transform="translate(8.35 29.55)"/><path class="cls-7" d="M447.6,337.05c3.79-5.45,5.89-12.65-.67-16.95-4.39-2.88-10.29-2.71-15.1-1.08-6.16,2.09-12,6.6-16.94,10.68-5.3,4.33-9.42,10-14.87,14.12-5.14,3.89-20.94,16.82-20.94,16.82" transform="translate(8.35 29.55)"/><path class="cls-8" d="M447.6,337.05c3.79-5.45,5.89-12.65-.67-16.95-4.39-2.88-10.29-2.71-15.1-1.08-6.16,2.09-12,6.6-16.94,10.68-5.3,4.33-9.42,10-14.87,14.12-5.14,3.89-20.94,16.82-20.94,16.82" transform="translate(8.35 29.55)"/><path class="cls-7" d="M281.44,364.94c-20.19,2.17-34.46,5.75-35.17,7.9-1.39,4.14,9.33,7.18,22.25,7.9,19.42,1.08,38.77,1.43,58.15.72,17.95-.72,36.62.71,52.41-10.77,17.23-12.93,32.31-25.85,53.13-30.87,7.18-1.44,15.85-1.49,20.82,5,2.18,2.85,1,6.61-.72,9.33-6.25,10-14.91,16.71-23,23.7-20.31,17.6-43.79,30.15-68.2,41.64-1.44.71-2.16,0-3.59.71-2.88,1.44-6.47,2.88-9.34,4.31-1.43.72-2.15,0-3.59.72-20.1,8.62-41.64,12.92-63.89,15.79-7.9.72-16.52,1.44-24.41.72-17.23-2.15-33-7.18-48.82-12.92-20.11-6.46-41.64-6.46-62.46-2.15L111.65,339l3.2-2.63c17.66-10.83,42.93-18.9,63.84-18.69,13.94.15,25.86,5.69,39.33,8.83,12.92,3,26.42,2.25,39.78,2.25,25.79,0,46.62-4.78,72.46-8.37,12.17-1.69,27-9.06,33.75,3.59,6.54,12.22-6.69,17.83-17.23,22.26-22.26,9.33-45.23,16.51-65.34,18.66" transform="translate(8.35 29.55)"/><path class="cls-8" d="M281.44,364.94c-20.19,2.17-34.46,5.75-35.17,7.9-1.39,4.14,9.33,7.18,22.25,7.9,19.42,1.08,38.77,1.43,58.15.72,17.95-.72,36.62.71,52.41-10.77,17.23-12.93,32.31-25.85,53.13-30.87,7.18-1.44,15.85-1.49,20.82,5,2.18,2.85,1,6.61-.72,9.33-6.25,10-14.91,16.71-23,23.7-20.31,17.6-43.79,30.15-68.2,41.64-1.44.71-2.16,0-3.59.71-2.88,1.44-6.47,2.88-9.34,4.31-1.43.72-2.15,0-3.59.72-20.1,8.62-41.64,12.92-63.89,15.79-7.9.72-16.52,1.44-24.41.72-17.23-2.15-33-7.18-48.82-12.92-20.11-6.46-41.64-6.46-62.46-2.15L111.65,339l3.2-2.63c17.66-10.83,42.93-18.9,63.84-18.69,13.94.15,25.86,5.69,39.33,8.83,12.92,3,26.42,2.25,39.78,2.25,25.79,0,46.62-4.78,72.46-8.37,12.17-1.69,27-9.06,33.75,3.59,6.54,12.22-6.69,17.83-17.23,22.26C324.52,355.61,301.55,362.79,281.44,364.94Z" transform="translate(8.35 29.55)"/></g><g class="cls-10"><g class="cls-11"><rect class="cls-12" x="156.53" y="-10.52" width="174.85" height="174.85" transform="translate(117.02 323.54) rotate(-75.57)"/></g></g><g class="cls-4"><path class="cls-13" d="M205.56,54.72s-1.19-31.06,7.94-8.28" transform="translate(8.35 29.55)"/><path class="cls-14" d="M205.56,54.72s-1.19-31.06,7.94-8.28" transform="translate(8.35 29.55)"/><path class="cls-15" d="M284.52,83.21c4.3,2.32,10.69,5.38,10,8.76A4.67,4.67,0,0,1,289,95.49c-1.91-.44-1.3-2.75-.44-4.3,1.37-2.46,8.32-2.85,13.31,1.33" transform="translate(8.35 29.55)"/><path class="cls-13" d="M215.32,115.81c-6.66-2-2.78-12.79-7.9-17.35-4.66-4.14-12.41-.64-17.28-4.66a11.76,11.76,0,0,1-3.73-7.58c-.15-1.14-.58-3.46-.06-4.52s2.92-2.09,4-2.76c3.13-2,5.91-2.91,8-6,2.52-3.76,1.14-5.83,4-12.64,3.13-7.49,7-7.65,9.65-9.65,2.87-2.15,1.46-12.47,4-14.64,4.66-4,10,12.65,12,10.65,7.32-2.66,27.28-2.66,33.27,0,9.49,4.22,17.47,8.09,21,17.63,3.3,9.05,3.31,22.71-.79,31.28-2.16,4.52-6.26,12.61-9.53,17-1.57,2.1-4,5.94-6.65,6-6.4.13-4.66-10.64-9-10.31-7,1.66-25,2.33-30.94-1-3-1.65-6,8.65-10,8.65" transform="translate(8.35 29.55)"/><path class="cls-14" d="M215.32,115.81c-6.66-2-2.78-12.79-7.9-17.35-4.66-4.14-12.41-.64-17.28-4.66a11.76,11.76,0,0,1-3.73-7.58c-.15-1.14-.58-3.46-.06-4.52s2.92-2.09,4-2.76c3.13-2,5.91-2.91,8-6,2.52-3.76,1.14-5.83,4-12.64,3.13-7.49,7-7.65,9.65-9.65,2.87-2.15,1.46-12.47,4-14.64,4.66-4,10,12.65,12,10.65,7.32-2.66,27.28-2.66,33.27,0,9.49,4.22,17.47,8.09,21,17.63,3.3,9.05,3.31,22.71-.79,31.28-2.16,4.52-6.26,12.61-9.53,17-1.57,2.1-4,5.94-6.65,6-6.4.13-4.66-10.64-9-10.31-7,1.66-25,2.33-30.94-1C222.33,105.51,219.31,115.81,215.32,115.81Z" transform="translate(8.35 29.55)"/><path class="cls-16" d="M218.84,73a3.52,3.52,0,1,1-3.51-3.76A3.64,3.64,0,0,1,218.84,73" transform="translate(8.35 29.55)"/></g><g class="cls-17"><rect class="cls-18" x="354.4" y="81.88" width="124.63" height="125.28" transform="translate(262.01 583.89) rotate(-87.43)"/></g><g class="cls-4"><path class="cls-7" d="M412.05,131.68h8a2.83,2.83,0,0,1,0,5.66h-8a2.83,2.83,0,1,1,0-5.66" transform="translate(8.35 29.55)"/><polygon class="cls-7" points="424.41 139.12 387.58 164.06 390.43 169.5 396.4 165.85 396.4 207.91 421.29 207.91 421.29 202.42 402.77 202.42 402.77 163.13 424.72 147.94 445.35 163.13 445.35 170.19 452.85 170.19 452.85 166.89 456.96 170.19 462.55 165.03 424.41 139.12"/><path class="cls-19" d="M417.16,177c-2.09-8.86-.24-21.15,7.93-26.47,7.89-5.14,18.36-2,26.51-6.15,3.25,10,.37,21.62-6.88,29.33-7,7.39-17.88,5.5-27.12,5.5" transform="translate(8.35 29.55)"/><path class="cls-7" d="M443.67,152.86c-4.46,4.65-9.19,9-13.8,13.54-2.19,2.12-4.26,4.36-6.52,6.41a34.1,34.1,0,0,0-5.69,6c-.77,1.15,1.1,2.23,1.86,1.09A34.29,34.29,0,0,1,425.2,174c2.21-2,4.27-4.26,6.43-6.36,4.54-4.41,9.18-8.73,13.56-13.3,1-1-.56-2.52-1.52-1.52" transform="translate(8.35 29.55)"/><path class="cls-7" d="M435.5,152a26.14,26.14,0,0,1,0,3.54,18,18,0,0,0,.26,4.15,3.66,3.66,0,0,0,1.9,2.75,8.88,8.88,0,0,0,3.79.59,13.8,13.8,0,0,0,3.68-.45c1.32-.41.76-2.49-.57-2.08a8.56,8.56,0,0,1-1.12.23c-.16,0,.18,0,0,0l-.15,0-.41,0-.87.06a16.26,16.26,0,0,1-1.71,0l-.44,0-.22,0s.15,0,0,0a5,5,0,0,1-.77-.17l-.3-.1c.23.08-.05,0-.12-.06s-.25-.18-.13-.08-.21-.27,0,0a2.26,2.26,0,0,1-.16-.26l-.08-.15c-.08-.15.06.15,0,0a5.23,5.23,0,0,1-.23-.77c0-.12-.05-.24-.07-.37a1.43,1.43,0,0,1,0-.22c0,.05,0,.18,0-.05s-.06-.63-.07-.94c0-.62,0-1.24,0-1.86a27.31,27.31,0,0,0,0-3.73,1.11,1.11,0,0,0-1.08-1.07A1.07,1.07,0,0,0,435.5,152" transform="translate(8.35 29.55)"/><path class="cls-7" d="M428.26,155.29c0,3.21-.37,6.57.5,9.7a5.41,5.41,0,0,0,2.59,3.5,9.13,9.13,0,0,0,4.34.89c1.54,0,3.07-.23,4.6-.38a1.12,1.12,0,0,0,1.08-1.08,1.07,1.07,0,0,0-1.08-1.07c-2.39.23-5.08.83-7.41,0-2.53-.92-2.48-4.35-2.52-6.59,0-1.65.05-3.3.06-5a1.08,1.08,0,0,0-2.16,0" transform="translate(8.35 29.55)"/><path class="cls-7" d="M422.48,162.92c0,2.71-.23,5.61.63,8.23a4.87,4.87,0,0,0,2.24,3,12.34,12.34,0,0,0,5,.89,21.31,21.31,0,0,0,6.06-.6,1.08,1.08,0,0,0-.58-2.07,18.22,18.22,0,0,1-9.16,0,1.65,1.65,0,0,1-.94-.61,4.89,4.89,0,0,1-.59-1.19,13.55,13.55,0,0,1-.54-3.58c-.06-1.36,0-2.72,0-4.08a1.08,1.08,0,0,0-2.15,0" transform="translate(8.35 29.55)"/></g></g></g></g></svg>