<svg id="圖層_1" data-name="圖層 1" xmlns="http://www.w3.org/2000/svg" xmlns:xlink="http://www.w3.org/1999/xlink" viewBox="0 0 489.64 194.39"><defs><style>.cls-1,.cls-14,.cls-16,.cls-23,.cls-26,.cls-4{fill:none;}.cls-2{clip-path:url(#clip-path);}.cls-3{clip-path:url(#clip-path-2);}.cls-4{stroke:#ccc;stroke-dasharray:7.86 10.48;}.cls-14,.cls-16,.cls-23,.cls-4{stroke-miterlimit:10;}.cls-26,.cls-4{stroke-width:2.62px;}.cls-5{fill:#fff;}.cls-6{fill:#ccc;}.cls-7{fill:#b3b3b3;}.cls-8{fill:#4ac3af;}.cls-9{fill:#fcee21;}.cls-10{fill:#29abe2;}.cls-11{fill:red;}.cls-12{fill:#afc1c6;}.cls-13{fill:#c3d8e0;}.cls-14{stroke:#afc1c6;}.cls-14,.cls-16{stroke-width:1.05px;}.cls-15{clip-path:url(#clip-path-4);}.cls-16{stroke:#636e70;}.cls-17{fill:#717f82;}.cls-18{fill:#f59988;}.cls-19{fill:#fee877;}.cls-20{fill:#78f0ca;}.cls-21{fill:#76e5fd;}.cls-22{fill:#e6e6e6;}.cls-23{stroke:#e6e6e6;stroke-width:1.57px;}.cls-24{fill:#fda288;}.cls-25{fill:#75e6fa;}.cls-26{stroke:#fff;stroke-linecap:round;stroke-linejoin:round;}</style><clipPath id="clip-path" transform="translate(-4.38 -134.73)"><rect class="cls-1" width="500" height="500"/></clipPath><clipPath id="clip-path-2" transform="translate(-4.38 -134.73)"><rect class="cls-1" x="-239" y="-32.94" width="1006" height="565.87"/></clipPath><clipPath id="clip-path-4" transform="translate(-4.38 -134.73)"><rect class="cls-1" x="347.83" y="275.67" width="148.28" height="20.96"/></clipPath></defs><g class="cls-2"><g class="cls-3"><g class="cls-3"><path class="cls-4" d="M111.8,270.81C220.27,114.08,389.47,162,454.08,229.52" transform="translate(-4.38 -134.73)"/><path class="cls-5" d="M6.47,323.66a1,1,0,0,1-.77-1.76l47.55-51.66a1.08,1.08,0,0,1,.77-.34H186.84a1.06,1.06,0,0,1,.8.37l43.63,51.66a1.05,1.05,0,0,1-.8,1.73Z" transform="translate(-4.38 -134.73)"/><path class="cls-6" d="M186.84,271l43.63,51.66H6.47L54,271H186.84m0-2.1H54a2.11,2.11,0,0,0-1.54.68L4.93,321.19a2.1,2.1,0,0,0,1.54,3.51h224a2.09,2.09,0,0,0,1.6-3.44L188.44,269.6a2.12,2.12,0,0,0-1.6-.75" transform="translate(-4.38 -134.73)"/><rect class="cls-7" x="1.05" y="186.83" width="226.09" height="6.51" rx="1.05"/><path class="cls-7" d="M230.47,327H6.47v-4.41h224Zm0-6.51H6.47a2.1,2.1,0,0,0-2.09,2.1V327a2.1,2.1,0,0,0,2.09,2.1h224a2.1,2.1,0,0,0,2.09-2.1v-4.41a2.1,2.1,0,0,0-2.09-2.1" transform="translate(-4.38 -134.73)"/><polygon class="cls-8" points="15.77 182.5 120.3 143.13 52.17 143.13 15.77 182.5"/><polygon class="cls-9" points="125.68 143.13 78.47 162.05 194.12 162.05 179.47 143.13 125.68 143.13"/><polygon class="cls-10" points="27.66 182.5 73.11 166.56 197.61 166.56 209.95 182.5 27.66 182.5"/><path class="cls-5" d="M79,282.28a1.34,1.34,0,0,1-1.12-.61L67.67,266a15.88,15.88,0,0,1-2.92-9.3c0-8.45,6.37-15.33,14.21-15.33s14.22,6.88,14.22,15.33a16,16,0,0,1-2.9,9.28l-10.19,15.7a1.35,1.35,0,0,1-1.13.61M79,244c-6.36,0-11.53,5.67-11.53,12.65a13.28,13.28,0,0,0,2.45,7.79l9.08,14,9-13.88a.62.62,0,0,1,.08-.12,13.35,13.35,0,0,0,2.45-7.79c0-7-5.17-12.65-11.54-12.65m.14,22.56c-4.4,0-8-3.84-8-8.56s3.58-8.56,8-8.56,8,3.84,8,8.56-3.58,8.56-8,8.56m0-14.44c-2.92,0-5.3,2.64-5.3,5.88s2.38,5.88,5.3,5.88a5.91,5.91,0,0,0,0-11.76" transform="translate(-4.38 -134.73)"/><path class="cls-11" d="M79,241.62c7.7,0,14,6.76,14,15.07a15.67,15.67,0,0,1-2.86,9.12l0,0L79.87,281.53a1.08,1.08,0,0,1-1.81,0L67.89,265.84A15.57,15.57,0,0,1,65,256.69c0-8.31,6.26-15.07,13.95-15.07M79,279l9.23-14.22.07-.11a13.54,13.54,0,0,0,2.5-7.94c0-7.12-5.29-12.91-11.8-12.91s-11.8,5.79-11.8,12.91a13.55,13.55,0,0,0,2.51,7.94L79,279m.14-29.22c4.26,0,7.73,3.72,7.73,8.3a8,8,0,0,1-7.73,8.29c-4.26,0-7.72-3.72-7.72-8.29s3.46-8.3,7.72-8.3m0,14.44c3.07,0,5.57-2.76,5.57-6.14a5.6,5.6,0,1,0-11.14,0c0,3.38,2.5,6.14,5.57,6.14M79,241.1c-8,0-14.48,7-14.48,15.59a16.11,16.11,0,0,0,3,9.46l10.16,15.66a1.6,1.6,0,0,0,2.69,0l10.17-15.68,0,0a16.21,16.21,0,0,0,2.94-9.42c0-8.6-6.49-15.59-14.48-15.59M79,278l-8.85-13.66a13,13,0,0,1-2.42-7.65c0-6.83,5.06-12.39,11.27-12.39s11.28,5.56,11.28,12.39a13,13,0,0,1-2.41,7.63l-.09.15Zm.14-28.78c-4.55,0-8.25,4-8.25,8.82s3.7,8.82,8.25,8.82,8.25-4,8.25-8.82-3.7-8.82-8.25-8.82m0,14.44c-2.78,0-5-2.52-5-5.62s2.26-5.62,5-5.62a5.65,5.65,0,0,1,0,11.24" transform="translate(-4.38 -134.73)"/><path class="cls-11" d="M91.62,256.87c0-7.51-5.61-13.6-12.52-13.6s-12.52,6.09-12.52,13.6a14.26,14.26,0,0,0,2.63,8.33l9.89,15.25L89,265.2h0a14.33,14.33,0,0,0,2.63-8.33M79.23,265.2a7,7,0,1,1,6.46-7,6.75,6.75,0,0,1-6.46,7" transform="translate(-4.38 -134.73)"/><path class="cls-5" d="M407,315.49a2,2,0,0,1-2.1-1.93V288.61a2,2,0,0,1,2.1-1.94h29.34a2,2,0,0,1,2.1,1.94v24.95a2,2,0,0,1-2.1,1.93Zm27.25-24.94H409.14v21.07h25.15Z" transform="translate(-4.38 -134.73)"/><path class="cls-12" d="M436.38,287.2a1.49,1.49,0,0,1,1.57,1.41v24.95a1.49,1.49,0,0,1-1.57,1.41H407a1.49,1.49,0,0,1-1.57-1.41V288.61A1.49,1.49,0,0,1,407,287.2h29.34m-27.77,24.94h26.2V290h-26.2Zm27.77-26H407a2.55,2.55,0,0,0-2.62,2.46v24.95A2.55,2.55,0,0,0,407,316h29.34a2.55,2.55,0,0,0,2.62-2.46V288.61a2.55,2.55,0,0,0-2.62-2.46m-26.72,4.92h24.1v20h-24.1Z" transform="translate(-4.38 -134.73)"/><rect class="cls-13" x="402.66" y="153.88" width="29.34" height="24.95"/><path class="cls-5" d="M366.17,327.54a2.1,2.1,0,0,1-2.09-2.09V312.87a2.1,2.1,0,0,1,2.09-2.09H477.25a2.1,2.1,0,0,1,2.1,2.09v12.58a2.1,2.1,0,0,1-2.1,2.09Zm109-12.57H368.27v8.38H475.16Z" transform="translate(-4.38 -134.73)"/><path class="cls-12" d="M477.25,311.3a1.57,1.57,0,0,1,1.57,1.57v12.58a1.57,1.57,0,0,1-1.57,1.57H366.17a1.57,1.57,0,0,1-1.57-1.57V312.87a1.57,1.57,0,0,1,1.57-1.57H477.25M367.74,323.88H475.68v-9.44H367.74Zm109.51-13.63H366.17a2.63,2.63,0,0,0-2.62,2.62v12.58a2.63,2.63,0,0,0,2.62,2.62H477.25a2.62,2.62,0,0,0,2.62-2.62V312.87a2.62,2.62,0,0,0-2.62-2.62m-108.46,5.24H474.63v7.34H368.79Z" transform="translate(-4.38 -134.73)"/><rect class="cls-13" x="361.79" y="178.14" width="111.08" height="12.57"/><path class="cls-5" d="M480.11,290.6H363.31a13.34,13.34,0,0,1-8.5-3.06,14.07,14.07,0,0,1-1.81-1.81,13.41,13.41,0,0,1-3.07-8.51V203.65a13.39,13.39,0,0,1,13.38-13.38h116.8a13.39,13.39,0,0,1,13.38,13.38v73.57a13.34,13.34,0,0,1-4.87,10.32,13.82,13.82,0,0,1-2.14,1.44,13,13,0,0,1-2.4,1,13.31,13.31,0,0,1-4,.6m-116.8-95.09a8.15,8.15,0,0,0-8.14,8.14v73.57a8.15,8.15,0,0,0,1.86,5.17,8.39,8.39,0,0,0,1.12,1.11,8.24,8.24,0,0,0,1.3.88,8.44,8.44,0,0,0,1.45.62,8.19,8.19,0,0,0,2.41.37h116.8a8.19,8.19,0,0,0,2.41-.37,8.89,8.89,0,0,0,1.46-.62,9.28,9.28,0,0,0,1.3-.88,8.12,8.12,0,0,0,3-6.28V203.65a8.15,8.15,0,0,0-8.14-8.14Z" transform="translate(-4.38 -134.73)"/><path class="cls-14" d="M480.11,290.6H363.31a13.34,13.34,0,0,1-8.5-3.06,14.07,14.07,0,0,1-1.81-1.81,13.41,13.41,0,0,1-3.07-8.51V203.65a13.39,13.39,0,0,1,13.38-13.38h116.8a13.39,13.39,0,0,1,13.38,13.38v73.57a13.34,13.34,0,0,1-4.87,10.32,13.82,13.82,0,0,1-2.14,1.44,13,13,0,0,1-2.4,1A13.31,13.31,0,0,1,480.11,290.6Zm-116.8-95.09a8.15,8.15,0,0,0-8.14,8.14v73.57a8.15,8.15,0,0,0,1.86,5.17,8.39,8.39,0,0,0,1.12,1.11,8.24,8.24,0,0,0,1.3.88,8.44,8.44,0,0,0,1.45.62,8.19,8.19,0,0,0,2.41.37h116.8a8.19,8.19,0,0,0,2.41-.37,8.89,8.89,0,0,0,1.46-.62,9.28,9.28,0,0,0,1.3-.88,8.12,8.12,0,0,0,3-6.28V203.65a8.15,8.15,0,0,0-8.14-8.14Z" transform="translate(-4.38 -134.73)"/></g><g class="cls-15"><path class="cls-16" d="M480.11,290.6H363.31a13.34,13.34,0,0,1-8.5-3.06,14.07,14.07,0,0,1-1.81-1.81,13.41,13.41,0,0,1-3.07-8.51V203.65a13.39,13.39,0,0,1,13.38-13.38h116.8a13.39,13.39,0,0,1,13.38,13.38v73.57a13.34,13.34,0,0,1-4.87,10.32,13.82,13.82,0,0,1-2.14,1.44,13,13,0,0,1-2.4,1A13.31,13.31,0,0,1,480.11,290.6Zm-116.8-95.09a8.15,8.15,0,0,0-8.14,8.14v73.57a8.15,8.15,0,0,0,1.86,5.17,8.39,8.39,0,0,0,1.12,1.11,8.24,8.24,0,0,0,1.3.88,8.44,8.44,0,0,0,1.45.62,8.19,8.19,0,0,0,2.41.37h116.8a8.19,8.19,0,0,0,2.41-.37,8.89,8.89,0,0,0,1.46-.62,9.28,9.28,0,0,0,1.3-.88,8.12,8.12,0,0,0,3-6.28V203.65a8.15,8.15,0,0,0-8.14-8.14Z" transform="translate(-4.38 -134.73)"/></g><g class="cls-3"><path class="cls-13" d="M480.11,192.89H363.31a10.79,10.79,0,0,0-10.76,10.76v72H490.87v-72a10.79,10.79,0,0,0-10.76-10.76" transform="translate(-4.38 -134.73)"/><path class="cls-17" d="M352.55,275.41v1.81a10.73,10.73,0,0,0,2.47,6.84,10.07,10.07,0,0,0,1.46,1.46,10.49,10.49,0,0,0,1.71,1.16,11,11,0,0,0,1.93.82,10.85,10.85,0,0,0,3.19.48h116.8a10.85,10.85,0,0,0,3.19-.48,10.9,10.9,0,0,0,3.65-2,10.77,10.77,0,0,0,3.92-8.3v-1.81Zm69.16,9.43a3.15,3.15,0,1,1,3.15-3.14,3.15,3.15,0,0,1-3.15,3.14" transform="translate(-4.38 -134.73)"/><path class="cls-5" d="M483.41,271H360.53a1.7,1.7,0,0,1-1.69-1.7V201.92a1.7,1.7,0,0,1,1.69-1.7H483.41a1.7,1.7,0,0,1,1.7,1.7v67.34a1.7,1.7,0,0,1-1.7,1.7" transform="translate(-4.38 -134.73)"/><rect class="cls-18" x="381.7" y="105.84" width="10.48" height="19.91"/><rect class="cls-19" x="400.57" y="113.17" width="10.48" height="12.57"/><rect class="cls-20" x="421.52" y="97.98" width="10.48" height="30.91"/><rect class="cls-21" x="442.48" y="85.93" width="10.48" height="40.34"/><path class="cls-22" d="M467.56,267.29H375.87a3.41,3.41,0,1,1,0-6.81h91.69a3.41,3.41,0,0,1,0,6.81" transform="translate(-4.38 -134.73)"/><polyline class="cls-23" points="386.68 89.86 405.54 98.76 427.03 83.05 447.46 77.28"/><path class="cls-24" d="M393.94,224.59a2.88,2.88,0,1,1-2.88-2.89,2.88,2.88,0,0,1,2.88,2.89" transform="translate(-4.38 -134.73)"/><path class="cls-19" d="M412.8,233.49a2.88,2.88,0,1,1-2.88-2.88,2.88,2.88,0,0,1,2.88,2.88" transform="translate(-4.38 -134.73)"/><path class="cls-20" d="M434.29,217.77a2.89,2.89,0,1,1-2.89-2.88,2.89,2.89,0,0,1,2.89,2.88" transform="translate(-4.38 -134.73)"/><path class="cls-25" d="M454.72,212a2.88,2.88,0,1,1-2.88-2.88,2.88,2.88,0,0,1,2.88,2.88" transform="translate(-4.38 -134.73)"/><path class="cls-6" d="M279.19,167.48a30.13,30.13,0,1,1-30.12-30.13,30.11,30.11,0,0,1,30.12,30.13" transform="translate(-4.38 -134.73)"/><path class="cls-5" d="M249.07,199.7a32.23,32.23,0,1,1,32.22-32.22,32.27,32.27,0,0,1-32.22,32.22m0-60.26a28,28,0,1,0,28,28,28.06,28.06,0,0,0-28-28" transform="translate(-4.38 -134.73)"/><path class="cls-6" d="M249.07,135.78a31.7,31.7,0,1,1-31.7,31.7,31.74,31.74,0,0,1,31.7-31.7m0,60.25a28.56,28.56,0,1,0-28.56-28.55A28.59,28.59,0,0,0,249.07,196m0-61.3a32.75,32.75,0,1,0,32.74,32.75,32.79,32.79,0,0,0-32.74-32.75m0,60.25a27.51,27.51,0,1,1,27.51-27.5A27.54,27.54,0,0,1,249.07,195" transform="translate(-4.38 -134.73)"/><path class="cls-26" d="M263.73,160.8c4.61,6.08,2.88,15.15-3.86,20.26s-16,4.34-20.56-1.74" transform="translate(-4.38 -134.73)"/><polygon class="cls-5" points="239.55 45.54 235.19 44.94 234.6 49.3 233 47.19 233.6 42.84 237.96 43.43 239.55 45.54"/><path class="cls-26" d="M234.41,174.15c-4.61-6.07-2.88-15.15,3.86-20.26s15.94-4.34,20.55,1.74" transform="translate(-4.38 -134.73)"/><polygon class="cls-5" points="249.83 19.96 254.18 20.56 254.78 16.2 256.38 18.3 255.78 22.66 251.42 22.06 249.83 19.96"/></g></g></g></svg>