<svg xmlns="http://www.w3.org/2000/svg" xmlns:xlink="http://www.w3.org/1999/xlink" viewBox="0 0 952.57 926.53"><defs><style>.cls-1{fill:none;}.cls-2{clip-path:url(#clip-path);}.cls-3{fill:#c3ffaa;}.cls-4{fill:#75b357;}.cls-5{fill:#6ccf3c;}.cls-6{fill:#88db60;}.cls-12,.cls-7{fill:#a3f781;}.cls-8{fill:url(#未命名漸層_29);}.cls-9{fill:url(#未命名漸層_22);}.cls-10,.cls-11{opacity:0.65;}.cls-10{fill:url(#未命名漸層_34);}.cls-11{fill:#25d2f5;}.cls-12{opacity:0.6;}.cls-13{fill:#e6e6e6;}.cls-14{fill:#f2f2f2;}.cls-15{fill:#ccc;}.cls-16{fill:#fe646f;}.cls-17{fill:#fd4755;}.cls-18{fill:#d3e0ef;}.cls-19{fill:#c5d6ef;}.cls-20{fill:url(#新增漸層色票_1);}.cls-21{fill:url(#新增漸層色票_1-2);}.cls-22{fill:url(#新增漸層色票_1-3);}</style><clipPath id="clip-path" transform="translate(-361.22 -36.73)"><rect class="cls-1" width="1675" height="1000"/></clipPath><linearGradient id="未命名漸層_29" x1="712.34" y1="651.79" x2="713.36" y2="527.19" gradientUnits="userSpaceOnUse"><stop offset="0" stop-color="#c3ffaa" stop-opacity="0"/><stop offset="0.08" stop-color="#c3ffaa" stop-opacity="0.04"/><stop offset="0.22" stop-color="#c3ffaa" stop-opacity="0.13"/><stop offset="0.4" stop-color="#c3ffaa" stop-opacity="0.29"/><stop offset="0.6" stop-color="#c3ffaa" stop-opacity="0.5"/><stop offset="0.83" stop-color="#c3ffaa" stop-opacity="0.78"/><stop offset="1" stop-color="#c3ffaa"/></linearGradient><linearGradient id="未命名漸層_22" x1="846.65" y1="653.25" x2="846.65" y2="448.31" gradientUnits="userSpaceOnUse"><stop offset="0" stop-color="#47e0ff" stop-opacity="0"/><stop offset="0.08" stop-color="#47e0ff" stop-opacity="0.04"/><stop offset="0.22" stop-color="#47e0ff" stop-opacity="0.13"/><stop offset="0.4" stop-color="#47e0ff" stop-opacity="0.29"/><stop offset="0.6" stop-color="#47e0ff" stop-opacity="0.5"/><stop offset="0.83" stop-color="#47e0ff" stop-opacity="0.78"/><stop offset="1" stop-color="#47e0ff"/></linearGradient><linearGradient id="未命名漸層_34" x1="1021.75" y1="621.84" x2="1021.75" y2="542.17" gradientUnits="userSpaceOnUse"><stop offset="0" stop-color="#25d2f5" stop-opacity="0"/><stop offset="0.12" stop-color="#25d2f5" stop-opacity="0.04"/><stop offset="0.32" stop-color="#25d2f5" stop-opacity="0.14"/><stop offset="0.56" stop-color="#25d2f5" stop-opacity="0.3"/><stop offset="0.85" stop-color="#25d2f5" stop-opacity="0.52"/><stop offset="1" stop-color="#25d2f5" stop-opacity="0.65"/></linearGradient><linearGradient id="新增漸層色票_1" x1="988.25" y1="104.27" x2="988.25" y2="36.73" gradientUnits="userSpaceOnUse"><stop offset="0" stop-color="#ffd578" stop-opacity="0.3"/><stop offset="1" stop-color="#ffeb5a"/></linearGradient><linearGradient id="新增漸層色票_1-2" x1="675.36" y1="254.76" x2="626.07" y2="278.33" xlink:href="#新增漸層色票_1"/><linearGradient id="新增漸層色票_1-3" x1="102.17" y1="-1302.57" x2="157.69" y2="-1267.24" gradientTransform="matrix(0.54, 0.84, -0.84, 0.54, -159.05, 901.64)" xlink:href="#新增漸層色票_1"/></defs><g id="圖層_2" data-name="圖層 2"><g id="three"><g class="cls-2"><path class="cls-3" d="M920.18,337.35h.1l0,0,0,0h0a59.24,59.24,0,0,0-12.53-11.2c-23.41-15.22-46.38-.84-57.23,8.2a67.14,67.14,0,0,0-6.39,6H844l0,.06,0,0h0C879.2,381.16,918.19,339.53,920.18,337.35Z" transform="translate(-361.22 -36.73)"/><path class="cls-4" d="M895.87,284.47a7.16,7.16,0,0,0-10.13,0L836,334.22V219.16a7.17,7.17,0,1,0-14.33,0v80l-35.74-35.74a7.16,7.16,0,0,0-10.13,10.13l45.51,45.52.36.32v77a7.17,7.17,0,1,0,14.33,0v-42.2a7.67,7.67,0,0,0,1.42-1.09l58.45-58.46A7.16,7.16,0,0,0,895.87,284.47Z" transform="translate(-361.22 -36.73)"/><path class="cls-5" d="M790.14,107.2l0-.07,0,.05-.13-.05.06.19a123.6,123.6,0,0,0-6.79,14.44c41.18,33.81,30.59,77.28,17.92,103.83A108.24,108.24,0,0,0,827.6,241l0,.08,0,0,.13,0,0-.19C830.38,236.24,880.68,145.26,790.14,107.2Z" transform="translate(-361.22 -36.73)"/><path class="cls-6" d="M783.22,121.76c-9.58,23.88-21.61,71.79,17.92,103.83C813.81,199,824.4,155.57,783.22,121.76Z" transform="translate(-361.22 -36.73)"/><path class="cls-7" d="M822.74,241.34l0,0v0l-.11,0,.12-.1a99.68,99.68,0,0,1,1.86-12.56c42.15-4.28,54.27-37.73,57.56-60.89a86.07,86.07,0,0,1,24.31,1.41l.05,0v.05l.11,0-.12.1C906.17,173.57,899.46,256,822.74,241.34Z" transform="translate(-361.22 -36.73)"/><path class="cls-3" d="M824.56,228.65c4.16-20,17.27-57.06,57.56-60.89C878.83,190.92,866.71,224.37,824.56,228.65Z" transform="translate(-361.22 -36.73)"/><path class="cls-6" d="M932.29,244.15l.08-.08h-.08v0l0,0a62,62,0,0,0-17.34,1.54c-28.1,6.93-33.5,34.49-34.35,49.09a70.9,70.9,0,0,0,0,9.08l-.07.08h.08v0l0,0C936.4,306.18,932.53,247.2,932.29,244.15Z" transform="translate(-361.22 -36.73)"/><path class="cls-3" d="M745.29,232.07l-.08-.07a.17.17,0,0,1,0,.07h0l0,0a60.43,60.43,0,0,0,1,17c6,27.69,32.76,33.78,47,35a69.06,69.06,0,0,0,8.87.27l.09.07v-.07h0l0,0C806.09,229.86,748.28,231.93,745.29,232.07Z" transform="translate(-361.22 -36.73)"/><path class="cls-8" d="M794.83,591.54c-6.18-15.49-16.4-28.44-34.75-32.31-30.77-6.48-44.56,12.25-61-1.22-14.66-12-15.29-24.84-30.48-42.67-4.35-5.11-11.27-7.88-19.49-9a205.91,205.91,0,0,0-18.3,85.16Z" transform="translate(-361.22 -36.73)"/><path class="cls-9" d="M963.69,537.29c-22.32-18.1-37.47-2.17-50.19,7a7.48,7.48,0,0,1-.86.51c-51.36,29.65-38.87-15.39-34.36-32.75a63,63,0,0,1,4.19-11.26c3.63-7.62,8.74-28.33-33.39-41.55-41.78-13.12-13.09-56.83.28-74q-5.9-.35-11.86-.35a206.71,206.71,0,0,0-188.36,121.5c8.22,1.08,15.14,3.85,19.49,9C683.82,533.17,684.45,546,699.11,558c16.41,13.47,30.2-5.26,61,1.22,18.35,3.87,28.57,16.82,34.75,32.31h249.33a206.8,206.8,0,0,0-9-60.53C1004.87,533.42,975.56,547.4,963.69,537.29Z" transform="translate(-361.22 -36.73)"/><path class="cls-3" d="M849.36,385.23c-13.37,17.2-42.06,60.91-.28,74,42.13,13.22,37,33.93,33.39,41.55a63,63,0,0,0-4.19,11.26c-4.51,17.36-17,62.4,34.36,32.75a7.48,7.48,0,0,0,.86-.51c12.72-9.19,27.87-25.12,50.19-7,11.87,10.11,41.18-3.87,71.46-6.28C1010.37,450,937.2,390.2,849.36,385.23Z" transform="translate(-361.22 -36.73)"/><g id="陰影"><path class="cls-10" d="M1044.16,591.54a206.8,206.8,0,0,0-9-60.53c-12.49,1-24.81,4-35.81,6.38a206.69,206.69,0,0,1,7.18,54.15Z" transform="translate(-361.22 -36.73)"/><path class="cls-11" d="M837.5,384.88c-6.35,0-12.62.3-18.82.86A208.14,208.14,0,0,1,845.76,390c1.27-1.76,2.49-3.38,3.6-4.8C845.43,385,841.48,384.88,837.5,384.88Z" transform="translate(-361.22 -36.73)"/><path class="cls-12" d="M1034.17,527.93c-.12-.38-.24-.76-.37-1.14-.33-1-.65-2-1-2.95l-.39-1.07q-1.73-4.92-3.7-9.7c-.11-.28-.21-.55-.33-.82-.4-1-.81-1.93-1.23-2.89l-.48-1.09c-.43-1-.85-1.92-1.28-2.87-.12-.25-.24-.49-.35-.74q-2.19-4.71-4.61-9.3l-.5-1c-.5-.92-1-1.83-1.49-2.73l-.54-1c-1.7-3-3.47-6-5.31-8.94-.13-.2-.26-.4-.38-.6-.56-.88-1.13-1.77-1.7-2.63l-.64-1c-.58-.87-1.15-1.73-1.74-2.58l-.51-.74q-2.91-4.23-6-8.29c-.22-.27-.42-.54-.64-.82-.63-.82-1.26-1.63-1.91-2.43-.23-.3-.47-.59-.71-.88-.67-.82-1.33-1.65-2-2.46l-.06-.08c-1.55-1.85-3.14-3.68-4.75-5.49l-.32-.36c-.71-.78-1.42-1.56-2.14-2.33-.25-.28-.51-.55-.77-.83-.71-.75-1.42-1.51-2.14-2.26l-.65-.66c-2.39-2.46-4.84-4.84-7.35-7.18l-.68-.63c-.77-.71-1.55-1.41-2.32-2.1l-.82-.73-2.41-2.11-.24-.2q-2.83-2.42-5.75-4.74h0c-.85-.68-1.71-1.35-2.57-2l-.83-.63c-.83-.64-1.68-1.28-2.53-1.9l-.74-.54c-2.82-2.06-5.68-4.05-8.61-6l-.6-.4c-.91-.59-1.82-1.16-2.73-1.74l-.86-.53-2.8-1.72-.32-.19q-4.63-2.78-9.44-5.3c-.27-.14-.53-.29-.8-.42q-1.44-.76-2.91-1.5l-.76-.37q-4.85-2.42-9.83-4.58l-.42-.18-3.1-1.31-.86-.34c-1-.42-2.09-.84-3.15-1.25l-.37-.14q-5.13-2-10.4-3.69l-.74-.24-3.24-1-.78-.23c-3.59-1.08-7.24-2.05-10.91-2.93l-.18,0L882,389.7l-.87-.19c-1.13-.24-2.26-.48-3.4-.7l-.51-.1q-5.47-1.06-11.08-1.84l-.73-.11-3.45-.43-.89-.1c-2-.23-4-.41-6-.58l-1.18-.1c-1.49-.12-3-.24-4.47-.32h0c-1.11,1.42-2.33,3-3.6,4.8A207,207,0,0,1,999.35,537.4c11-2.44,23.31-5.4,35.8-6.39C1034.83,530,1034.5,529,1034.17,527.93Z" transform="translate(-361.22 -36.73)"/></g><g id="book"><path class="cls-13" d="M1125.75,549.37a13.25,13.25,0,0,0-18.54-2.75L836.44,747.35,565.92,546.8a13.26,13.26,0,1,0-15.79,21.3L828.24,774.27a13.18,13.18,0,0,0,7.88,2.61,13.55,13.55,0,0,0,3.17-.39,13.1,13.1,0,0,0,5.6-2.4L1123,567.92A13.26,13.26,0,0,0,1125.75,549.37Z" transform="translate(-361.22 -36.73)"/><path class="cls-14" d="M1187.72,676.86,853.48,767.72a11.08,11.08,0,0,0-7.76,13.56l18.57,68.35a28,28,0,0,1,3.77-1.32l341-92.71a12.58,12.58,0,0,1-2.79-5.27Z" transform="translate(-361.22 -36.73)"/><path class="cls-13" d="M1254.26,670.22a11.08,11.08,0,0,0-13.57-7.76l-53,14.4,18.6,73.47a12.58,12.58,0,0,0,2.79,5.27l63.65-17.31Z" transform="translate(-361.22 -36.73)"/><path class="cls-14" d="M738.2,823.75l21.26-73.14L435.18,662.46a11.09,11.09,0,0,0-13.57,7.76l-18.5,68.07,334.76,91A12.6,12.6,0,0,1,738.2,823.75Z" transform="translate(-361.22 -36.73)"/><path class="cls-13" d="M811.58,849.63l18.58-68.35a11.08,11.08,0,0,0-7.77-13.56l-62.93-17.11L738.2,823.75a12.6,12.6,0,0,0-.33,5.54l69.94,19A27.52,27.52,0,0,1,811.58,849.63Z" transform="translate(-361.22 -36.73)"/><path class="cls-15" d="M1207.11,592.67a13.26,13.26,0,0,0-17.73-6.11l-353,171.87L483.74,586.74a13.26,13.26,0,1,0-11.6,23.84l358,174.31a13.19,13.19,0,0,0,5.79,1.35,13.46,13.46,0,0,0,2.62-.27,13.26,13.26,0,0,0,4.38-1.26l358-174.32A13.26,13.26,0,0,0,1207.11,592.67Z" transform="translate(-361.22 -36.73)"/><path class="cls-16" d="M1239.62,769.05a43.56,43.56,0,0,0-15.37-24.93l-279.91,75-32.65,8.74s-31.57,6.94-41.46,11.12l-.07,0a14.85,14.85,0,0,0-8.83,10.54,15.64,15.64,0,0,0-.29,2.15,12.39,12.39,0,0,0,1.92,7.13,29.44,29.44,0,0,1,4.27,15.31c0,.22,0,.43,0,.65s0,.27,0,.41c0,.81-.05,1.61-.12,2.4,0,.26,0,.53-.07.8a29.33,29.33,0,0,1-5.82,14.69,29.68,29.68,0,0,1-47.44,0A29.33,29.33,0,0,1,808,878.41c0-.27-.05-.54-.07-.8l.07-.26a23.91,23.91,0,0,1-.17-2.55c0-.22,0-.43,0-.65A29.44,29.44,0,0,1,812,858.84a12.39,12.39,0,0,0,1.92-7.13,15.64,15.64,0,0,0-.29-2.15A14.85,14.85,0,0,0,804.84,839l-.07,0c-9.89-4.18-41.46-11.12-41.46-11.12l-32.65-8.74L397.93,730a29.16,29.16,0,0,0-15.09,56.34l332.73,89.16.26.07L750,884.68c.18,1.73.43,3.43.71,5.12.06.37.11.74.18,1.11a88.06,88.06,0,0,0,173.3,0c.07-.37.12-.74.18-1.11.28-1.69.53-3.39.71-5.12l34.13-9.14.26-.07L1233.53,802A43.54,43.54,0,0,0,1239.62,769.05Z" transform="translate(-361.22 -36.73)"/><path class="cls-17" d="M1312.78,750.6A29.16,29.16,0,0,0,1277.07,730l-52.82,14.15a43.72,43.72,0,0,1,9.28,57.9l58.63-15.71A29.15,29.15,0,0,0,1312.78,750.6Z" transform="translate(-361.22 -36.73)"/></g><circle class="cls-18" cx="515.64" cy="59.67" r="7.87"/><circle class="cls-19" cx="600.43" cy="157.34" r="7.87"/><circle class="cls-18" cx="396.32" cy="308.83" r="7.87"/><circle class="cls-19" cx="350.86" cy="123.85" r="7.87"/><path class="cls-20" d="M974.76,37.37l14.45,10.08a3.47,3.47,0,0,0,3.27.39l16-6.24a3.49,3.49,0,0,1,4.66,4.11l-4.42,17.42a3.48,3.48,0,0,0,.69,3.07L1021,80.3a3.5,3.5,0,0,1-2.65,5.71l-17,.31A3.5,3.5,0,0,0,998.38,88l-8.76,14.57a3.5,3.5,0,0,1-6.27-.56L976.9,85a3.49,3.49,0,0,0-2.32-2.12L957.29,78a3.5,3.5,0,0,1-1.23-6.1l13.42-10.76a3.49,3.49,0,0,0,1.3-3l-1.51-17.56A3.5,3.5,0,0,1,974.76,37.37Z" transform="translate(-361.22 -36.73)"/><path class="cls-21" d="M659.89,246.43l.09,12.32a2.47,2.47,0,0,0,1.1,2l10,6.62a2.44,2.44,0,0,1-.46,4.32l-11.73,4.52a2.44,2.44,0,0,0-1.47,1.64l-3.39,12.28a2.45,2.45,0,0,1-4.33.8l-7-9.58a2.45,2.45,0,0,0-2.15-1l-11.86.9a2.45,2.45,0,0,1-2.21-3.81l7.11-10.57a2.44,2.44,0,0,0,.27-2.18l-4.21-11.84a2.44,2.44,0,0,1,3-3.17L644.2,253a2.45,2.45,0,0,0,2.25-.49l9.41-8A2.45,2.45,0,0,1,659.89,246.43Z" transform="translate(-361.22 -36.73)"/><path class="cls-22" d="M1002,306.33l-.18,7.54a1.47,1.47,0,0,0,.63,1.26l6,4.24a1.5,1.5,0,0,1-.37,2.64l-7.25,2.53a1.51,1.51,0,0,0-.94,1L997.55,333a1.5,1.5,0,0,1-2.66.4l-4.12-6a1.48,1.48,0,0,0-1.3-.64l-7.26.31a1.5,1.5,0,0,1-1.28-2.37l4.55-6.33a1.47,1.47,0,0,0,.21-1.33l-2.33-7.32a1.49,1.49,0,0,1,1.88-1.88l7,2.25a1.52,1.52,0,0,0,1.39-.25l5.91-4.68A1.49,1.49,0,0,1,1002,306.33Z" transform="translate(-361.22 -36.73)"/></g></g></g></svg>