<svg xmlns="http://www.w3.org/2000/svg" xmlns:xlink="http://www.w3.org/1999/xlink" viewBox="0 0 1519.35 782.53"><defs><style>.cls-1{fill:none;}.cls-2{clip-path:url(#clip-path);}.cls-3{fill:url(#新增漸層色票_2);}.cls-4{fill:url(#新增漸層色票_2-2);}.cls-5{fill:url(#未命名漸層_19);}.cls-6{fill:url(#未命名漸層_19-2);}.cls-7{fill:url(#未命名漸層_19-3);}.cls-8{fill:url(#未命名漸層_19-4);}.cls-9{fill:url(#未命名漸層_19-5);}.cls-10{fill:url(#未命名漸層_19-6);}.cls-11{fill:url(#未命名漸層_19-7);}.cls-12{fill:url(#未命名漸層_19-8);}.cls-13{fill:url(#未命名漸層_19-9);}.cls-14{fill:url(#新增漸層色票_3);}.cls-15{fill:url(#未命名漸層_197);}.cls-16{fill:url(#未命名漸層_197-2);}.cls-17{fill:url(#未命名漸層_197-3);}.cls-18{fill:url(#未命名漸層_197-4);}.cls-19{fill:url(#未命名漸層_197-5);}.cls-20{fill:url(#未命名漸層_197-6);}.cls-21{fill:url(#未命名漸層_252);}.cls-22{fill:#fff;}.cls-23{fill:url(#未命名漸層_197-7);}</style><clipPath id="clip-path" transform="translate(-77.83 -108.73)"><rect class="cls-1" width="1675" height="1000"/></clipPath><linearGradient id="新增漸層色票_2" x1="280.42" y1="817.7" x2="280.42" y2="570.02" gradientUnits="userSpaceOnUse"><stop offset="0" stop-color="#d0ebd9"/><stop offset="1" stop-color="#d0e9c7"/></linearGradient><linearGradient id="新增漸層色票_2-2" x1="268.17" y1="717.84" x2="319.23" y2="648.39" xlink:href="#新增漸層色票_2"/><linearGradient id="未命名漸層_19" x1="405.41" y1="602.38" x2="232.3" y2="772.42" gradientUnits="userSpaceOnUse"><stop offset="0" stop-color="#fff"/><stop offset="1" stop-color="#d0ebd9"/></linearGradient><linearGradient id="未命名漸層_19-2" x1="415.99" y1="613.16" x2="242.89" y2="783.2" xlink:href="#未命名漸層_19"/><linearGradient id="未命名漸層_19-3" x1="423.69" y1="620.99" x2="250.59" y2="791.04" xlink:href="#未命名漸層_19"/><linearGradient id="未命名漸層_19-4" x1="428.31" y1="625.7" x2="255.21" y2="795.74" xlink:href="#未命名漸層_19"/><linearGradient id="未命名漸層_19-5" x1="429.74" y1="627.15" x2="256.64" y2="797.2" xlink:href="#未命名漸層_19"/><linearGradient id="未命名漸層_19-6" x1="427.95" y1="625.33" x2="254.84" y2="795.37" xlink:href="#未命名漸層_19"/><linearGradient id="未命名漸層_19-7" x1="422.97" y1="620.26" x2="249.86" y2="790.3" xlink:href="#未命名漸層_19"/><linearGradient id="未命名漸層_19-8" x1="414.93" y1="612.07" x2="241.82" y2="782.12" xlink:href="#未命名漸層_19"/><linearGradient id="未命名漸層_19-9" x1="404.04" y1="600.97" x2="230.93" y2="771.01" xlink:href="#未命名漸層_19"/><linearGradient id="新增漸層色票_3" x1="1208.1" y1="212.07" x2="118.4" y2="767.65" gradientUnits="userSpaceOnUse"><stop offset="0" stop-color="#aed3b9"/><stop offset="0.5" stop-color="#d0ebd9"/><stop offset="1" stop-color="#d0e9c7"/></linearGradient><linearGradient id="未命名漸層_197" x1="1002.49" y1="719.57" x2="959.6" y2="665.96" gradientUnits="userSpaceOnUse"><stop offset="0" stop-color="#ffbeb6"/><stop offset="1" stop-color="#ffecb6"/></linearGradient><linearGradient id="未命名漸層_197-2" x1="544.04" y1="629.77" x2="585.04" y2="629.77" xlink:href="#未命名漸層_197"/><linearGradient id="未命名漸層_197-3" x1="1010.04" y1="319.27" x2="1038.04" y2="319.27" xlink:href="#未命名漸層_197"/><linearGradient id="未命名漸層_197-4" x1="1526.9" y1="55.86" x2="543.41" y2="544.54" xlink:href="#未命名漸層_197"/><linearGradient id="未命名漸層_197-5" x1="1599.61" y1="202.2" x2="616.12" y2="690.88" xlink:href="#未命名漸層_197"/><linearGradient id="未命名漸層_197-6" x1="1612.42" y1="227.99" x2="628.93" y2="716.67" xlink:href="#未命名漸層_197"/><linearGradient id="未命名漸層_252" x1="93.95" y1="420.33" x2="153.69" y2="463.23" gradientTransform="translate(200.86 -20.61) rotate(24.13)" gradientUnits="userSpaceOnUse"><stop offset="0" stop-color="#aed3b9"/><stop offset="1" stop-color="#d0e9c7"/></linearGradient><linearGradient id="未命名漸層_197-7" x1="1009.26" y1="131.44" x2="1130.29" y2="180.46" gradientTransform="translate(140.24 -394.99) rotate(21.73)" xlink:href="#未命名漸層_197"/></defs><g id="圖層_2" data-name="圖層 2"><g id="圖層_6" data-name="圖層 6"><g class="cls-2"><path class="cls-3" d="M280.42,828.27c-72.79,0-132-59.22-132-132a132,132,0,0,1,264,0C412.42,769.05,353.21,828.27,280.42,828.27Zm0-249a117,117,0,1,0,117,117A117.13,117.13,0,0,0,280.42,579.27Z" transform="translate(-77.83 -108.73)"/><path class="cls-4" d="M337,696.27H287v-73.5a7.5,7.5,0,0,0-15,0v81a7.5,7.5,0,0,0,7.5,7.5,7.34,7.34,0,0,0,1.5-.15,7.48,7.48,0,0,0,1.5.15H337a7.5,7.5,0,0,0,0-15Z" transform="translate(-77.83 -108.73)"/><circle class="cls-5" cx="231.47" cy="773.23" r="8"/><circle class="cls-6" cx="260.01" cy="766.38" r="8"/><circle class="cls-7" cx="287.12" cy="755.15" r="8"/><circle class="cls-8" cx="312.13" cy="739.82" r="8"/><circle class="cls-9" cx="334.45" cy="720.76" r="8"/><circle class="cls-10" cx="353.51" cy="698.45" r="8"/><circle class="cls-11" cx="368.84" cy="673.43" r="8"/><circle class="cls-12" cx="380.07" cy="646.32" r="8"/><circle class="cls-13" cx="386.92" cy="617.79" r="8"/><path class="cls-14" d="M1213.93,308.22a6.39,6.39,0,0,0-5.8-6.72L1157,296.84a6.4,6.4,0,1,0-1.16,12.75l30.53,2.78L700.94,530a12.47,12.47,0,0,1-15.53-4.49L614.77,419.14a27.6,27.6,0,0,0-33-10.34c-96.07,38.13-198,75.56-292.64,91a153.36,153.36,0,0,1-16.78,1.69c-104.8,5.37-186.89,90.91-186.89,194.75,0,107.52,87.48,195,195,195a7.5,7.5,0,1,0,0-15c-99.25,0-180-80.75-180-180,0-95.84,75.84-174.81,172.66-179.77a166.13,166.13,0,0,0,18.43-1.87c96-15.7,198.9-53.44,295.75-91.89a12.55,12.55,0,0,1,15,4.7L672.92,533.8a27.42,27.42,0,0,0,34.16,9.88l482-216.12L1175,350a6.39,6.39,0,0,0,2,8.82,6.27,6.27,0,0,0,4.1.95,6.35,6.35,0,0,0,4.72-2.95l27.39-43.47A6.36,6.36,0,0,0,1213.93,308.22Z" transform="translate(-77.83 -108.73)"/><path class="cls-15" d="M975,714.27a29,29,0,1,1,29-29A29,29,0,0,1,975,714.27Zm0-48a19,19,0,1,0,19,19A19,19,0,0,0,975,666.27Z" transform="translate(-77.83 -108.73)"/><path class="cls-16" d="M564.54,650.27a20.5,20.5,0,1,1,20.5-20.5A20.53,20.53,0,0,1,564.54,650.27Zm0-33a12.5,12.5,0,1,0,12.5,12.5A12.51,12.51,0,0,0,564.54,617.27Z" transform="translate(-77.83 -108.73)"/><path class="cls-17" d="M1024,333.27a14,14,0,1,1,14-14A14,14,0,0,1,1024,333.27Zm0-23a9,9,0,1,0,9,9A9,9,0,0,0,1024,310.27Z" transform="translate(-77.83 -108.73)"/><path class="cls-18" d="M536.47,552a7.5,7.5,0,0,1-3.15-14.3l204.15-94.47a7.5,7.5,0,1,1,6.3,13.61L539.62,551.31A7.53,7.53,0,0,1,536.47,552Z" transform="translate(-77.83 -108.73)"/><path class="cls-19" d="M838.7,627.28a7.49,7.49,0,0,1-6.57-3.88l-34.15-62a7.5,7.5,0,1,1,13.13-7.24l30.67,55.69,301.3-151.5a7.5,7.5,0,0,1,6.74,13.4L842.07,626.48A7.39,7.39,0,0,1,838.7,627.28Z" transform="translate(-77.83 -108.73)"/><path class="cls-20" d="M1596.93,238.22a6.39,6.39,0,0,0-5.8-6.72L1540,226.84a6.4,6.4,0,1,0-1.16,12.75l29.18,2.66L1198.15,430.08a7.5,7.5,0,0,0,3.4,14.19,7.39,7.39,0,0,0,3.39-.82l367.72-186.76L1558,280a6.39,6.39,0,0,0,2,8.82,6.27,6.27,0,0,0,4.1.95,6.35,6.35,0,0,0,4.72-2.95l27.39-43.47A6.36,6.36,0,0,0,1596.93,238.22Z" transform="translate(-77.83 -108.73)"/><rect class="cls-21" x="73.65" y="432.27" width="149.98" height="54.66" rx="27.33" transform="translate(-252.72 -7.82) rotate(-24.13)"/><path class="cls-22" d="M156.21,476.07a9.52,9.52,0,1,1,4.8-12.58A9.53,9.53,0,0,1,156.21,476.07Zm-6.53-14.58a6.45,6.45,0,1,0,8.52,3.25A6.46,6.46,0,0,0,149.68,461.49Z" transform="translate(-77.83 -108.73)"/><ellipse class="cls-22" cx="154.58" cy="466.6" rx="2.22" ry="3.17" transform="translate(-255.06 -4.78) rotate(-24.13)"/><path class="cls-22" d="M138.05,485.89a1.55,1.55,0,0,1-1.39-.06l-34.89-19.94,12.89,28.79a1.54,1.54,0,1,1-2.8,1.26L97,462.84a1.5,1.5,0,0,1,.37-1.76,1.52,1.52,0,0,1,1.79-.2l34.89,19.94-12.41-27.7a1.54,1.54,0,0,1,2.81-1.26l14.33,32a1.55,1.55,0,0,1-.37,1.77A1.45,1.45,0,0,1,138.05,485.89Z" transform="translate(-77.83 -108.73)"/><path class="cls-22" d="M191.18,438.2a1.55,1.55,0,0,0-1.6,1.48L189,456.42s-3.55-2.05-3.7-3.46c-.14-1.24.28-2.37-.26-3.59a4,4,0,0,0-.42-.69,3.41,3.41,0,0,0-2.39-1.29,3.32,3.32,0,0,0-1.66.28,3.36,3.36,0,0,0-1.94,3.69,3.19,3.19,0,0,0,.24.78c.54,1.22,1.65,1.65,2.5,2.58s.14,5,.14,5l-12.9-10.67a1.54,1.54,0,0,0-2,2.37l14.92,12.34a1.51,1.51,0,0,0,1.6.21,1.43,1.43,0,0,0,.56-.42,1.51,1.51,0,0,0,.26-1.49,2,2,0,0,1-.11-.72l.33-5.61,4.41,3.49a1.57,1.57,0,0,1,.45.51,1.53,1.53,0,0,0,1.31.84,1.43,1.43,0,0,0,.68-.13,1.52,1.52,0,0,0,.91-1.34l.72-19.34A1.54,1.54,0,0,0,191.18,438.2Zm-9.05,14a1.42,1.42,0,0,1-1.34-.51,1.44,1.44,0,0,1,0-1.76,1.4,1.4,0,0,1,.58-.49,1.46,1.46,0,0,1,1.91.73A1.45,1.45,0,0,1,182.13,452.19Z" transform="translate(-77.83 -108.73)"/><rect class="cls-23" x="997.41" y="133.82" width="203.79" height="68.18" rx="34.09" transform="translate(-61.9 310.11) rotate(-21.73)"/><path class="cls-22" d="M1041.49,168.07l-22.33,8.9a2.15,2.15,0,0,0,1.59,4l.8-.32,13.35,33.5a2.14,2.14,0,0,0,4-1.59l-6.27-15.75,13-5.17a2.15,2.15,0,1,0-1.59-4l-13,5.17-5.48-13.76,17.54-7a2.15,2.15,0,1,0-1.59-4Z" transform="translate(-77.83 -108.73)"/><path class="cls-22" d="M1074,181a1.74,1.74,0,1,0-3.23,1.29l3.35,8.41a.54.54,0,0,0,0,.11l0,.12a5.92,5.92,0,0,1-11.08,4.15l-3.35-8.4a1.74,1.74,0,1,0-3.24,1.28l3.35,8.41a9.4,9.4,0,0,0,17.6-6.6.89.89,0,0,0-.08-.17,1.33,1.33,0,0,0,0-.19Z" transform="translate(-77.83 -108.73)"/><path class="cls-22" d="M1126.19,160.3a1.73,1.73,0,0,0-3.22,1.28l3.34,8.37a.54.54,0,0,0,0,.11l0,.11a5.89,5.89,0,0,1-11,4.14l-3.34-8.37a1.73,1.73,0,0,0-3.22,1.28l3.34,8.37a9.36,9.36,0,0,0,17.52-6.57c0-.06-.06-.12-.08-.17s0-.12,0-.18Z" transform="translate(-77.83 -108.73)"/><path class="cls-22" d="M1097.41,168.9l-4.79,1.9-1.74-4.38a2.15,2.15,0,0,0-4,1.58l1.75,4.39-5.19,2.07a2.14,2.14,0,1,0,1.59,4l5.19-2.06,5.4,13.56a2.15,2.15,0,1,0,4-1.59l-5.41-13.56,4.79-1.91a2.14,2.14,0,1,0-1.59-4Z" transform="translate(-77.83 -108.73)"/><path class="cls-22" d="M1150.39,151.47c-2.43-3.09-6.21-2.6-9.66-.13a7.88,7.88,0,0,0-1.57,1.47l-.43-1.07a1.89,1.89,0,0,0-3.49,1.39l7.39,18.54a1.89,1.89,0,0,0,3.49-1.39L1140.83,157a4.25,4.25,0,0,1,1.82-3.22c1.95-1.39,3.64-2.1,5-.36a1.71,1.71,0,0,0,2.33.25A1.54,1.54,0,0,0,1150.39,151.47Z" transform="translate(-77.83 -108.73)"/><path class="cls-22" d="M1167.47,145.6a8.37,8.37,0,1,0,11.12,10.17,1.4,1.4,0,0,0-2.68-.8,5.58,5.58,0,1,1-.85-4.89l-7.34,2.93a1.39,1.39,0,1,0,1,2.59l8.81-3.51a1.39,1.39,0,0,0,.78-1.81A8.38,8.38,0,0,0,1167.47,145.6Z" transform="translate(-77.83 -108.73)"/></g></g></g></svg>