<svg xmlns="http://www.w3.org/2000/svg" viewBox="0 0 170.08 226.32" width="50px" height="60px"><defs><style>.cls-1{fill:#fccfc8;}.cls-2{fill:#e59383;fill-rule:evenodd;opacity:0.75;}.cls-3{fill:#fcdbdb;}.cls-4{fill:#f9caca;}.cls-5{fill:#422f30;}.cls-6{fill:none;stroke:#422f30;stroke-miterlimit:10;stroke-width:2px;}</style></defs><g id="圖層_2" data-name="圖層 2"><g id="圖層_2-2" data-name="圖層 2"><path class="cls-1" d="M170.08,85A85,85,0,1,0,14.84,133a16.5,16.5,0,0,0,1.79,3.56l55.06,82.59a16.05,16.05,0,0,0,26.7,0l55.06-82.59a16.5,16.5,0,0,0,1.79-3.56A84.6,84.6,0,0,0,170.08,85Z"/><path class="cls-2" d="M150,85.35a65,65,0,1,1-65-65,65,65,0,0,1,65,65"/><path class="cls-3" d="M55.72,76.13c-4,4-8.23,14.22-9.22,20.22s-1.9,13.59,1.68,18.6c8.09,11.36,27.49,9.72,38.73,9.72,13,0,33.92,3.28,36.77-16.08,2.06-14-2.67-28.83-12.6-37.34-7.64-6.54-19.91-5.41-28.85-5.41-7.7,0-22.18,1.58-26.82,10.29"/><path class="cls-4" d="M83.87,91.35C79.46,90.81,73,94.22,71.82,99c-2.4,9.78,13.47,9.79,18.87,9C106,105.83,94,90.12,83.46,90.93"/><ellipse class="cls-5" cx="106.6" cy="89.54" rx="2.64" ry="3.08"/><path class="cls-3" d="M55.41,75.76c-12-1.18-14.35-12.43-15.72-23.89,7.47-2.93,13-3.7,19.68,1.6,4.53,3.57,5.22,9,6.12,14.94"/><path class="cls-3" d="M107.69,69.86c-4.81-15.61,12.8-16.92,20.48-22.24,1.8,3.25,3.07,14.27,2.2,18.18-1.64,7.39-7.15,10.74-12.92,11.78l-.06.93"/><line class="cls-6" x1="78.58" y1="99.45" x2="78.01" y2="102.02"/><line class="cls-6" x1="90.63" y1="102.42" x2="89.96" y2="99.45"/><path class="cls-4" d="M45.51,56.57c-.18,6.63,4.87,14.3,11.25,15.4,3.71.63,3.53-4.64,3.39-7.54C60,60.56,58.07,58.61,54.7,57c-2.05-.95-7.48-2.6-9.41-.93"/><path class="cls-4" d="M111.71,70.3c0-3.91-.86-7.08,2.06-10.07S121.65,57,124,53.45c2,2.2,1.49,11.4.55,14-1.47,4-10.15,9.3-12.79,3.81"/><ellipse class="cls-5" cx="65.31" cy="89.27" rx="2.64" ry="3.08"/></g></g></svg>